<svg width="479" height="251" viewBox="0 0 479 251" fill="none" xmlns="http://www.w3.org/2000/svg">
<path d="M75 183.838C130.876 234.086 231.613 254.477 249.816 165.566C268.018 76.6546 375.618 50.3862 390.466 100.719C408.808 162.899 256.678 180.41 256.678 80.0783C257.44 40.815 285.294 -17.5512 405.353 10.2527C434 16.887 443.5 26.2502 477 10.2527" stroke="#1921E0" stroke-width="5" stroke-dasharray="20 20"/>
<path d="M35.9304 165.4C33.1613 159.049 38.3054 152.082 45.1899 152.859L100.266 159.077C107.15 159.854 110.612 167.793 106.496 173.366L73.5736 217.954C69.4582 223.528 60.8527 222.556 58.0835 216.206L35.9304 165.4Z" fill="#1921E0"/>
<path d="M37.7977 156.795L95.782 188.31L84.983 202.935L37.7977 156.795Z" fill="white"/>
</svg>
