<svg width="745" height="284" viewBox="0 0 745 284" fill="none" xmlns="http://www.w3.org/2000/svg">
<path d="M2.48999 151.5C12.49 247.5 100.89 270.86 168.99 279.5C301 296.25 374 187 374 187C374 187 540.49 -91.4999 700.49 44.0001C723.15 64.0001 750.49 90.5001 735.49 162.5" stroke="#1921E0" stroke-width="5" stroke-dasharray="20 20"/>
<path d="M61.99 259C70.8265 259 77.99 251.837 77.99 243C77.99 234.163 70.8265 227 61.99 227C53.1534 227 45.99 234.163 45.99 243C45.99 251.837 53.1534 259 61.99 259Z" fill="#1921E0"/>
<path d="M283.99 274C292.827 274 299.99 266.837 299.99 258C299.99 249.163 292.827 242 283.99 242C275.153 242 267.99 249.163 267.99 258C267.99 266.837 275.153 274 283.99 274Z" fill="#1921E0"/>
<path d="M422.99 136C431.827 136 438.99 128.837 438.99 120C438.99 111.163 431.827 104 422.99 104C414.153 104 406.99 111.163 406.99 120C406.99 128.837 414.153 136 422.99 136Z" fill="#1921E0"/>
<path d="M550.99 32C559.827 32 566.99 24.8366 566.99 16C566.99 7.16344 559.827 0 550.99 0C542.153 0 534.99 7.16344 534.99 16C534.99 24.8366 542.153 32 550.99 32Z" fill="#1921E0"/>
<path d="M728.99 93C737.827 93 744.99 85.8366 744.99 77C744.99 68.1634 737.827 61 728.99 61C720.153 61 712.99 68.1634 712.99 77C712.99 85.8366 720.153 93 728.99 93Z" fill="#1921E0"/>
</svg>
