<svg width="1093" height="684" viewBox="0 0 1093 684" fill="none" xmlns="http://www.w3.org/2000/svg">
<path d="M1036.02 118.571C1036.02 118.571 935.842 137.688 945.267 109.148C954.692 80.6077 959.539 85.1849 930.995 90.0313C902.451 94.8777 897.604 118.571 878.755 123.418C859.636 128.264 826.245 128.264 821.398 123.418C816.551 118.571 811.973 109.148 807.126 99.4549C802.279 90.0313 788.007 94.6085 773.735 104.301C759.463 113.725 749.769 128.264 730.919 132.841C711.8 137.688 688.103 175.652 664.137 151.958C640.171 127.995 654.712 104.301 621.321 90.0313C587.93 75.7613 592.777 47.2212 573.658 28.1047C554.539 8.98828 540.267 -0.435328 516.301 4.14185C492.335 8.98828 463.791 37.5283 444.672 32.6819C425.553 27.8355 406.434 13.5655 401.856 27.8355C397.279 42.1055 406.703 94.6085 373.312 89.7621C339.922 84.9156 320.802 70.6456 315.955 75.492C311.108 80.3385 296.836 104.032 277.717 104.032C258.598 104.032 272.87 70.6456 244.326 80.0692C215.783 89.4928 191.547 113.725 167.85 109.148C143.884 104.301 148.731 94.8777 115.34 109.148C81.9494 123.418 77.1024 123.418 53.4056 133.111C29.4395 142.534 15.1675 166.228 15.1675 180.767C15.1675 195.037 -3.95149 199.884 5.74266 228.424C15.4368 256.964 48.5585 247.54 62.8304 237.847C77.1024 228.424 96.2214 252.117 115.34 242.694C134.459 233.27 101.068 266.657 120.187 266.657C139.306 266.657 177.545 252.387 182.122 271.503C186.969 290.62 167.85 271.503 139.306 280.927C110.763 290.35 86.7965 285.773 81.9494 271.503C77.1024 257.233 53.4056 290.62 67.6775 300.043C81.9494 309.467 67.6775 352.546 77.1024 338.276C86.5272 324.006 105.646 309.736 119.918 309.736C134.19 309.736 162.734 324.006 162.734 343.122C162.734 362.239 172.159 371.663 124.496 371.663C76.8331 371.663 0.895583 395.356 24.5924 399.933C48.2892 404.511 62.8304 395.087 91.3743 414.203C119.918 433.32 139.037 490.4 139.037 504.939C139.037 519.479 153.309 519.209 172.428 519.209C191.547 519.209 210.666 485.823 224.938 485.823C239.21 485.823 248.904 495.246 258.329 485.823C267.754 476.399 253.482 457.283 263.176 457.283C272.601 457.283 301.414 500.093 296.567 509.786C291.72 519.209 315.686 519.209 334.805 519.209C353.924 519.209 373.043 543.172 406.434 543.172C439.825 543.172 454.097 562.289 458.944 548.019C463.791 533.749 478.063 533.749 478.063 533.749L458.944 557.711C458.944 557.711 482.91 548.288 497.182 571.982C511.454 595.944 521.148 600.522 525.726 610.214C530.304 619.907 530.573 624.484 530.573 634.177C530.573 643.601 525.726 676.987 539.998 676.987C554.27 676.987 544.845 672.141 544.845 657.871C544.845 643.601 544.845 624.484 554.27 624.484C563.695 624.484 587.661 638.755 597.086 633.908C606.511 629.062 587.661 614.792 597.086 614.792C606.511 614.792 601.933 605.368 625.63 605.368C649.596 605.368 673.292 619.638 673.292 610.214C673.292 600.791 668.445 634.177 639.902 634.177C611.358 634.177 611.358 639.024 620.783 643.601C630.207 648.447 630.207 667.564 659.021 657.871C687.564 648.447 692.412 657.871 706.683 653.025C720.955 648.178 725.802 648.178 735.227 648.178C744.652 648.178 768.618 653.025 759.193 662.448C749.769 671.872 744.921 667.295 744.921 676.718C744.921 686.142 744.922 676.718 759.193 676.718C773.465 676.718 792.584 681.565 806.856 667.295C821.128 653.025 825.975 662.448 835.4 657.871C844.825 653.025 844.825 676.987 849.672 667.295C854.519 657.871 868.791 648.178 868.791 638.755C868.791 629.331 859.366 581.405 883.063 581.405C906.76 581.405 925.879 576.559 930.726 571.982C935.573 567.135 940.151 567.135 959.27 567.135C978.389 567.135 1006.93 562.289 1045.17 524.325C1083.41 486.092 1097.68 500.362 1102.53 505.209C1107.38 510.055 1131.07 529.171 1140.77 519.479C1150.46 509.786 1150.19 476.668 1159.88 466.976C1169.31 457.552 1169.31 428.743 1188.43 428.743C1207.55 428.743 1216.97 414.473 1212.39 390.51C1207.55 366.547 1193.28 352.277 1198.12 328.583C1202.97 304.62 1188.7 280.927 1198.12 276.08C1207.55 271.234 1207.55 214.154 1198.12 214.154C1188.7 214.154 1207.55 180.767 1183.85 171.344C1159.88 161.92 1131.34 166.497 1126.49 171.344C1121.65 176.19 1097.95 185.614 1078.83 171.344C1059.71 157.074 1059.71 166.497 1050.29 166.497C1040.86 166.497 1045.71 132.841 1045.71 132.841L1036.02 118.571Z" fill="white" stroke="#1921E0" stroke-width="5.5" stroke-miterlimit="10"/>
</svg>
