<svg width="274" height="387" viewBox="0 0 274 387" fill="none" xmlns="http://www.w3.org/2000/svg">
<rect x="1.75" y="1.75" width="270.5" height="383.5" fill="#FFFEFE" stroke="#1921E0" stroke-width="3.5"/>
<rect x="15.75" y="16.75" width="242.5" height="353.5" stroke="#1921E0" stroke-width="3.5"/>
<path d="M36.0659 209.451C42.1699 209.451 42.1699 212.372 48.2739 212.372C54.378 212.372 54.378 209.451 60.482 209.451C66.5861 209.451 66.5861 212.372 72.6901 212.372C78.7942 212.372 78.7942 209.451 84.8982 209.451C91.0023 209.451 91.0023 212.372 97.1063 212.372C103.21 212.372 103.21 209.451 109.314 209.451C115.418 209.451 115.418 212.372 121.522 212.372C127.627 212.372 127.627 209.451 133.731 209.451C139.835 209.451 139.835 212.372 145.939 212.372C152.043 212.372 152.043 209.451 158.147 209.451C164.251 209.451 164.251 212.372 170.355 212.372C176.459 212.372 176.459 209.451 182.563 209.451C188.667 209.451 188.667 212.372 194.771 212.372C200.875 212.372 200.875 209.451 206.979 209.451C213.083 209.451 213.083 212.372 219.187 212.372C225.291 212.372 225.291 209.451 231.395 209.451C237.499 209.451 237.499 212.372 243.603 212.372C249.707 212.372 249.707 209.451 255.811 209.451" stroke="#1B3F8A" stroke-width="1.5" stroke-miterlimit="10"/>
<path d="M36.0659 213.961C42.1699 213.961 42.1699 216.882 48.2739 216.882C54.378 216.882 54.378 213.961 60.482 213.961C66.5861 213.961 66.5861 216.882 72.6901 216.882C78.7942 216.882 78.7942 213.961 84.8982 213.961C91.0023 213.961 91.0023 216.882 97.1063 216.882C103.21 216.882 103.21 213.961 109.314 213.961C115.418 213.961 115.418 216.882 121.522 216.882C127.627 216.882 127.627 213.961 133.731 213.961C139.835 213.961 139.835 216.882 145.939 216.882C152.043 216.882 152.043 213.961 158.147 213.961C164.251 213.961 164.251 216.882 170.355 216.882C176.459 216.882 176.459 213.961 182.563 213.961C188.667 213.961 188.667 216.882 194.771 216.882C200.875 216.882 200.875 213.961 206.979 213.961C213.083 213.961 213.083 216.882 219.187 216.882C225.291 216.882 225.291 213.961 231.395 213.961C237.499 213.961 237.499 216.882 243.603 216.882C249.707 216.882 249.707 213.961 255.811 213.961" stroke="#1B3F8A" stroke-width="1.5" stroke-miterlimit="10"/>
<path d="M36.0659 218.522C42.1699 218.522 42.1699 221.444 48.2739 221.444C54.378 221.392 54.378 218.522 60.5333 218.522C66.6374 218.522 66.6374 221.444 72.7414 221.444C78.8455 221.444 78.8455 218.522 84.9495 218.522C91.0535 218.522 91.0535 221.444 97.1576 221.444C103.262 221.444 103.262 218.522 109.366 218.522C115.47 218.522 115.47 221.444 121.574 221.444C127.678 221.444 127.678 218.522 133.782 218.522C139.886 218.522 139.886 221.444 145.99 221.444C152.094 221.444 152.094 218.522 158.198 218.522C164.302 218.522 164.302 221.444 170.406 221.444C176.51 221.444 176.51 218.522 182.614 218.522C188.718 218.522 188.718 221.444 194.822 221.444C200.926 221.444 200.926 218.522 207.03 218.522C213.134 218.522 213.134 221.444 219.238 221.444C225.342 221.444 225.343 218.522 231.447 218.522C237.551 218.522 237.551 221.444 243.655 221.444C249.759 221.444 249.759 218.522 255.863 218.522" stroke="#1B3F8A" stroke-width="1.5" stroke-miterlimit="10"/>
<path d="M36.0659 223.032C42.1699 223.032 42.1699 225.954 48.2739 225.954C54.378 225.954 54.378 223.032 60.482 223.032C66.5861 223.032 66.5861 225.954 72.6901 225.954C78.7942 225.954 78.7942 223.032 84.8982 223.032C91.0023 223.032 91.0023 225.954 97.1063 225.954C103.21 225.954 103.21 223.032 109.314 223.032C115.418 223.032 115.418 225.954 121.522 225.954C127.627 225.954 127.627 223.032 133.731 223.032C139.835 223.032 139.835 225.954 145.939 225.954C152.043 225.954 152.043 223.032 158.147 223.032C164.251 223.032 164.251 225.954 170.355 225.954C176.459 225.954 176.459 223.032 182.563 223.032C188.667 223.032 188.667 225.954 194.771 225.954C200.875 225.954 200.875 223.032 206.979 223.032C213.083 223.032 213.083 225.954 219.187 225.954C225.291 225.954 225.291 223.032 231.395 223.032C237.499 223.032 237.499 225.954 243.603 225.954C249.707 225.954 249.707 223.032 255.811 223.032" stroke="#1B3F8A" stroke-width="1.5" stroke-miterlimit="10"/>
<path d="M36.0659 227.542C42.1699 227.542 42.1699 230.464 48.2739 230.464C54.378 230.464 54.378 227.542 60.482 227.542C66.5861 227.542 66.5861 230.464 72.6901 230.464C78.7942 230.464 78.7942 227.542 84.8982 227.542C91.0023 227.542 91.0023 230.464 97.1063 230.464C103.21 230.464 103.21 227.542 109.314 227.542C115.418 227.542 115.418 230.464 121.522 230.464C127.627 230.464 127.627 227.542 133.731 227.542C139.835 227.542 139.835 230.464 145.939 230.464C152.043 230.464 152.043 227.542 158.147 227.542C164.251 227.542 164.251 230.464 170.355 230.464C176.459 230.464 176.459 227.542 182.563 227.542C188.667 227.542 188.667 230.464 194.771 230.464C200.875 230.464 200.875 227.542 206.979 227.542C213.083 227.542 213.083 230.464 219.187 230.464C225.291 230.464 225.291 227.542 231.395 227.542C237.499 227.542 237.499 230.464 243.603 230.464C249.707 230.464 249.707 227.542 255.811 227.542" stroke="#1B3F8A" stroke-width="1.5" stroke-miterlimit="10"/>
<path d="M36.0659 232.052C42.1699 232.052 42.1699 234.974 48.2739 234.974C54.378 234.974 54.378 232.052 60.482 232.052C66.5861 232.052 66.5861 234.974 72.6901 234.974C78.7942 234.974 78.7942 232.052 84.8982 232.052C91.0023 232.052 91.0023 234.974 97.1063 234.974C103.21 234.974 103.21 232.052 109.314 232.052C115.418 232.052 115.418 234.974 121.522 234.974C127.627 234.974 127.627 232.052 133.731 232.052C139.835 232.052 139.835 234.974 145.939 234.974C152.043 234.974 152.043 232.052 158.147 232.052C164.251 232.052 164.251 234.974 170.355 234.974C176.459 234.974 176.459 232.052 182.563 232.052C188.667 232.052 188.667 234.974 194.771 234.974C200.875 234.974 200.875 232.052 206.979 232.052C213.083 232.052 213.083 234.974 219.187 234.974C225.291 234.974 225.291 232.052 231.395 232.052C237.499 232.052 237.499 234.974 243.603 234.974C249.707 234.974 249.707 232.052 255.811 232.052" stroke="#1B3F8A" stroke-width="1.5" stroke-miterlimit="10"/>
<path d="M36.0659 236.614C42.1699 236.614 42.1699 239.535 48.2739 239.535C54.378 239.535 54.378 236.614 60.482 236.614C66.5861 236.614 66.5861 239.535 72.6901 239.535C78.7942 239.535 78.7942 236.614 84.8982 236.614C91.0023 236.614 91.0023 239.535 97.1063 239.535C103.21 239.535 103.21 236.614 109.314 236.614C115.418 236.614 115.418 239.535 121.522 239.535C127.627 239.535 127.627 236.614 133.731 236.614C139.835 236.614 139.835 239.535 145.939 239.535C152.043 239.535 152.043 236.614 158.147 236.614C164.251 236.614 164.251 239.535 170.355 239.535C176.459 239.535 176.459 236.614 182.563 236.614C188.667 236.614 188.667 239.535 194.771 239.535C200.875 239.535 200.875 236.614 206.979 236.614C213.083 236.614 213.083 239.535 219.187 239.535C225.291 239.535 225.291 236.614 231.395 236.614C237.499 236.614 237.499 239.535 243.603 239.535C249.707 239.535 249.707 236.614 255.811 236.614" stroke="#1B3F8A" stroke-width="1.5" stroke-miterlimit="10"/>
<path d="M36.0659 241.124C42.1699 241.124 42.1699 244.045 48.2739 244.045C54.378 244.045 54.378 241.124 60.482 241.124C66.5861 241.124 66.5861 244.045 72.6901 244.045C78.7942 244.045 78.7942 241.124 84.8982 241.124C91.0023 241.124 91.0023 244.045 97.1063 244.045C103.21 244.045 103.21 241.124 109.314 241.124C115.418 241.124 115.418 244.045 121.522 244.045C127.627 244.045 127.627 241.124 133.731 241.124C139.835 241.124 139.835 244.045 145.939 244.045C152.043 244.045 152.043 241.124 158.147 241.124C164.251 241.124 164.251 244.045 170.355 244.045C176.459 244.045 176.459 241.124 182.563 241.124C188.667 241.124 188.667 244.045 194.771 244.045C200.875 244.045 200.875 241.124 206.979 241.124C213.083 241.124 213.083 244.045 219.187 244.045C225.291 244.045 225.291 241.124 231.395 241.124C237.499 241.124 237.499 244.045 243.603 244.045C249.707 244.045 249.707 241.124 255.811 241.124" stroke="#1B3F8A" stroke-width="1.5" stroke-miterlimit="10"/>
<path d="M36.0659 245.634C42.1699 245.634 42.1699 248.555 48.2739 248.555C54.378 248.555 54.378 245.634 60.482 245.634C66.5861 245.634 66.5861 248.555 72.6901 248.555C78.7942 248.555 78.7942 245.634 84.8982 245.634C91.0023 245.634 91.0023 248.555 97.1063 248.555C103.21 248.555 103.21 245.634 109.314 245.634C115.418 245.634 115.418 248.555 121.522 248.555C127.627 248.555 127.627 245.634 133.731 245.634C139.835 245.634 139.835 248.555 145.939 248.555C152.043 248.555 152.043 245.634 158.147 245.634C164.251 245.634 164.251 248.555 170.355 248.555C176.459 248.555 176.459 245.634 182.563 245.634C188.667 245.634 188.667 248.555 194.771 248.555C200.875 248.555 200.875 245.634 206.979 245.634C213.083 245.634 213.083 248.555 219.187 248.555C225.291 248.555 225.291 245.634 231.395 245.634C237.499 245.634 237.499 248.555 243.603 248.555C249.707 248.555 249.707 245.634 255.811 245.634" stroke="#1B3F8A" stroke-width="1.5" stroke-miterlimit="10"/>
<path d="M36.0659 250.144C42.1699 250.144 42.1699 253.065 48.2739 253.065C54.378 253.065 54.378 250.144 60.482 250.144C66.5861 250.144 66.5861 253.065 72.6901 253.065C78.7942 253.065 78.7942 250.144 84.8982 250.144C91.0023 250.144 91.0023 253.065 97.1063 253.065C103.21 253.065 103.21 250.144 109.314 250.144C115.418 250.144 115.418 253.065 121.522 253.065C127.627 253.065 127.627 250.144 133.731 250.144C139.835 250.144 139.835 253.065 145.939 253.065C152.043 253.065 152.043 250.144 158.147 250.144C164.251 250.144 164.251 253.065 170.355 253.065C176.459 253.065 176.459 250.144 182.563 250.144C188.667 250.144 188.667 253.065 194.771 253.065C200.875 253.065 200.875 250.144 206.979 250.144C213.083 250.144 213.083 253.065 219.187 253.065C225.291 253.065 225.291 250.144 231.395 250.144C237.499 250.144 237.499 253.065 243.603 253.065C249.707 253.065 249.707 250.144 255.811 250.144" stroke="#1B3F8A" stroke-width="1.5" stroke-miterlimit="10"/>
<path d="M36.0659 254.705C42.1699 254.705 42.1699 257.626 48.2739 257.626C54.378 257.626 54.378 254.705 60.482 254.705C66.5861 254.705 66.5861 257.626 72.6901 257.626C78.7942 257.626 78.7942 254.705 84.8982 254.705C91.0023 254.705 91.0023 257.626 97.1063 257.626C103.21 257.626 103.21 254.705 109.314 254.705C115.418 254.705 115.418 257.626 121.522 257.626C127.627 257.626 127.627 254.705 133.731 254.705C139.835 254.705 139.835 257.626 145.939 257.626C152.043 257.626 152.043 254.705 158.147 254.705C164.251 254.705 164.251 257.626 170.355 257.626C176.459 257.626 176.459 254.705 182.563 254.705C188.667 254.705 188.667 257.626 194.771 257.626C200.875 257.626 200.875 254.705 206.979 254.705C213.083 254.705 213.083 257.626 219.187 257.626C225.291 257.626 225.291 254.705 231.395 254.705C237.499 254.705 237.499 257.626 243.603 257.626C249.707 257.626 249.707 254.705 255.811 254.705" stroke="#1B3F8A" stroke-width="1.5" stroke-miterlimit="10"/>
<path d="M36.0659 259.215C42.1699 259.215 42.1699 262.136 48.2739 262.136C54.378 262.136 54.378 259.215 60.482 259.215C66.5861 259.215 66.5861 262.136 72.6901 262.136C78.7942 262.136 78.7942 259.215 84.8982 259.215C91.0023 259.215 91.0023 262.136 97.1063 262.136C103.21 262.136 103.21 259.215 109.314 259.215C115.418 259.215 115.418 262.136 121.522 262.136C127.627 262.136 127.627 259.215 133.731 259.215C139.835 259.215 139.835 262.136 145.939 262.136C152.043 262.136 152.043 259.215 158.147 259.215C164.251 259.215 164.251 262.136 170.355 262.136C176.459 262.136 176.459 259.215 182.563 259.215C188.667 259.215 188.667 262.136 194.771 262.136C200.875 262.136 200.875 259.215 206.979 259.215C213.083 259.215 213.083 262.136 219.187 262.136C225.291 262.136 225.291 259.215 231.395 259.215C237.499 259.215 237.499 262.136 243.603 262.136C249.707 262.136 249.707 259.215 255.811 259.215" stroke="#1B3F8A" stroke-width="1.5" stroke-miterlimit="10"/>
<path d="M36.0659 263.725C42.1699 263.725 42.1699 266.646 48.2739 266.646C54.378 266.646 54.378 263.725 60.482 263.725C66.5861 263.725 66.5861 266.646 72.6901 266.646C78.7942 266.646 78.7942 263.725 84.8982 263.725C91.0023 263.725 91.0023 266.646 97.1063 266.646C103.21 266.646 103.21 263.725 109.314 263.725C115.418 263.725 115.418 266.646 121.522 266.646C127.627 266.646 127.627 263.725 133.731 263.725C139.835 263.725 139.835 266.646 145.939 266.646C152.043 266.646 152.043 263.725 158.147 263.725C164.251 263.725 164.251 266.646 170.355 266.646C176.459 266.646 176.459 263.725 182.563 263.725C188.667 263.725 188.667 266.646 194.771 266.646C200.875 266.646 200.875 263.725 206.979 263.725C213.083 263.725 213.083 266.646 219.187 266.646C225.291 266.646 225.291 263.725 231.395 263.725C237.499 263.725 237.499 266.646 243.603 266.646C249.707 266.646 249.707 263.725 255.811 263.725" stroke="#1B3F8A" stroke-width="1.5" stroke-miterlimit="10"/>
<path d="M36.0659 268.235C42.1699 268.235 42.1699 271.156 48.2739 271.156C54.378 271.156 54.378 268.235 60.5333 268.235C66.6374 268.235 66.6374 271.156 72.7414 271.156C78.8455 271.156 78.8455 268.235 84.9495 268.235C91.0535 268.235 91.0535 271.156 97.1576 271.156C103.262 271.156 103.262 268.235 109.366 268.235C115.47 268.235 115.47 271.156 121.574 271.156C127.678 271.156 127.678 268.235 133.782 268.235C139.886 268.235 139.886 271.156 145.99 271.156C152.094 271.156 152.094 268.235 158.198 268.235C164.302 268.235 164.302 271.156 170.406 271.156C176.51 271.156 176.51 268.235 182.614 268.235C188.718 268.235 188.718 271.156 194.822 271.156C200.926 271.156 200.926 268.235 207.03 268.235C213.134 268.235 213.134 271.156 219.238 271.156C225.342 271.156 225.343 268.235 231.447 268.235C237.551 268.235 237.551 271.156 243.655 271.156C249.759 271.156 249.759 268.235 255.863 268.235" stroke="#1B3F8A" stroke-width="1.5" stroke-miterlimit="10"/>
<path d="M36.0659 272.796C42.1699 272.796 42.1699 275.717 48.2739 275.717C54.378 275.717 54.378 272.796 60.482 272.796C66.5861 272.796 66.5861 275.717 72.6901 275.717C78.7942 275.717 78.7942 272.796 84.8982 272.796C91.0023 272.796 91.0023 275.717 97.1063 275.717C103.21 275.717 103.21 272.796 109.314 272.796C115.418 272.796 115.418 275.717 121.522 275.717C127.627 275.717 127.627 272.796 133.731 272.796C139.835 272.796 139.835 275.717 145.939 275.717C152.043 275.717 152.043 272.796 158.147 272.796C164.251 272.796 164.251 275.717 170.355 275.717C176.459 275.717 176.459 272.796 182.563 272.796C188.667 272.796 188.667 275.717 194.771 275.717C200.875 275.717 200.875 272.796 206.979 272.796C213.083 272.796 213.083 275.717 219.187 275.717C225.291 275.717 225.291 272.796 231.395 272.796C237.499 272.796 237.499 275.717 243.603 275.717C249.707 275.717 249.707 272.796 255.811 272.796" stroke="#1B3F8A" stroke-width="1.5" stroke-miterlimit="10"/>
<path d="M36.0659 277.306C42.1699 277.306 42.1699 280.227 48.2739 280.227C54.378 280.227 54.378 277.306 60.482 277.306C66.5861 277.306 66.5861 280.227 72.6901 280.227C78.7942 280.227 78.7942 277.306 84.8982 277.306C91.0023 277.306 91.0023 280.227 97.1063 280.227C103.21 280.227 103.21 277.306 109.314 277.306C115.418 277.306 115.418 280.227 121.522 280.227C127.627 280.227 127.627 277.306 133.731 277.306C139.835 277.306 139.835 280.227 145.939 280.227C152.043 280.227 152.043 277.306 158.147 277.306C164.251 277.306 164.251 280.227 170.355 280.227C176.459 280.227 176.459 277.306 182.563 277.306C188.667 277.306 188.667 280.227 194.771 280.227C200.875 280.227 200.875 277.306 206.979 277.306C213.083 277.306 213.083 280.227 219.187 280.227C225.291 280.227 225.291 277.306 231.395 277.306C237.499 277.306 237.499 280.227 243.603 280.227C249.707 280.227 249.707 277.306 255.811 277.306" stroke="#1B3F8A" stroke-width="1.5" stroke-miterlimit="10"/>
<path d="M36.0659 281.816C42.1699 281.816 42.1699 284.737 48.2739 284.737C54.378 284.737 54.378 281.816 60.482 281.816C66.5861 281.816 66.5861 284.737 72.6901 284.737C78.7942 284.737 78.7942 281.816 84.8982 281.816C91.0023 281.816 91.0023 284.737 97.1063 284.737C103.21 284.737 103.21 281.816 109.314 281.816C115.418 281.816 115.418 284.737 121.522 284.737C127.627 284.737 127.627 281.816 133.731 281.816C139.835 281.816 139.835 284.737 145.939 284.737C152.043 284.737 152.043 281.816 158.147 281.816C164.251 281.816 164.251 284.737 170.355 284.737C176.459 284.737 176.459 281.816 182.563 281.816C188.667 281.816 188.667 284.737 194.771 284.737C200.875 284.737 200.875 281.816 206.979 281.816C213.083 281.816 213.083 284.737 219.187 284.737C225.291 284.737 225.291 281.816 231.395 281.816C237.499 281.816 237.499 284.737 243.603 284.737C249.707 284.737 249.707 281.816 255.811 281.816" stroke="#1B3F8A" stroke-width="1.5" stroke-miterlimit="10"/>
<path d="M36.0659 286.326C42.1699 286.326 42.1699 289.247 48.2739 289.247C54.378 289.247 54.378 286.326 60.482 286.326C66.5861 286.326 66.5861 289.247 72.6901 289.247C78.7942 289.247 78.7942 286.326 84.8982 286.326C91.0023 286.326 91.0023 289.247 97.1063 289.247C103.21 289.247 103.21 286.326 109.314 286.326C115.418 286.326 115.418 289.247 121.522 289.247C127.627 289.247 127.627 286.326 133.731 286.326C139.835 286.326 139.835 289.247 145.939 289.247C152.043 289.247 152.043 286.326 158.147 286.326C164.251 286.326 164.251 289.247 170.355 289.247C176.459 289.247 176.459 286.326 182.563 286.326C188.667 286.326 188.667 289.247 194.771 289.247C200.875 289.247 200.875 286.326 206.979 286.326C213.083 286.326 213.083 289.247 219.187 289.247C225.291 289.247 225.291 286.326 231.395 286.326C237.499 286.326 237.499 289.247 243.603 289.247C249.707 289.247 249.707 286.326 255.811 286.326" stroke="#1B3F8A" stroke-width="1.5" stroke-miterlimit="10"/>
<path d="M36.0659 290.887C42.1699 290.887 42.1699 293.809 48.2739 293.809C54.378 293.809 54.378 290.887 60.482 290.887C66.5861 290.887 66.5861 293.809 72.6901 293.809C78.7942 293.809 78.7942 290.887 84.8982 290.887C91.0023 290.887 91.0023 293.809 97.1063 293.809C103.21 293.809 103.21 290.887 109.314 290.887C115.418 290.887 115.418 293.809 121.522 293.809C127.627 293.809 127.627 290.887 133.731 290.887C139.835 290.887 139.835 293.809 145.939 293.809C152.043 293.809 152.043 290.887 158.147 290.887C164.251 290.887 164.251 293.809 170.355 293.809C176.459 293.809 176.459 290.887 182.563 290.887C188.667 290.887 188.667 293.809 194.771 293.809C200.875 293.809 200.875 290.887 206.979 290.887C213.083 290.887 213.083 293.809 219.187 293.809C225.291 293.809 225.291 290.887 231.395 290.887C237.499 290.887 237.499 293.809 243.603 293.809C249.707 293.809 249.707 290.887 255.811 290.887" stroke="#1B3F8A" stroke-width="1.5" stroke-miterlimit="10"/>
<path d="M36.0659 295.397C42.1699 295.397 42.1699 298.319 48.2739 298.319C54.378 298.319 54.378 295.397 60.5333 295.397C66.6374 295.397 66.6374 298.319 72.7414 298.319C78.8455 298.319 78.8455 295.397 84.9495 295.397C91.0535 295.397 91.0535 298.319 97.1576 298.319C103.262 298.319 103.262 295.397 109.366 295.397C115.47 295.397 115.47 298.319 121.574 298.319C127.678 298.319 127.678 295.397 133.782 295.397C139.886 295.397 139.886 298.319 145.99 298.319C152.094 298.319 152.094 295.397 158.198 295.397C164.302 295.397 164.302 298.319 170.406 298.319C176.51 298.319 176.51 295.397 182.614 295.397C188.718 295.397 188.718 298.319 194.822 298.319C200.926 298.319 200.926 295.397 207.03 295.397C213.134 295.397 213.134 298.319 219.238 298.319C225.342 298.319 225.343 295.397 231.447 295.397C237.551 295.397 237.551 298.319 243.655 298.319C249.759 298.319 249.759 295.397 255.863 295.397" stroke="#1B3F8A" stroke-width="1.5" stroke-miterlimit="10"/>
<path d="M36.0659 299.907C42.1699 299.907 42.1699 302.829 48.2739 302.829C54.378 302.829 54.378 299.907 60.482 299.907C66.5861 299.907 66.5861 302.829 72.6901 302.829C78.7942 302.829 78.7942 299.907 84.8982 299.907C91.0023 299.907 91.0023 302.829 97.1063 302.829C103.21 302.829 103.21 299.907 109.314 299.907C115.418 299.907 115.418 302.829 121.522 302.829C127.627 302.829 127.627 299.907 133.731 299.907C139.835 299.907 139.835 302.829 145.939 302.829C152.043 302.829 152.043 299.907 158.147 299.907C164.251 299.907 164.251 302.829 170.355 302.829C176.459 302.829 176.459 299.907 182.563 299.907C188.667 299.907 188.667 302.829 194.771 302.829C200.875 302.829 200.875 299.907 206.979 299.907C213.083 299.907 213.083 302.829 219.187 302.829C225.291 302.829 225.291 299.907 231.395 299.907C237.499 299.907 237.499 302.829 243.603 302.829C249.707 302.829 249.707 299.907 255.811 299.907" stroke="#1B3F8A" stroke-width="1.5" stroke-miterlimit="10"/>
<path d="M36.0659 304.417C42.1699 304.417 42.1699 307.339 48.2739 307.339C54.378 307.339 54.378 304.417 60.482 304.417C66.5861 304.417 66.5861 307.339 72.6901 307.339C78.7942 307.339 78.7942 304.417 84.8982 304.417C91.0023 304.417 91.0023 307.339 97.1063 307.339C103.21 307.339 103.21 304.417 109.314 304.417C115.418 304.417 115.418 307.339 121.522 307.339C127.627 307.339 127.627 304.417 133.731 304.417C139.835 304.417 139.835 307.339 145.939 307.339C152.043 307.339 152.043 304.417 158.147 304.417C164.251 304.417 164.251 307.339 170.355 307.339C176.459 307.339 176.459 304.417 182.563 304.417C188.667 304.417 188.667 307.339 194.771 307.339C200.875 307.339 200.875 304.417 206.979 304.417C213.083 304.417 213.083 307.339 219.187 307.339C225.291 307.339 225.291 304.417 231.395 304.417C237.499 304.417 237.499 307.339 243.603 307.339C249.707 307.339 249.707 304.417 255.811 304.417" stroke="#1B3F8A" stroke-width="1.5" stroke-miterlimit="10"/>
<path d="M36.0659 308.979C42.1699 308.979 42.1699 311.9 48.2739 311.9C54.378 311.9 54.378 308.979 60.482 308.979C66.5861 308.979 66.5861 311.9 72.6901 311.9C78.7942 311.9 78.7942 308.979 84.8982 308.979C91.0023 308.979 91.0023 311.9 97.1063 311.9C103.21 311.9 103.21 308.979 109.314 308.979C115.418 308.979 115.418 311.9 121.522 311.9C127.627 311.9 127.627 308.979 133.731 308.979C139.835 308.979 139.835 311.9 145.939 311.9C152.043 311.9 152.043 308.979 158.147 308.979C164.251 308.979 164.251 311.9 170.355 311.9C176.459 311.9 176.459 308.979 182.563 308.979C188.667 308.979 188.667 311.9 194.771 311.9C200.875 311.9 200.875 308.979 206.979 308.979C213.083 308.979 213.083 311.9 219.187 311.9C225.291 311.9 225.291 308.979 231.395 308.979C237.499 308.979 237.499 311.9 243.603 311.9C249.707 311.9 249.707 308.979 255.811 308.979" stroke="#1B3F8A" stroke-width="1.5" stroke-miterlimit="10"/>
<path d="M36.0659 313.489C42.1699 313.489 42.1699 316.41 48.2739 316.41C54.378 316.41 54.378 313.489 60.482 313.489C66.5861 313.489 66.5861 316.41 72.6901 316.41C78.7942 316.41 78.7942 313.489 84.8982 313.489C91.0023 313.489 91.0023 316.41 97.1063 316.41C103.21 316.41 103.21 313.489 109.314 313.489C115.418 313.489 115.418 316.41 121.522 316.41C127.627 316.41 127.627 313.489 133.731 313.489C139.835 313.489 139.835 316.41 145.939 316.41C152.043 316.41 152.043 313.489 158.147 313.489C164.251 313.489 164.251 316.41 170.355 316.41C176.459 316.41 176.459 313.489 182.563 313.489C188.667 313.489 188.667 316.41 194.771 316.41C200.875 316.41 200.875 313.489 206.979 313.489C213.083 313.489 213.083 316.41 219.187 316.41C225.291 316.41 225.291 313.489 231.395 313.489C237.499 313.489 237.499 316.41 243.603 316.41C249.707 316.41 249.707 313.489 255.811 313.489" stroke="#1B3F8A" stroke-width="1.5" stroke-miterlimit="10"/>
<path d="M36.0659 317.999C42.1699 317.999 42.1699 320.92 48.2739 320.92C54.378 320.92 54.378 317.999 60.482 317.999C66.5861 317.999 66.5861 320.92 72.6901 320.92C78.7942 320.92 78.7942 317.999 84.8982 317.999C91.0023 317.999 91.0023 320.92 97.1063 320.92C103.21 320.92 103.21 317.999 109.314 317.999C115.418 317.999 115.418 320.92 121.522 320.92C127.627 320.92 127.627 317.999 133.731 317.999C139.835 317.999 139.835 320.92 145.939 320.92C152.043 320.92 152.043 317.999 158.147 317.999C164.251 317.999 164.251 320.92 170.355 320.92C176.459 320.92 176.459 317.999 182.563 317.999C188.667 317.999 188.667 320.92 194.771 320.92C200.875 320.92 200.875 317.999 206.979 317.999C213.083 317.999 213.083 320.92 219.187 320.92C225.291 320.92 225.291 317.999 231.395 317.999C237.499 317.999 237.499 320.92 243.603 320.92C249.707 320.92 249.707 317.999 255.811 317.999" stroke="#1B3F8A" stroke-width="1.5" stroke-miterlimit="10"/>
<path d="M36.0659 322.509C42.1699 322.509 42.1699 325.43 48.2739 325.43C54.378 325.43 54.378 322.509 60.482 322.509C66.5861 322.509 66.5861 325.43 72.6901 325.43C78.7942 325.43 78.7942 322.509 84.8982 322.509C91.0023 322.509 91.0023 325.43 97.1063 325.43C103.21 325.43 103.21 322.509 109.314 322.509C115.418 322.509 115.418 325.43 121.522 325.43C127.627 325.43 127.627 322.509 133.731 322.509C139.835 322.509 139.835 325.43 145.939 325.43C152.043 325.43 152.043 322.509 158.147 322.509C164.251 322.509 164.251 325.43 170.355 325.43C176.459 325.43 176.459 322.509 182.563 322.509C188.667 322.509 188.667 325.43 194.771 325.43C200.875 325.43 200.875 322.509 206.979 322.509C213.083 322.509 213.083 325.43 219.187 325.43C225.291 325.43 225.291 322.509 231.395 322.509C237.499 322.509 237.499 325.43 243.603 325.43C249.707 325.43 249.707 322.509 255.811 322.509" stroke="#1B3F8A" stroke-width="1.5" stroke-miterlimit="10"/>
<path d="M36.0659 327.07C42.1699 327.07 42.1699 329.991 48.2739 329.991C54.378 329.991 54.378 327.07 60.482 327.07C66.5861 327.07 66.5861 329.991 72.6901 329.991C78.7942 329.991 78.7942 327.07 84.8982 327.07C91.0023 327.07 91.0023 329.991 97.1063 329.991C103.21 329.991 103.21 327.07 109.314 327.07C115.418 327.07 115.418 329.991 121.522 329.991C127.627 329.991 127.627 327.07 133.731 327.07C139.835 327.07 139.835 329.991 145.939 329.991C152.043 329.991 152.043 327.07 158.147 327.07C164.251 327.07 164.251 329.991 170.355 329.991C176.459 329.991 176.459 327.07 182.563 327.07C188.667 327.07 188.667 329.991 194.771 329.991C200.875 329.991 200.875 327.07 206.979 327.07C213.083 327.07 213.083 329.991 219.187 329.991C225.291 329.991 225.291 327.07 231.395 327.07C237.499 327.07 237.499 329.991 243.603 329.991C249.707 329.991 249.707 327.07 255.811 327.07" stroke="#1B3F8A" stroke-width="1.5" stroke-miterlimit="10"/>
<path d="M36.0659 331.58C42.1699 331.58 42.1699 334.501 48.2739 334.501C54.378 334.501 54.378 331.58 60.482 331.58C66.5861 331.58 66.5861 334.501 72.6901 334.501C78.7942 334.501 78.7942 331.58 84.8982 331.58C91.0023 331.58 91.0023 334.501 97.1063 334.501C103.21 334.501 103.21 331.58 109.314 331.58C115.418 331.58 115.418 334.501 121.522 334.501C127.627 334.501 127.627 331.58 133.731 331.58C139.835 331.58 139.835 334.501 145.939 334.501C152.043 334.501 152.043 331.58 158.147 331.58C164.251 331.58 164.251 334.501 170.355 334.501C176.459 334.501 176.459 331.58 182.563 331.58C188.667 331.58 188.667 334.501 194.771 334.501C200.875 334.501 200.875 331.58 206.979 331.58C213.083 331.58 213.083 334.501 219.187 334.501C225.291 334.501 225.291 331.58 231.395 331.58C237.499 331.58 237.499 334.501 243.603 334.501C249.707 334.501 249.707 331.58 255.811 331.58" stroke="#1B3F8A" stroke-width="1.5" stroke-miterlimit="10"/>
<path d="M36.0659 336.09C42.1699 336.09 42.1699 339.011 48.2739 339.011C54.378 339.011 54.378 336.09 60.482 336.09C66.5861 336.09 66.5861 339.011 72.6901 339.011C78.7942 339.011 78.7942 336.09 84.8982 336.09C91.0023 336.09 91.0023 339.011 97.1063 339.011C103.21 339.011 103.21 336.09 109.314 336.09C115.418 336.09 115.418 339.011 121.522 339.011C127.627 339.011 127.627 336.09 133.731 336.09C139.835 336.09 139.835 339.011 145.939 339.011C152.043 339.011 152.043 336.09 158.147 336.09C164.251 336.09 164.251 339.011 170.355 339.011C176.459 339.011 176.459 336.09 182.563 336.09C188.667 336.09 188.667 339.011 194.771 339.011C200.875 339.011 200.875 336.09 206.979 336.09C213.083 336.09 213.083 339.011 219.187 339.011C225.291 339.011 225.291 336.09 231.395 336.09C237.499 336.09 237.499 339.011 243.603 339.011C249.707 339.011 249.707 336.09 255.811 336.09" stroke="#1B3F8A" stroke-width="1.5" stroke-miterlimit="10"/>
<path d="M36.0659 340.6C42.1699 340.6 42.1699 343.521 48.2739 343.521C54.378 343.521 54.378 340.6 60.482 340.6C66.5861 340.6 66.5861 343.521 72.6901 343.521C78.7942 343.521 78.7942 340.6 84.8982 340.6C91.0023 340.6 91.0023 343.521 97.1063 343.521C103.21 343.521 103.21 340.6 109.314 340.6C115.418 340.6 115.418 343.521 121.522 343.521C127.627 343.521 127.627 340.6 133.731 340.6C139.835 340.6 139.835 343.521 145.939 343.521C152.043 343.521 152.043 340.6 158.147 340.6C164.251 340.6 164.251 343.521 170.355 343.521C176.459 343.521 176.459 340.6 182.563 340.6C188.667 340.6 188.667 343.521 194.771 343.521C200.875 343.521 200.875 340.6 206.979 340.6C213.083 340.6 213.083 343.521 219.187 343.521C225.291 343.521 225.291 340.6 231.395 340.6C237.499 340.6 237.499 343.521 243.603 343.521C249.707 343.521 249.707 340.6 255.811 340.6" stroke="#1B3F8A" stroke-width="1.5" stroke-miterlimit="10"/>
<path d="M256.889 270.49H79.6149V312.976H256.889V270.49Z" fill="white" stroke="#1B3F8A" stroke-width="1.5" stroke-miterlimit="10"/>
<path d="M256.889 270.49H62.4312V276.537H256.889V270.49Z" fill="white" stroke="#1B3F8A" stroke-width="1.5" stroke-miterlimit="10"/>
<path d="M79.6662 270.49H62.4312V312.976H79.6662V270.49Z" fill="white" stroke="#1B3F8A" stroke-width="1.5" stroke-miterlimit="10"/>
<path d="M256.889 312.976H62.4312V367.609H256.889V312.976Z" fill="#DCE6F4" stroke="#1B3F8A" stroke-width="1.5" stroke-miterlimit="10"/>
<path d="M143.938 188.49H97.3628V312.976H143.938V188.49Z" fill="white" stroke="#1B3F8A" stroke-width="1.5" stroke-miterlimit="10"/>
<path d="M127.267 197.613H113.11V225.954H127.267V197.613Z" fill="white" stroke="#1B3F8A" stroke-width="1.5" stroke-miterlimit="10"/>
<path d="M123.215 202.686H117.162V210.784H123.215V202.686Z" fill="white" stroke="#1B3F8A" stroke-width="1.5" stroke-miterlimit="10"/>
<path d="M123.215 212.782H117.162V220.88H123.215V212.782Z" fill="white" stroke="#1B3F8A" stroke-width="1.5" stroke-miterlimit="10"/>
<path d="M127.267 243.174H113.11V271.515H127.267V243.174Z" fill="white" stroke="#1B3F8A" stroke-width="1.5" stroke-miterlimit="10"/>
<path d="M123.215 248.196H117.162V256.294H123.215V248.196Z" fill="white" stroke="#1B3F8A" stroke-width="1.5" stroke-miterlimit="10"/>
<path d="M123.215 258.344H117.162V266.441H123.215V258.344Z" fill="white" stroke="#1B3F8A" stroke-width="1.5" stroke-miterlimit="10"/>
<path d="M152.043 178.394H89.2582V184.441H152.043V178.394Z" fill="white" stroke="#1B3F8A" stroke-width="1.5" stroke-miterlimit="10"/>
<path d="M140.399 155.126H100.902V178.394H140.399V155.126Z" fill="white" stroke="#1B3F8A" stroke-width="1.5" stroke-miterlimit="10"/>
<path d="M139.886 130.834H101.415V133.857H139.886V130.834Z" fill="white" stroke="#1B3F8A" stroke-width="1.5" stroke-miterlimit="10"/>
<path d="M120.65 119.713C113.264 119.713 107.006 124.325 104.544 130.834H136.757C134.295 124.325 128.037 119.713 120.65 119.713Z" fill="white" stroke="#1B3F8A" stroke-width="1.5" stroke-miterlimit="10"/>
<path d="M124.805 120.686H116.496C115.983 120.686 115.572 120.276 115.572 119.764V119.61C115.572 119.098 115.983 118.688 116.496 118.688H124.805C125.318 118.688 125.729 119.098 125.729 119.61V119.815C125.729 120.276 125.318 120.686 124.805 120.686Z" fill="white" stroke="#1B3F8A" stroke-width="1.5" stroke-miterlimit="10"/>
<path d="M120.65 116.689C123.172 116.689 125.216 114.647 125.216 112.128C125.216 109.609 123.172 107.566 120.65 107.566C118.129 107.566 116.085 109.609 116.085 112.128C116.085 114.647 118.129 116.689 120.65 116.689Z" fill="white" stroke="#1B3F8A" stroke-width="1.5" stroke-miterlimit="10"/>
<path d="M123.215 112.589H118.137V119.661H123.215V112.589Z" fill="white" stroke="#1B3F8A" stroke-width="1.5" stroke-miterlimit="10"/>
<path d="M137.372 133.858H103.928V155.126H137.372V133.858Z" fill="white" stroke="#1B3F8A" stroke-width="1.5" stroke-miterlimit="10"/>
<path d="M113.059 133.858V155.126" stroke="#1B3F8A" stroke-width="1.5" stroke-miterlimit="10"/>
<path d="M127.216 133.858V155.126" stroke="#1B3F8A" stroke-width="1.5" stroke-miterlimit="10"/>
<path d="M155.582 158.15H85.7189V178.394H155.582V158.15Z" fill="white" stroke="#1B3F8A" stroke-width="1.5" stroke-miterlimit="10"/>
<path d="M88.7453 158.15V178.394" stroke="#1B3F8A" stroke-width="1.5" stroke-miterlimit="10"/>
<path d="M91.7717 158.15V178.394" stroke="#1B3F8A" stroke-width="1.5" stroke-miterlimit="10"/>
<path d="M94.798 158.15V178.394" stroke="#1B3F8A" stroke-width="1.5" stroke-miterlimit="10"/>
<path d="M97.8757 158.15V178.394" stroke="#1B3F8A" stroke-width="1.5" stroke-miterlimit="10"/>
<path d="M100.902 158.15V178.394" stroke="#1B3F8A" stroke-width="1.5" stroke-miterlimit="10"/>
<path d="M103.928 158.15V178.394" stroke="#1B3F8A" stroke-width="1.5" stroke-miterlimit="10"/>
<path d="M106.955 158.15V178.394" stroke="#1B3F8A" stroke-width="1.5" stroke-miterlimit="10"/>
<path d="M110.032 158.15V178.394" stroke="#1B3F8A" stroke-width="1.5" stroke-miterlimit="10"/>
<path d="M113.059 158.15V178.394" stroke="#1B3F8A" stroke-width="1.5" stroke-miterlimit="10"/>
<path d="M116.085 158.15V178.394" stroke="#1B3F8A" stroke-width="1.5" stroke-miterlimit="10"/>
<path d="M119.112 158.15V178.394" stroke="#1B3F8A" stroke-width="1.5" stroke-miterlimit="10"/>
<path d="M122.189 158.15V178.394" stroke="#1B3F8A" stroke-width="1.5" stroke-miterlimit="10"/>
<path d="M125.216 158.15V178.394" stroke="#1B3F8A" stroke-width="1.5" stroke-miterlimit="10"/>
<path d="M128.242 158.15V178.394" stroke="#1B3F8A" stroke-width="1.5" stroke-miterlimit="10"/>
<path d="M131.268 158.15V178.394" stroke="#1B3F8A" stroke-width="1.5" stroke-miterlimit="10"/>
<path d="M134.346 158.15V178.394" stroke="#1B3F8A" stroke-width="1.5" stroke-miterlimit="10"/>
<path d="M137.372 158.15V178.394" stroke="#1B3F8A" stroke-width="1.5" stroke-miterlimit="10"/>
<path d="M140.399 158.15V178.394" stroke="#1B3F8A" stroke-width="1.5" stroke-miterlimit="10"/>
<path d="M143.425 158.15V178.394" stroke="#1B3F8A" stroke-width="1.5" stroke-miterlimit="10"/>
<path d="M146.503 158.15V178.394" stroke="#1B3F8A" stroke-width="1.5" stroke-miterlimit="10"/>
<path d="M149.529 158.15V178.394" stroke="#1B3F8A" stroke-width="1.5" stroke-miterlimit="10"/>
<path d="M152.556 158.15V178.394" stroke="#1B3F8A" stroke-width="1.5" stroke-miterlimit="10"/>
<path d="M155.582 158.15V178.394" stroke="#1B3F8A" stroke-width="1.5" stroke-miterlimit="10"/>
<path d="M147.016 184.441H94.3364V188.49H147.016V184.441Z" fill="white" stroke="#1B3F8A" stroke-width="1.5" stroke-miterlimit="10"/>
<path d="M121.215 78.2001V107.566" stroke="#1B3F8A" stroke-width="1.5" stroke-miterlimit="10" stroke-linecap="round"/>
<path d="M118.188 95.0613L114.136 93.5238V96.65L118.188 95.0613Z" fill="#1B3F8A"/>
<path d="M128.293 95.0613L126.293 93.5238V96.65L128.293 95.0613Z" fill="#1B3F8A"/>
<path d="M115.111 95.0613H126.293" stroke="#1B3F8A" stroke-width="1.5" stroke-miterlimit="10"/>
<path d="M256.889 312.976H62.4312V319.024H256.889V312.976Z" fill="white" stroke="#1B3F8A" stroke-width="1.5" stroke-miterlimit="10"/>
<path d="M144.451 312.976H150.555V319.075H156.608V325.123H162.661V331.221H168.765V337.269H174.817V343.368H180.921V349.415H186.974V355.514H193.078V361.561H199.131V367.66" stroke="#1B3F8A" stroke-width="1.5" stroke-miterlimit="10"/>
</svg>
