<svg width="274" height="387" viewBox="0 0 274 387" fill="none" xmlns="http://www.w3.org/2000/svg">
<rect x="1.75" y="1.75" width="270.5" height="383.5" fill="#FFFEFE" stroke="#1921E0" stroke-width="3.5"/>
<rect x="15.75" y="16.75" width="242.5" height="353.5" stroke="#1921E0" stroke-width="3.5"/>
<path d="M37.0659 209.451C43.17 209.451 43.17 212.372 49.274 212.372C55.378 212.372 55.3781 209.451 61.4821 209.451C67.5861 209.451 67.5861 212.372 73.6902 212.372C79.7942 212.372 79.7942 209.451 85.8983 209.451C92.0023 209.451 92.0023 212.372 98.1064 212.372C104.21 212.372 104.21 209.451 110.314 209.451C116.418 209.451 116.418 212.372 122.523 212.372C128.627 212.372 128.627 209.451 134.731 209.451C140.835 209.451 140.835 212.372 146.939 212.372C153.043 212.372 153.043 209.451 159.147 209.451C165.251 209.451 165.251 212.372 171.355 212.372C177.459 212.372 177.459 209.451 183.563 209.451C189.667 209.451 189.667 212.372 195.771 212.372C201.875 212.372 201.875 209.451 207.979 209.451C214.083 209.451 214.083 212.372 220.187 212.372C226.291 212.372 226.291 209.451 232.395 209.451C238.499 209.451 238.499 212.372 244.603 212.372C250.707 212.372 250.707 209.451 256.812 209.451" stroke="#1B3F8A" stroke-width="1.5" stroke-miterlimit="10"/>
<path d="M37.0659 213.961C43.17 213.961 43.17 216.882 49.274 216.882C55.378 216.882 55.3781 213.961 61.4821 213.961C67.5861 213.961 67.5861 216.882 73.6902 216.882C79.7942 216.882 79.7942 213.961 85.8983 213.961C92.0023 213.961 92.0023 216.882 98.1064 216.882C104.21 216.882 104.21 213.961 110.314 213.961C116.418 213.961 116.418 216.882 122.523 216.882C128.627 216.882 128.627 213.961 134.731 213.961C140.835 213.961 140.835 216.882 146.939 216.882C153.043 216.882 153.043 213.961 159.147 213.961C165.251 213.961 165.251 216.882 171.355 216.882C177.459 216.882 177.459 213.961 183.563 213.961C189.667 213.961 189.667 216.882 195.771 216.882C201.875 216.882 201.875 213.961 207.979 213.961C214.083 213.961 214.083 216.882 220.187 216.882C226.291 216.882 226.291 213.961 232.395 213.961C238.499 213.961 238.499 216.882 244.603 216.882C250.707 216.882 250.707 213.961 256.812 213.961" stroke="#1B3F8A" stroke-width="1.5" stroke-miterlimit="10"/>
<path d="M37.0659 218.522C43.17 218.522 43.17 221.444 49.274 221.444C55.378 221.392 55.378 218.522 61.5334 218.522C67.6374 218.522 67.6374 221.444 73.7415 221.444C79.8455 221.444 79.8455 218.522 85.9496 218.522C92.0536 218.522 92.0536 221.444 98.1576 221.444C104.262 221.444 104.262 218.522 110.366 218.522C116.47 218.522 116.47 221.444 122.574 221.444C128.678 221.444 128.678 218.522 134.782 218.522C140.886 218.522 140.886 221.444 146.99 221.444C153.094 221.444 153.094 218.522 159.198 218.522C165.302 218.522 165.302 221.444 171.406 221.444C177.51 221.444 177.51 218.522 183.614 218.522C189.718 218.522 189.718 221.444 195.822 221.444C201.926 221.444 201.926 218.522 208.03 218.522C214.134 218.522 214.134 221.444 220.239 221.444C226.343 221.444 226.343 218.522 232.447 218.522C238.551 218.522 238.551 221.444 244.655 221.444C250.759 221.444 250.759 218.522 256.863 218.522" stroke="#1B3F8A" stroke-width="1.5" stroke-miterlimit="10"/>
<path d="M37.0659 223.032C43.17 223.032 43.17 225.954 49.274 225.954C55.378 225.954 55.3781 223.032 61.4821 223.032C67.5861 223.032 67.5861 225.954 73.6902 225.954C79.7942 225.954 79.7942 223.032 85.8983 223.032C92.0023 223.032 92.0023 225.954 98.1064 225.954C104.21 225.954 104.21 223.032 110.314 223.032C116.418 223.032 116.418 225.954 122.523 225.954C128.627 225.954 128.627 223.032 134.731 223.032C140.835 223.032 140.835 225.954 146.939 225.954C153.043 225.954 153.043 223.032 159.147 223.032C165.251 223.032 165.251 225.954 171.355 225.954C177.459 225.954 177.459 223.032 183.563 223.032C189.667 223.032 189.667 225.954 195.771 225.954C201.875 225.954 201.875 223.032 207.979 223.032C214.083 223.032 214.083 225.954 220.187 225.954C226.291 225.954 226.291 223.032 232.395 223.032C238.499 223.032 238.499 225.954 244.603 225.954C250.707 225.954 250.707 223.032 256.812 223.032" stroke="#1B3F8A" stroke-width="1.5" stroke-miterlimit="10"/>
<path d="M37.0659 227.542C43.17 227.542 43.17 230.464 49.274 230.464C55.378 230.464 55.3781 227.542 61.4821 227.542C67.5861 227.542 67.5861 230.464 73.6902 230.464C79.7942 230.464 79.7942 227.542 85.8983 227.542C92.0023 227.542 92.0023 230.464 98.1064 230.464C104.21 230.464 104.21 227.542 110.314 227.542C116.418 227.542 116.418 230.464 122.523 230.464C128.627 230.464 128.627 227.542 134.731 227.542C140.835 227.542 140.835 230.464 146.939 230.464C153.043 230.464 153.043 227.542 159.147 227.542C165.251 227.542 165.251 230.464 171.355 230.464C177.459 230.464 177.459 227.542 183.563 227.542C189.667 227.542 189.667 230.464 195.771 230.464C201.875 230.464 201.875 227.542 207.979 227.542C214.083 227.542 214.083 230.464 220.187 230.464C226.291 230.464 226.291 227.542 232.395 227.542C238.499 227.542 238.499 230.464 244.603 230.464C250.707 230.464 250.707 227.542 256.812 227.542" stroke="#1B3F8A" stroke-width="1.5" stroke-miterlimit="10"/>
<path d="M37.0659 232.052C43.17 232.052 43.17 234.974 49.274 234.974C55.378 234.974 55.3781 232.052 61.4821 232.052C67.5861 232.052 67.5861 234.974 73.6902 234.974C79.7942 234.974 79.7942 232.052 85.8983 232.052C92.0023 232.052 92.0023 234.974 98.1064 234.974C104.21 234.974 104.21 232.052 110.314 232.052C116.418 232.052 116.418 234.974 122.523 234.974C128.627 234.974 128.627 232.052 134.731 232.052C140.835 232.052 140.835 234.974 146.939 234.974C153.043 234.974 153.043 232.052 159.147 232.052C165.251 232.052 165.251 234.974 171.355 234.974C177.459 234.974 177.459 232.052 183.563 232.052C189.667 232.052 189.667 234.974 195.771 234.974C201.875 234.974 201.875 232.052 207.979 232.052C214.083 232.052 214.083 234.974 220.187 234.974C226.291 234.974 226.291 232.052 232.395 232.052C238.499 232.052 238.499 234.974 244.603 234.974C250.707 234.974 250.707 232.052 256.812 232.052" stroke="#1B3F8A" stroke-width="1.5" stroke-miterlimit="10"/>
<path d="M37.0659 236.614C43.17 236.614 43.17 239.535 49.274 239.535C55.378 239.535 55.3781 236.614 61.4821 236.614C67.5861 236.614 67.5861 239.535 73.6902 239.535C79.7942 239.535 79.7942 236.614 85.8983 236.614C92.0023 236.614 92.0023 239.535 98.1064 239.535C104.21 239.535 104.21 236.614 110.314 236.614C116.418 236.614 116.418 239.535 122.523 239.535C128.627 239.535 128.627 236.614 134.731 236.614C140.835 236.614 140.835 239.535 146.939 239.535C153.043 239.535 153.043 236.614 159.147 236.614C165.251 236.614 165.251 239.535 171.355 239.535C177.459 239.535 177.459 236.614 183.563 236.614C189.667 236.614 189.667 239.535 195.771 239.535C201.875 239.535 201.875 236.614 207.979 236.614C214.083 236.614 214.083 239.535 220.187 239.535C226.291 239.535 226.291 236.614 232.395 236.614C238.499 236.614 238.499 239.535 244.603 239.535C250.707 239.535 250.707 236.614 256.812 236.614" stroke="#1B3F8A" stroke-width="1.5" stroke-miterlimit="10"/>
<path d="M37.0659 241.124C43.17 241.124 43.17 244.045 49.274 244.045C55.378 244.045 55.3781 241.124 61.4821 241.124C67.5861 241.124 67.5861 244.045 73.6902 244.045C79.7942 244.045 79.7942 241.124 85.8983 241.124C92.0023 241.124 92.0023 244.045 98.1064 244.045C104.21 244.045 104.21 241.124 110.314 241.124C116.418 241.124 116.418 244.045 122.523 244.045C128.627 244.045 128.627 241.124 134.731 241.124C140.835 241.124 140.835 244.045 146.939 244.045C153.043 244.045 153.043 241.124 159.147 241.124C165.251 241.124 165.251 244.045 171.355 244.045C177.459 244.045 177.459 241.124 183.563 241.124C189.667 241.124 189.667 244.045 195.771 244.045C201.875 244.045 201.875 241.124 207.979 241.124C214.083 241.124 214.083 244.045 220.187 244.045C226.291 244.045 226.291 241.124 232.395 241.124C238.499 241.124 238.499 244.045 244.603 244.045C250.707 244.045 250.707 241.124 256.812 241.124" stroke="#1B3F8A" stroke-width="1.5" stroke-miterlimit="10"/>
<path d="M37.0659 245.634C43.17 245.634 43.17 248.555 49.274 248.555C55.378 248.555 55.3781 245.634 61.4821 245.634C67.5861 245.634 67.5861 248.555 73.6902 248.555C79.7942 248.555 79.7942 245.634 85.8983 245.634C92.0023 245.634 92.0023 248.555 98.1064 248.555C104.21 248.555 104.21 245.634 110.314 245.634C116.418 245.634 116.418 248.555 122.523 248.555C128.627 248.555 128.627 245.634 134.731 245.634C140.835 245.634 140.835 248.555 146.939 248.555C153.043 248.555 153.043 245.634 159.147 245.634C165.251 245.634 165.251 248.555 171.355 248.555C177.459 248.555 177.459 245.634 183.563 245.634C189.667 245.634 189.667 248.555 195.771 248.555C201.875 248.555 201.875 245.634 207.979 245.634C214.083 245.634 214.083 248.555 220.187 248.555C226.291 248.555 226.291 245.634 232.395 245.634C238.499 245.634 238.499 248.555 244.603 248.555C250.707 248.555 250.707 245.634 256.812 245.634" stroke="#1B3F8A" stroke-width="1.5" stroke-miterlimit="10"/>
<path d="M37.0659 250.144C43.17 250.144 43.17 253.065 49.274 253.065C55.378 253.065 55.3781 250.144 61.4821 250.144C67.5861 250.144 67.5861 253.065 73.6902 253.065C79.7942 253.065 79.7942 250.144 85.8983 250.144C92.0023 250.144 92.0023 253.065 98.1064 253.065C104.21 253.065 104.21 250.144 110.314 250.144C116.418 250.144 116.418 253.065 122.523 253.065C128.627 253.065 128.627 250.144 134.731 250.144C140.835 250.144 140.835 253.065 146.939 253.065C153.043 253.065 153.043 250.144 159.147 250.144C165.251 250.144 165.251 253.065 171.355 253.065C177.459 253.065 177.459 250.144 183.563 250.144C189.667 250.144 189.667 253.065 195.771 253.065C201.875 253.065 201.875 250.144 207.979 250.144C214.083 250.144 214.083 253.065 220.187 253.065C226.291 253.065 226.291 250.144 232.395 250.144C238.499 250.144 238.499 253.065 244.603 253.065C250.707 253.065 250.707 250.144 256.812 250.144" stroke="#1B3F8A" stroke-width="1.5" stroke-miterlimit="10"/>
<path d="M37.0659 254.705C43.17 254.705 43.17 257.626 49.274 257.626C55.378 257.626 55.3781 254.705 61.4821 254.705C67.5861 254.705 67.5861 257.626 73.6902 257.626C79.7942 257.626 79.7942 254.705 85.8983 254.705C92.0023 254.705 92.0023 257.626 98.1064 257.626C104.21 257.626 104.21 254.705 110.314 254.705C116.418 254.705 116.418 257.626 122.523 257.626C128.627 257.626 128.627 254.705 134.731 254.705C140.835 254.705 140.835 257.626 146.939 257.626C153.043 257.626 153.043 254.705 159.147 254.705C165.251 254.705 165.251 257.626 171.355 257.626C177.459 257.626 177.459 254.705 183.563 254.705C189.667 254.705 189.667 257.626 195.771 257.626C201.875 257.626 201.875 254.705 207.979 254.705C214.083 254.705 214.083 257.626 220.187 257.626C226.291 257.626 226.291 254.705 232.395 254.705C238.499 254.705 238.499 257.626 244.603 257.626C250.707 257.626 250.707 254.705 256.812 254.705" stroke="#1B3F8A" stroke-width="1.5" stroke-miterlimit="10"/>
<path d="M37.0659 259.215C43.17 259.215 43.17 262.136 49.274 262.136C55.378 262.136 55.3781 259.215 61.4821 259.215C67.5861 259.215 67.5861 262.136 73.6902 262.136C79.7942 262.136 79.7942 259.215 85.8983 259.215C92.0023 259.215 92.0023 262.136 98.1064 262.136C104.21 262.136 104.21 259.215 110.314 259.215C116.418 259.215 116.418 262.136 122.523 262.136C128.627 262.136 128.627 259.215 134.731 259.215C140.835 259.215 140.835 262.136 146.939 262.136C153.043 262.136 153.043 259.215 159.147 259.215C165.251 259.215 165.251 262.136 171.355 262.136C177.459 262.136 177.459 259.215 183.563 259.215C189.667 259.215 189.667 262.136 195.771 262.136C201.875 262.136 201.875 259.215 207.979 259.215C214.083 259.215 214.083 262.136 220.187 262.136C226.291 262.136 226.291 259.215 232.395 259.215C238.499 259.215 238.499 262.136 244.603 262.136C250.707 262.136 250.707 259.215 256.812 259.215" stroke="#1B3F8A" stroke-width="1.5" stroke-miterlimit="10"/>
<path d="M37.0659 263.725C43.17 263.725 43.17 266.646 49.274 266.646C55.378 266.646 55.3781 263.725 61.4821 263.725C67.5861 263.725 67.5861 266.646 73.6902 266.646C79.7942 266.646 79.7942 263.725 85.8983 263.725C92.0023 263.725 92.0023 266.646 98.1064 266.646C104.21 266.646 104.21 263.725 110.314 263.725C116.418 263.725 116.418 266.646 122.523 266.646C128.627 266.646 128.627 263.725 134.731 263.725C140.835 263.725 140.835 266.646 146.939 266.646C153.043 266.646 153.043 263.725 159.147 263.725C165.251 263.725 165.251 266.646 171.355 266.646C177.459 266.646 177.459 263.725 183.563 263.725C189.667 263.725 189.667 266.646 195.771 266.646C201.875 266.646 201.875 263.725 207.979 263.725C214.083 263.725 214.083 266.646 220.187 266.646C226.291 266.646 226.291 263.725 232.395 263.725C238.499 263.725 238.499 266.646 244.603 266.646C250.707 266.646 250.707 263.725 256.812 263.725" stroke="#1B3F8A" stroke-width="1.5" stroke-miterlimit="10"/>
<path d="M37.0659 268.235C43.17 268.235 43.17 271.156 49.274 271.156C55.378 271.156 55.378 268.235 61.5334 268.235C67.6374 268.235 67.6374 271.156 73.7415 271.156C79.8455 271.156 79.8455 268.235 85.9496 268.235C92.0536 268.235 92.0536 271.156 98.1576 271.156C104.262 271.156 104.262 268.235 110.366 268.235C116.47 268.235 116.47 271.156 122.574 271.156C128.678 271.156 128.678 268.235 134.782 268.235C140.886 268.235 140.886 271.156 146.99 271.156C153.094 271.156 153.094 268.235 159.198 268.235C165.302 268.235 165.302 271.156 171.406 271.156C177.51 271.156 177.51 268.235 183.614 268.235C189.718 268.235 189.718 271.156 195.822 271.156C201.926 271.156 201.926 268.235 208.03 268.235C214.134 268.235 214.134 271.156 220.239 271.156C226.343 271.156 226.343 268.235 232.447 268.235C238.551 268.235 238.551 271.156 244.655 271.156C250.759 271.156 250.759 268.235 256.863 268.235" stroke="#1B3F8A" stroke-width="1.5" stroke-miterlimit="10"/>
<path d="M37.0659 272.796C43.17 272.796 43.17 275.717 49.274 275.717C55.378 275.717 55.3781 272.796 61.4821 272.796C67.5861 272.796 67.5861 275.717 73.6902 275.717C79.7942 275.717 79.7942 272.796 85.8983 272.796C92.0023 272.796 92.0023 275.717 98.1064 275.717C104.21 275.717 104.21 272.796 110.314 272.796C116.418 272.796 116.418 275.717 122.523 275.717C128.627 275.717 128.627 272.796 134.731 272.796C140.835 272.796 140.835 275.717 146.939 275.717C153.043 275.717 153.043 272.796 159.147 272.796C165.251 272.796 165.251 275.717 171.355 275.717C177.459 275.717 177.459 272.796 183.563 272.796C189.667 272.796 189.667 275.717 195.771 275.717C201.875 275.717 201.875 272.796 207.979 272.796C214.083 272.796 214.083 275.717 220.187 275.717C226.291 275.717 226.291 272.796 232.395 272.796C238.499 272.796 238.499 275.717 244.603 275.717C250.707 275.717 250.707 272.796 256.812 272.796" stroke="#1B3F8A" stroke-width="1.5" stroke-miterlimit="10"/>
<path d="M37.0659 277.306C43.17 277.306 43.17 280.227 49.274 280.227C55.378 280.227 55.3781 277.306 61.4821 277.306C67.5861 277.306 67.5861 280.227 73.6902 280.227C79.7942 280.227 79.7942 277.306 85.8983 277.306C92.0023 277.306 92.0023 280.227 98.1064 280.227C104.21 280.227 104.21 277.306 110.314 277.306C116.418 277.306 116.418 280.227 122.523 280.227C128.627 280.227 128.627 277.306 134.731 277.306C140.835 277.306 140.835 280.227 146.939 280.227C153.043 280.227 153.043 277.306 159.147 277.306C165.251 277.306 165.251 280.227 171.355 280.227C177.459 280.227 177.459 277.306 183.563 277.306C189.667 277.306 189.667 280.227 195.771 280.227C201.875 280.227 201.875 277.306 207.979 277.306C214.083 277.306 214.083 280.227 220.187 280.227C226.291 280.227 226.291 277.306 232.395 277.306C238.499 277.306 238.499 280.227 244.603 280.227C250.707 280.227 250.707 277.306 256.812 277.306" stroke="#1B3F8A" stroke-width="1.5" stroke-miterlimit="10"/>
<path d="M37.0659 281.816C43.17 281.816 43.17 284.737 49.274 284.737C55.378 284.737 55.3781 281.816 61.4821 281.816C67.5861 281.816 67.5861 284.737 73.6902 284.737C79.7942 284.737 79.7942 281.816 85.8983 281.816C92.0023 281.816 92.0023 284.737 98.1064 284.737C104.21 284.737 104.21 281.816 110.314 281.816C116.418 281.816 116.418 284.737 122.523 284.737C128.627 284.737 128.627 281.816 134.731 281.816C140.835 281.816 140.835 284.737 146.939 284.737C153.043 284.737 153.043 281.816 159.147 281.816C165.251 281.816 165.251 284.737 171.355 284.737C177.459 284.737 177.459 281.816 183.563 281.816C189.667 281.816 189.667 284.737 195.771 284.737C201.875 284.737 201.875 281.816 207.979 281.816C214.083 281.816 214.083 284.737 220.187 284.737C226.291 284.737 226.291 281.816 232.395 281.816C238.499 281.816 238.499 284.737 244.603 284.737C250.707 284.737 250.707 281.816 256.812 281.816" stroke="#1B3F8A" stroke-width="1.5" stroke-miterlimit="10"/>
<path d="M37.0659 286.326C43.17 286.326 43.17 289.247 49.274 289.247C55.378 289.247 55.3781 286.326 61.4821 286.326C67.5861 286.326 67.5861 289.247 73.6902 289.247C79.7942 289.247 79.7942 286.326 85.8983 286.326C92.0023 286.326 92.0023 289.247 98.1064 289.247C104.21 289.247 104.21 286.326 110.314 286.326C116.418 286.326 116.418 289.247 122.523 289.247C128.627 289.247 128.627 286.326 134.731 286.326C140.835 286.326 140.835 289.247 146.939 289.247C153.043 289.247 153.043 286.326 159.147 286.326C165.251 286.326 165.251 289.247 171.355 289.247C177.459 289.247 177.459 286.326 183.563 286.326C189.667 286.326 189.667 289.247 195.771 289.247C201.875 289.247 201.875 286.326 207.979 286.326C214.083 286.326 214.083 289.247 220.187 289.247C226.291 289.247 226.291 286.326 232.395 286.326C238.499 286.326 238.499 289.247 244.603 289.247C250.707 289.247 250.707 286.326 256.812 286.326" stroke="#1B3F8A" stroke-width="1.5" stroke-miterlimit="10"/>
<path d="M37.0659 290.887C43.17 290.887 43.17 293.809 49.274 293.809C55.378 293.809 55.3781 290.887 61.4821 290.887C67.5861 290.887 67.5861 293.809 73.6902 293.809C79.7942 293.809 79.7942 290.887 85.8983 290.887C92.0023 290.887 92.0023 293.809 98.1064 293.809C104.21 293.809 104.21 290.887 110.314 290.887C116.418 290.887 116.418 293.809 122.523 293.809C128.627 293.809 128.627 290.887 134.731 290.887C140.835 290.887 140.835 293.809 146.939 293.809C153.043 293.809 153.043 290.887 159.147 290.887C165.251 290.887 165.251 293.809 171.355 293.809C177.459 293.809 177.459 290.887 183.563 290.887C189.667 290.887 189.667 293.809 195.771 293.809C201.875 293.809 201.875 290.887 207.979 290.887C214.083 290.887 214.083 293.809 220.187 293.809C226.291 293.809 226.291 290.887 232.395 290.887C238.499 290.887 238.499 293.809 244.603 293.809C250.707 293.809 250.707 290.887 256.812 290.887" stroke="#1B3F8A" stroke-width="1.5" stroke-miterlimit="10"/>
<path d="M37.0659 295.397C43.17 295.397 43.17 298.319 49.274 298.319C55.378 298.319 55.378 295.397 61.5334 295.397C67.6374 295.397 67.6374 298.319 73.7415 298.319C79.8455 298.319 79.8455 295.397 85.9496 295.397C92.0536 295.397 92.0536 298.319 98.1576 298.319C104.262 298.319 104.262 295.397 110.366 295.397C116.47 295.397 116.47 298.319 122.574 298.319C128.678 298.319 128.678 295.397 134.782 295.397C140.886 295.397 140.886 298.319 146.99 298.319C153.094 298.319 153.094 295.397 159.198 295.397C165.302 295.397 165.302 298.319 171.406 298.319C177.51 298.319 177.51 295.397 183.614 295.397C189.718 295.397 189.718 298.319 195.822 298.319C201.926 298.319 201.926 295.397 208.03 295.397C214.134 295.397 214.134 298.319 220.239 298.319C226.343 298.319 226.343 295.397 232.447 295.397C238.551 295.397 238.551 298.319 244.655 298.319C250.759 298.319 250.759 295.397 256.863 295.397" stroke="#1B3F8A" stroke-width="1.5" stroke-miterlimit="10"/>
<path d="M37.0659 299.907C43.17 299.907 43.17 302.829 49.274 302.829C55.378 302.829 55.3781 299.907 61.4821 299.907C67.5861 299.907 67.5861 302.829 73.6902 302.829C79.7942 302.829 79.7942 299.907 85.8983 299.907C92.0023 299.907 92.0023 302.829 98.1064 302.829C104.21 302.829 104.21 299.907 110.314 299.907C116.418 299.907 116.418 302.829 122.523 302.829C128.627 302.829 128.627 299.907 134.731 299.907C140.835 299.907 140.835 302.829 146.939 302.829C153.043 302.829 153.043 299.907 159.147 299.907C165.251 299.907 165.251 302.829 171.355 302.829C177.459 302.829 177.459 299.907 183.563 299.907C189.667 299.907 189.667 302.829 195.771 302.829C201.875 302.829 201.875 299.907 207.979 299.907C214.083 299.907 214.083 302.829 220.187 302.829C226.291 302.829 226.291 299.907 232.395 299.907C238.499 299.907 238.499 302.829 244.603 302.829C250.707 302.829 250.707 299.907 256.812 299.907" stroke="#1B3F8A" stroke-width="1.5" stroke-miterlimit="10"/>
<path d="M37.0659 304.417C43.17 304.417 43.17 307.339 49.274 307.339C55.378 307.339 55.3781 304.417 61.4821 304.417C67.5861 304.417 67.5861 307.339 73.6902 307.339C79.7942 307.339 79.7942 304.417 85.8983 304.417C92.0023 304.417 92.0023 307.339 98.1064 307.339C104.21 307.339 104.21 304.417 110.314 304.417C116.418 304.417 116.418 307.339 122.523 307.339C128.627 307.339 128.627 304.417 134.731 304.417C140.835 304.417 140.835 307.339 146.939 307.339C153.043 307.339 153.043 304.417 159.147 304.417C165.251 304.417 165.251 307.339 171.355 307.339C177.459 307.339 177.459 304.417 183.563 304.417C189.667 304.417 189.667 307.339 195.771 307.339C201.875 307.339 201.875 304.417 207.979 304.417C214.083 304.417 214.083 307.339 220.187 307.339C226.291 307.339 226.291 304.417 232.395 304.417C238.499 304.417 238.499 307.339 244.603 307.339C250.707 307.339 250.707 304.417 256.812 304.417" stroke="#1B3F8A" stroke-width="1.5" stroke-miterlimit="10"/>
<path d="M37.0659 308.979C43.17 308.979 43.17 311.9 49.274 311.9C55.378 311.9 55.3781 308.979 61.4821 308.979C67.5861 308.979 67.5861 311.9 73.6902 311.9C79.7942 311.9 79.7942 308.979 85.8983 308.979C92.0023 308.979 92.0023 311.9 98.1064 311.9C104.21 311.9 104.21 308.979 110.314 308.979C116.418 308.979 116.418 311.9 122.523 311.9C128.627 311.9 128.627 308.979 134.731 308.979C140.835 308.979 140.835 311.9 146.939 311.9C153.043 311.9 153.043 308.979 159.147 308.979C165.251 308.979 165.251 311.9 171.355 311.9C177.459 311.9 177.459 308.979 183.563 308.979C189.667 308.979 189.667 311.9 195.771 311.9C201.875 311.9 201.875 308.979 207.979 308.979C214.083 308.979 214.083 311.9 220.187 311.9C226.291 311.9 226.291 308.979 232.395 308.979C238.499 308.979 238.499 311.9 244.603 311.9C250.707 311.9 250.707 308.979 256.812 308.979" stroke="#1B3F8A" stroke-width="1.5" stroke-miterlimit="10"/>
<path d="M37.0659 313.489C43.17 313.489 43.17 316.41 49.274 316.41C55.378 316.41 55.3781 313.489 61.4821 313.489C67.5861 313.489 67.5861 316.41 73.6902 316.41C79.7942 316.41 79.7942 313.489 85.8983 313.489C92.0023 313.489 92.0023 316.41 98.1064 316.41C104.21 316.41 104.21 313.489 110.314 313.489C116.418 313.489 116.418 316.41 122.523 316.41C128.627 316.41 128.627 313.489 134.731 313.489C140.835 313.489 140.835 316.41 146.939 316.41C153.043 316.41 153.043 313.489 159.147 313.489C165.251 313.489 165.251 316.41 171.355 316.41C177.459 316.41 177.459 313.489 183.563 313.489C189.667 313.489 189.667 316.41 195.771 316.41C201.875 316.41 201.875 313.489 207.979 313.489C214.083 313.489 214.083 316.41 220.187 316.41C226.291 316.41 226.291 313.489 232.395 313.489C238.499 313.489 238.499 316.41 244.603 316.41C250.707 316.41 250.707 313.489 256.812 313.489" stroke="#1B3F8A" stroke-width="1.5" stroke-miterlimit="10"/>
<path d="M37.0659 317.999C43.17 317.999 43.17 320.92 49.274 320.92C55.378 320.92 55.3781 317.999 61.4821 317.999C67.5861 317.999 67.5861 320.92 73.6902 320.92C79.7942 320.92 79.7942 317.999 85.8983 317.999C92.0023 317.999 92.0023 320.92 98.1064 320.92C104.21 320.92 104.21 317.999 110.314 317.999C116.418 317.999 116.418 320.92 122.523 320.92C128.627 320.92 128.627 317.999 134.731 317.999C140.835 317.999 140.835 320.92 146.939 320.92C153.043 320.92 153.043 317.999 159.147 317.999C165.251 317.999 165.251 320.92 171.355 320.92C177.459 320.92 177.459 317.999 183.563 317.999C189.667 317.999 189.667 320.92 195.771 320.92C201.875 320.92 201.875 317.999 207.979 317.999C214.083 317.999 214.083 320.92 220.187 320.92C226.291 320.92 226.291 317.999 232.395 317.999C238.499 317.999 238.499 320.92 244.603 320.92C250.707 320.92 250.707 317.999 256.812 317.999" stroke="#1B3F8A" stroke-width="1.5" stroke-miterlimit="10"/>
<path d="M37.0659 322.509C43.17 322.509 43.17 325.43 49.274 325.43C55.378 325.43 55.3781 322.509 61.4821 322.509C67.5861 322.509 67.5861 325.43 73.6902 325.43C79.7942 325.43 79.7942 322.509 85.8983 322.509C92.0023 322.509 92.0023 325.43 98.1064 325.43C104.21 325.43 104.21 322.509 110.314 322.509C116.418 322.509 116.418 325.43 122.523 325.43C128.627 325.43 128.627 322.509 134.731 322.509C140.835 322.509 140.835 325.43 146.939 325.43C153.043 325.43 153.043 322.509 159.147 322.509C165.251 322.509 165.251 325.43 171.355 325.43C177.459 325.43 177.459 322.509 183.563 322.509C189.667 322.509 189.667 325.43 195.771 325.43C201.875 325.43 201.875 322.509 207.979 322.509C214.083 322.509 214.083 325.43 220.187 325.43C226.291 325.43 226.291 322.509 232.395 322.509C238.499 322.509 238.499 325.43 244.603 325.43C250.707 325.43 250.707 322.509 256.812 322.509" stroke="#1B3F8A" stroke-width="1.5" stroke-miterlimit="10"/>
<path d="M37.0659 327.07C43.17 327.07 43.17 329.991 49.274 329.991C55.378 329.991 55.3781 327.07 61.4821 327.07C67.5861 327.07 67.5861 329.991 73.6902 329.991C79.7942 329.991 79.7942 327.07 85.8983 327.07C92.0023 327.07 92.0023 329.991 98.1064 329.991C104.21 329.991 104.21 327.07 110.314 327.07C116.418 327.07 116.418 329.991 122.523 329.991C128.627 329.991 128.627 327.07 134.731 327.07C140.835 327.07 140.835 329.991 146.939 329.991C153.043 329.991 153.043 327.07 159.147 327.07C165.251 327.07 165.251 329.991 171.355 329.991C177.459 329.991 177.459 327.07 183.563 327.07C189.667 327.07 189.667 329.991 195.771 329.991C201.875 329.991 201.875 327.07 207.979 327.07C214.083 327.07 214.083 329.991 220.187 329.991C226.291 329.991 226.291 327.07 232.395 327.07C238.499 327.07 238.499 329.991 244.603 329.991C250.707 329.991 250.707 327.07 256.812 327.07" stroke="#1B3F8A" stroke-width="1.5" stroke-miterlimit="10"/>
<path d="M37.0659 331.58C43.17 331.58 43.17 334.501 49.274 334.501C55.378 334.501 55.3781 331.58 61.4821 331.58C67.5861 331.58 67.5861 334.501 73.6902 334.501C79.7942 334.501 79.7942 331.58 85.8983 331.58C92.0023 331.58 92.0023 334.501 98.1064 334.501C104.21 334.501 104.21 331.58 110.314 331.58C116.418 331.58 116.418 334.501 122.523 334.501C128.627 334.501 128.627 331.58 134.731 331.58C140.835 331.58 140.835 334.501 146.939 334.501C153.043 334.501 153.043 331.58 159.147 331.58C165.251 331.58 165.251 334.501 171.355 334.501C177.459 334.501 177.459 331.58 183.563 331.58C189.667 331.58 189.667 334.501 195.771 334.501C201.875 334.501 201.875 331.58 207.979 331.58C214.083 331.58 214.083 334.501 220.187 334.501C226.291 334.501 226.291 331.58 232.395 331.58C238.499 331.58 238.499 334.501 244.603 334.501C250.707 334.501 250.707 331.58 256.812 331.58" stroke="#1B3F8A" stroke-width="1.5" stroke-miterlimit="10"/>
<path d="M37.0659 336.09C43.17 336.09 43.17 339.011 49.274 339.011C55.378 339.011 55.3781 336.09 61.4821 336.09C67.5861 336.09 67.5861 339.011 73.6902 339.011C79.7942 339.011 79.7942 336.09 85.8983 336.09C92.0023 336.09 92.0023 339.011 98.1064 339.011C104.21 339.011 104.21 336.09 110.314 336.09C116.418 336.09 116.418 339.011 122.523 339.011C128.627 339.011 128.627 336.09 134.731 336.09C140.835 336.09 140.835 339.011 146.939 339.011C153.043 339.011 153.043 336.09 159.147 336.09C165.251 336.09 165.251 339.011 171.355 339.011C177.459 339.011 177.459 336.09 183.563 336.09C189.667 336.09 189.667 339.011 195.771 339.011C201.875 339.011 201.875 336.09 207.979 336.09C214.083 336.09 214.083 339.011 220.187 339.011C226.291 339.011 226.291 336.09 232.395 336.09C238.499 336.09 238.499 339.011 244.603 339.011C250.707 339.011 250.707 336.09 256.812 336.09" stroke="#1B3F8A" stroke-width="1.5" stroke-miterlimit="10"/>
<path d="M37.0659 340.6C43.17 340.6 43.17 343.521 49.274 343.521C55.378 343.521 55.3781 340.6 61.4821 340.6C67.5861 340.6 67.5861 343.521 73.6902 343.521C79.7942 343.521 79.7942 340.6 85.8983 340.6C92.0023 340.6 92.0023 343.521 98.1064 343.521C104.21 343.521 104.21 340.6 110.314 340.6C116.418 340.6 116.418 343.521 122.523 343.521C128.627 343.521 128.627 340.6 134.731 340.6C140.835 340.6 140.835 343.521 146.939 343.521C153.043 343.521 153.043 340.6 159.147 340.6C165.251 340.6 165.251 343.521 171.355 343.521C177.459 343.521 177.459 340.6 183.563 340.6C189.667 340.6 189.667 343.521 195.771 343.521C201.875 343.521 201.875 340.6 207.979 340.6C214.083 340.6 214.083 343.521 220.187 343.521C226.291 343.521 226.291 340.6 232.395 340.6C238.499 340.6 238.499 343.521 244.603 343.521C250.707 343.521 250.707 340.6 256.812 340.6" stroke="#1B3F8A" stroke-width="1.5" stroke-miterlimit="10"/>
<path d="M17 236.333C17 236.333 92.7299 229.233 145.154 258.764C163.984 269.362 187.701 268.384 207.92 294.828C245.373 343.806 257 323.69 257 357.079V368.5H17V236.333Z" fill="#DCE6F4" stroke="#1B3F8A" stroke-width="1.5" stroke-miterlimit="10"/>
<path d="M144.125 156.024H117.064L103.482 158.288L117.064 160.603H144.125L157.656 158.288L144.125 156.024Z" fill="white" stroke="#1B3F8A" stroke-width="1.5" stroke-miterlimit="10" stroke-linejoin="round"/>
<path d="M153.489 180.924H109.502L87.4824 184.577L109.502 188.23H153.489L175.508 184.577L153.489 180.924Z" fill="white" stroke="#1B3F8A" stroke-width="1.5" stroke-miterlimit="10" stroke-linecap="round" stroke-linejoin="round"/>
<path d="M171.444 300.178L148.704 303.986V196.976L171.444 193.117V300.178Z" fill="white" stroke="#1B3F8A" stroke-width="1.5" stroke-miterlimit="10"/>
<path d="M148.704 195.69H113.052V303.986H148.704V195.69Z" fill="white" stroke="#1B3F8A" stroke-width="1.5" stroke-miterlimit="10"/>
<path d="M141.707 200.989H120.048V234.121H141.707V200.989Z" fill="white" stroke="#1B3F8A" stroke-width="1.5" stroke-miterlimit="10"/>
<path d="M130.903 205.465H123.238V213.542H130.903V205.465Z" fill="white" stroke="#1B3F8A" stroke-width="1.5" stroke-miterlimit="10"/>
<path d="M130.903 213.542H123.238V221.619H130.903V213.542Z" fill="white" stroke="#1B3F8A" stroke-width="1.5" stroke-miterlimit="10"/>
<path d="M130.903 221.568H123.238V229.645H130.903V221.568Z" fill="white" stroke="#1B3F8A" stroke-width="1.5" stroke-miterlimit="10"/>
<path d="M138.518 205.465H130.852V213.542H138.518V205.465Z" fill="white" stroke="#1B3F8A" stroke-width="1.5" stroke-miterlimit="10"/>
<path d="M138.518 213.542H130.852V221.619H138.518V213.542Z" fill="white" stroke="#1B3F8A" stroke-width="1.5" stroke-miterlimit="10"/>
<path d="M138.518 221.568H130.852V229.645H138.518V221.568Z" fill="white" stroke="#1B3F8A" stroke-width="1.5" stroke-miterlimit="10"/>
<path d="M141.553 254.442H119.894V287.574H141.553V254.442Z" fill="white" stroke="#1B3F8A" stroke-width="1.5" stroke-miterlimit="10"/>
<path d="M130.749 258.918H123.083V266.995H130.749V258.918Z" fill="white" stroke="#1B3F8A" stroke-width="1.5" stroke-miterlimit="10"/>
<path d="M130.749 266.995H123.083V275.072H130.749V266.995Z" fill="white" stroke="#1B3F8A" stroke-width="1.5" stroke-miterlimit="10"/>
<path d="M130.749 275.021H123.083V283.098H130.749V275.021Z" fill="white" stroke="#1B3F8A" stroke-width="1.5" stroke-miterlimit="10"/>
<path d="M138.415 258.918H130.749V266.995H138.415V258.918Z" fill="white" stroke="#1B3F8A" stroke-width="1.5" stroke-miterlimit="10"/>
<path d="M138.415 266.995H130.749V275.072H138.415V266.995Z" fill="white" stroke="#1B3F8A" stroke-width="1.5" stroke-miterlimit="10"/>
<path d="M138.415 275.021H130.749V283.098H138.415V275.021Z" fill="white" stroke="#1B3F8A" stroke-width="1.5" stroke-miterlimit="10"/>
<path d="M116.859 195.69H113.052V303.986H116.859V195.69Z" fill="white" stroke="#1B3F8A" stroke-width="1.5" stroke-miterlimit="10"/>
<path d="M148.704 195.69H144.897V303.986H148.704V195.69Z" fill="white" stroke="#1B3F8A" stroke-width="1.5" stroke-miterlimit="10"/>
<path d="M148.704 190.596H113.052V196.976H148.704V190.596Z" fill="white" stroke="#1B3F8A" stroke-width="1.5" stroke-miterlimit="10"/>
<path d="M171.649 186.789L148.704 190.596V196.976L171.649 193.117V186.789Z" fill="white" stroke="#1B3F8A" stroke-width="1.5" stroke-miterlimit="10"/>
<path d="M148.704 297.606H113.052V303.985H148.704V297.606Z" fill="white" stroke="#1B3F8A" stroke-width="1.5" stroke-miterlimit="10"/>
<path d="M171.649 293.799L148.704 297.606V303.986L171.649 300.179V293.799Z" fill="white" stroke="#1B3F8A" stroke-width="1.5" stroke-miterlimit="10"/>
<path d="M90.3118 300.178L113.051 303.986V196.976L90.3118 193.117V300.178Z" fill="white" stroke="#1B3F8A" stroke-width="1.5" stroke-miterlimit="10"/>
<path d="M90.1062 186.789L113.052 190.596V196.976L90.1062 193.117V186.789Z" fill="white" stroke="#1B3F8A" stroke-width="1.5" stroke-miterlimit="10"/>
<path d="M90.1062 293.799L113.052 297.606V303.986L90.1062 300.179V293.799Z" fill="white" stroke="#1B3F8A" stroke-width="1.5" stroke-miterlimit="10"/>
<path d="M42.9807 227.535H37.8875V281.04H42.9807V227.535Z" fill="white" stroke="#1B3F8A" stroke-width="1.5" stroke-miterlimit="10"/>
<path d="M42.9807 205.876H37.8875V227.535H42.9807V205.876Z" fill="white" stroke="#1B3F8A" stroke-width="1.5" stroke-miterlimit="10"/>
<path d="M90.1061 226.249H42.9807V281.04H90.1061V226.249Z" fill="white" stroke="#1B3F8A" stroke-width="1.5" stroke-miterlimit="10"/>
<path d="M77.759 237.928H56.0999V271.059H77.759V237.928Z" fill="white" stroke="#1B3F8A" stroke-width="1.5" stroke-miterlimit="10"/>
<path d="M66.9549 242.404H59.2893V250.481H66.9549V242.404Z" fill="white" stroke="#1B3F8A" stroke-width="1.5" stroke-miterlimit="10"/>
<path d="M66.9549 250.481H59.2893V258.558H66.9549V250.481Z" fill="white" stroke="#1B3F8A" stroke-width="1.5" stroke-miterlimit="10"/>
<path d="M66.9549 258.558H59.2893V266.635H66.9549V258.558Z" fill="white" stroke="#1B3F8A" stroke-width="1.5" stroke-miterlimit="10"/>
<path d="M74.6207 242.404H66.9551V250.481H74.6207V242.404Z" fill="white" stroke="#1B3F8A" stroke-width="1.5" stroke-miterlimit="10"/>
<path d="M74.6207 250.481H66.9551V258.558H74.6207V250.481Z" fill="white" stroke="#1B3F8A" stroke-width="1.5" stroke-miterlimit="10"/>
<path d="M74.6207 258.558H66.9551V266.635H74.6207V258.558Z" fill="white" stroke="#1B3F8A" stroke-width="1.5" stroke-miterlimit="10"/>
<path d="M56.1511 240.5H48.074V265.966H56.1511V240.5Z" fill="white" stroke="#1B3F8A" stroke-width="1.5" stroke-miterlimit="10"/>
<path d="M51.0063 245.593H57.3858" stroke="#1B3F8A" stroke-width="1.5" stroke-miterlimit="10"/>
<path d="M51.0063 262.159H57.3858" stroke="#1B3F8A" stroke-width="1.5" stroke-miterlimit="10"/>
<path d="M77.8116 265.958L86.3003 265.958L86.3003 240.491L77.8116 240.491L77.8116 265.958Z" fill="white" stroke="#1B3F8A" stroke-width="1.5" stroke-miterlimit="10"/>
<path d="M82.8521 245.593H76.5242" stroke="#1B3F8A" stroke-width="1.5" stroke-miterlimit="10"/>
<path d="M82.8521 262.159H76.5242" stroke="#1B3F8A" stroke-width="1.5" stroke-miterlimit="10"/>
<path d="M90.1061 205.876H42.9807V227.535H90.1061V205.876Z" fill="white" stroke="#1B3F8A" stroke-width="1.5" stroke-miterlimit="10"/>
<path d="M134.454 149.336H131.675V124.384H128.897V149.336H126.119C124.782 149.336 124.267 151.085 125.399 151.805L128.897 154.018V163.227H131.675V154.018L135.174 151.805C136.306 151.137 135.791 149.336 134.454 149.336Z" fill="white" stroke="#1B3F8A" stroke-width="1.5" stroke-miterlimit="10"/>
<path d="M133.99 128.14H126.582V134.622H133.99V128.14Z" fill="white" stroke="#1B3F8A" stroke-width="1.5" stroke-miterlimit="10"/>
<path d="M121.952 143.78H138.621" stroke="#1B3F8A" stroke-width="1.5" stroke-miterlimit="10"/>
<path d="M138.672 137.297H121.952V149.336H138.672V137.297Z" stroke="#1B3F8A" stroke-width="1.5" stroke-miterlimit="10"/>
<path d="M130.286 120.783L127.251 123.355C126.325 124.127 126.891 125.67 128.125 125.67H132.498C133.733 125.67 134.299 124.127 133.373 123.355L130.286 120.783Z" fill="white" stroke="#1B3F8A" stroke-width="1.5" stroke-miterlimit="10"/>
<path d="M125.81 137.246V150.056" stroke="#1B3F8A" stroke-width="1.5" stroke-miterlimit="10"/>
<path d="M134.762 137.246V150.056" stroke="#1B3F8A" stroke-width="1.5" stroke-miterlimit="10"/>
<path d="M119.534 197.953L103.945 196.153V171.715L119.534 173.568V197.953Z" fill="white" stroke="#1B3F8A" stroke-width="1.5" stroke-miterlimit="10"/>
<path d="M157.913 196.153L142.325 197.953V173.568L157.913 171.715V196.153Z" fill="white" stroke="#1B3F8A" stroke-width="1.5" stroke-miterlimit="10"/>
<path d="M142.376 173.568H119.534V197.953H142.376V173.568Z" fill="white" stroke="#1B3F8A" stroke-width="1.5" stroke-miterlimit="10"/>
<path d="M119.534 172.281L103.945 170.429V158.905L119.534 160.706V172.281Z" fill="white" stroke="#1B3F8A" stroke-width="1.5" stroke-miterlimit="10"/>
<path d="M157.913 170.429L142.325 172.281V160.706L157.913 158.905V170.429Z" fill="white" stroke="#1B3F8A" stroke-width="1.5" stroke-miterlimit="10"/>
<path d="M142.376 160.706H119.534V172.281H142.376V160.706Z" fill="white" stroke="#1B3F8A" stroke-width="1.5" stroke-miterlimit="10"/>
<path d="M119.534 176.14L103.945 174.288V170.429L119.534 172.281V176.14Z" fill="white" stroke="#1B3F8A" stroke-width="1.5" stroke-miterlimit="10"/>
<path d="M157.913 174.288L142.325 176.14V172.281L157.913 170.429V174.288Z" fill="white" stroke="#1B3F8A" stroke-width="1.5" stroke-miterlimit="10"/>
<path d="M142.376 172.281H119.534V176.14H142.376V172.281Z" fill="white" stroke="#1B3F8A" stroke-width="1.5" stroke-miterlimit="10"/>
<path d="M169.129 200.783H151.277V235.201H169.129V200.783Z" fill="white" stroke="#1B3F8A" stroke-width="1.5" stroke-miterlimit="10"/>
<path d="M160.177 205.413H153.9V213.799H160.177V205.413Z" fill="white" stroke="#1B3F8A" stroke-width="1.5" stroke-miterlimit="10"/>
<path d="M160.177 213.799H153.9V222.185H160.177V213.799Z" fill="white" stroke="#1B3F8A" stroke-width="1.5" stroke-miterlimit="10"/>
<path d="M160.177 222.185H153.9V230.571H160.177V222.185Z" fill="white" stroke="#1B3F8A" stroke-width="1.5" stroke-miterlimit="10"/>
<path d="M166.454 205.413H160.177V213.799H166.454V205.413Z" fill="white" stroke="#1B3F8A" stroke-width="1.5" stroke-miterlimit="10"/>
<path d="M166.454 213.799H160.177V222.185H166.454V213.799Z" fill="white" stroke="#1B3F8A" stroke-width="1.5" stroke-miterlimit="10"/>
<path d="M166.454 222.185H160.177V230.571H166.454V222.185Z" fill="white" stroke="#1B3F8A" stroke-width="1.5" stroke-miterlimit="10"/>
<path d="M92.627 231.085L110.479 233.915V199.497L92.627 196.873V231.085Z" fill="white" stroke="#1B3F8A" stroke-width="1.5" stroke-miterlimit="10"/>
<path d="M101.579 219.51L95.2507 218.532V226.867L101.579 227.844V219.51Z" fill="white" stroke="#1B3F8A" stroke-width="1.5" stroke-miterlimit="10"/>
<path d="M101.579 211.175L95.2507 210.198V218.532L101.579 219.51V211.175Z" fill="white" stroke="#1B3F8A" stroke-width="1.5" stroke-miterlimit="10"/>
<path d="M101.579 202.789L95.2507 201.863V210.198L101.579 211.175V202.789Z" fill="white" stroke="#1B3F8A" stroke-width="1.5" stroke-miterlimit="10"/>
<path d="M107.855 220.487L101.579 219.51V227.844L107.855 228.873V220.487Z" fill="white" stroke="#1B3F8A" stroke-width="1.5" stroke-miterlimit="10"/>
<path d="M107.855 212.101L101.579 211.175V219.51L107.855 220.487V212.101Z" fill="white" stroke="#1B3F8A" stroke-width="1.5" stroke-miterlimit="10"/>
<path d="M107.855 203.767L101.579 202.789V211.175L107.855 212.101V203.767Z" fill="white" stroke="#1B3F8A" stroke-width="1.5" stroke-miterlimit="10"/>
<path d="M169.129 253.156H151.277V287.574H169.129V253.156Z" fill="white" stroke="#1B3F8A" stroke-width="1.5" stroke-miterlimit="10"/>
<path d="M160.177 257.786H153.9V266.172H160.177V257.786Z" fill="white" stroke="#1B3F8A" stroke-width="1.5" stroke-miterlimit="10"/>
<path d="M160.177 266.172H153.9V274.558H160.177V266.172Z" fill="white" stroke="#1B3F8A" stroke-width="1.5" stroke-miterlimit="10"/>
<path d="M160.177 274.558H153.9V282.944H160.177V274.558Z" fill="white" stroke="#1B3F8A" stroke-width="1.5" stroke-miterlimit="10"/>
<path d="M166.505 257.786H160.228V266.172H166.505V257.786Z" fill="white" stroke="#1B3F8A" stroke-width="1.5" stroke-miterlimit="10"/>
<path d="M166.505 266.172H160.228V274.558H166.505V266.172Z" fill="white" stroke="#1B3F8A" stroke-width="1.5" stroke-miterlimit="10"/>
<path d="M166.505 274.558H160.228V282.944H166.505V274.558Z" fill="white" stroke="#1B3F8A" stroke-width="1.5" stroke-miterlimit="10"/>
<path d="M92.6787 284.744L110.531 287.574V253.156L92.6787 250.532V284.744Z" fill="white" stroke="#1B3F8A" stroke-width="1.5" stroke-miterlimit="10"/>
<path d="M101.579 273.169L95.3022 272.191V280.526L101.579 281.555V273.169Z" fill="white" stroke="#1B3F8A" stroke-width="1.5" stroke-miterlimit="10"/>
<path d="M101.579 264.834L95.3022 263.857V272.191L101.579 273.169V264.834Z" fill="white" stroke="#1B3F8A" stroke-width="1.5" stroke-miterlimit="10"/>
<path d="M101.579 256.449L95.3022 255.523V263.857L101.579 264.834V256.449Z" fill="white" stroke="#1B3F8A" stroke-width="1.5" stroke-miterlimit="10"/>
<path d="M107.907 274.146L101.579 273.169V281.555L107.907 282.532V274.146Z" fill="white" stroke="#1B3F8A" stroke-width="1.5" stroke-miterlimit="10"/>
<path d="M107.907 265.761L101.579 264.834V273.169L107.907 274.146V265.761Z" fill="white" stroke="#1B3F8A" stroke-width="1.5" stroke-miterlimit="10"/>
<path d="M107.907 257.426L101.579 256.448V264.834L107.907 265.76V257.426Z" fill="white" stroke="#1B3F8A" stroke-width="1.5" stroke-miterlimit="10"/>
<path d="M149.99 188.23H111.714V194.609H149.99V188.23Z" fill="white" stroke="#1B3F8A" stroke-width="1.5" stroke-miterlimit="10"/>
<path d="M174.582 184.423L149.99 188.23V194.609L174.582 190.802V184.423Z" fill="white" stroke="#1B3F8A" stroke-width="1.5" stroke-miterlimit="10"/>
<path d="M87.0708 184.423L111.714 188.23V194.609L87.0708 190.802V184.423Z" fill="white" stroke="#1B3F8A" stroke-width="1.5" stroke-miterlimit="10"/>
</svg>
