<svg xmlns="http://www.w3.org/2000/svg" xmlns:xlink="http://www.w3.org/1999/xlink" viewBox="0 0 274 387"><defs><clipPath id="clip-path"><rect x="14.15" y="127.54" width="246.26" height="244.49" style="fill:none"/></clipPath><mask id="mask" x="4.25" y="99" width="389.21" height="273.68" maskUnits="userSpaceOnUse"><g id="mask0"><rect x="18" y="99" width="239" height="270" style="fill:#fff"/></g></mask></defs><g id="Ebene_2" data-name="Ebene 2"><g id="Ebene_1-2" data-name="Ebene 1"><rect x="1.75" y="1.75" width="270.5" height="383.5" style="fill:#fff;stroke:#2f4898;stroke-width:3.5px"/><rect x="15.75" y="16.75" width="242.5" height="353.5" style="fill:none;stroke:#2f4898;stroke-width:3.5px"/><path d="M37.07,209.45c6.1,0,6.1,2.92,12.2,2.92s6.11-2.92,12.21-2.92,6.11,2.92,12.21,2.92,6.1-2.92,12.21-2.92,6.1,2.92,12.21,2.92,6.1-2.92,12.2-2.92,6.11,2.92,12.21,2.92,6.11-2.92,12.21-2.92,6.11,2.92,12.21,2.92,6.1-2.92,12.21-2.92,6.1,2.92,12.2,2.92,6.11-2.92,12.21-2.92,6.11,2.92,12.21,2.92,6.11-2.92,12.21-2.92,6.1,2.92,12.21,2.92,6.1-2.92,12.21-2.92,6.1,2.92,12.2,2.92,6.11-2.92,12.21-2.92" style="fill:none;stroke:#1c3f89;stroke-miterlimit:10;stroke-width:1.5px"/><path d="M37.07,214c6.1,0,6.1,2.92,12.2,2.92S55.38,214,61.48,214s6.11,2.92,12.21,2.92S79.79,214,85.9,214s6.1,2.92,12.21,2.92,6.1-2.92,12.2-2.92,6.11,2.92,12.21,2.92,6.11-2.92,12.21-2.92,6.11,2.92,12.21,2.92S153,214,159.15,214s6.1,2.92,12.2,2.92,6.11-2.92,12.21-2.92,6.11,2.92,12.21,2.92S201.88,214,208,214s6.1,2.92,12.21,2.92,6.1-2.92,12.21-2.92,6.1,2.92,12.2,2.92,6.11-2.92,12.21-2.92" style="fill:none;stroke:#1c3f89;stroke-miterlimit:10;stroke-width:1.5px"/><path d="M37.07,218.52c6.1,0,6.1,2.92,12.2,2.92s6.11-2.92,12.26-2.92,6.11,2.92,12.21,2.92,6.11-2.92,12.21-2.92,6.1,2.92,12.21,2.92,6.1-2.92,12.21-2.92,6.1,2.92,12.2,2.92,6.11-2.92,12.21-2.92,6.11,2.92,12.21,2.92,6.1-2.92,12.21-2.92,6.1,2.92,12.21,2.92,6.1-2.92,12.2-2.92,6.11,2.92,12.21,2.92,6.11-2.92,12.21-2.92,6.1,2.92,12.21,2.92,6.1-2.92,12.21-2.92,6.1,2.92,12.2,2.92,6.11-2.92,12.21-2.92" style="fill:none;stroke:#1c3f89;stroke-miterlimit:10;stroke-width:1.5px"/><path d="M37.07,223c6.1,0,6.1,2.92,12.2,2.92S55.38,223,61.48,223,67.59,226,73.69,226,79.79,223,85.9,223,92,226,98.11,226s6.1-2.92,12.2-2.92,6.11,2.92,12.21,2.92,6.11-2.92,12.21-2.92,6.11,2.92,12.21,2.92S153,223,159.15,223s6.1,2.92,12.2,2.92,6.11-2.92,12.21-2.92,6.11,2.92,12.21,2.92S201.88,223,208,223s6.1,2.92,12.21,2.92,6.1-2.92,12.21-2.92,6.1,2.92,12.2,2.92,6.11-2.92,12.21-2.92" style="fill:none;stroke:#1c3f89;stroke-miterlimit:10;stroke-width:1.5px"/><path d="M37.07,227.54c6.1,0,6.1,2.92,12.2,2.92s6.11-2.92,12.21-2.92,6.11,2.92,12.21,2.92,6.1-2.92,12.21-2.92,6.1,2.92,12.21,2.92,6.1-2.92,12.2-2.92,6.11,2.92,12.21,2.92,6.11-2.92,12.21-2.92,6.11,2.92,12.21,2.92,6.1-2.92,12.21-2.92,6.1,2.92,12.2,2.92,6.11-2.92,12.21-2.92,6.11,2.92,12.21,2.92,6.11-2.92,12.21-2.92,6.1,2.92,12.21,2.92,6.1-2.92,12.21-2.92,6.1,2.92,12.2,2.92,6.11-2.92,12.21-2.92" style="fill:none;stroke:#1c3f89;stroke-miterlimit:10;stroke-width:1.5px"/><path d="M37.07,232.05c6.1,0,6.1,2.92,12.2,2.92s6.11-2.92,12.21-2.92S67.59,235,73.69,235s6.1-2.92,12.21-2.92S92,235,98.11,235s6.1-2.92,12.2-2.92,6.11,2.92,12.21,2.92,6.11-2.92,12.21-2.92,6.11,2.92,12.21,2.92,6.1-2.92,12.21-2.92,6.1,2.92,12.2,2.92,6.11-2.92,12.21-2.92,6.11,2.92,12.21,2.92,6.11-2.92,12.21-2.92,6.1,2.92,12.21,2.92,6.1-2.92,12.21-2.92,6.1,2.92,12.2,2.92,6.11-2.92,12.21-2.92" style="fill:none;stroke:#1c3f89;stroke-miterlimit:10;stroke-width:1.5px"/><path d="M37.07,236.61c6.1,0,6.1,2.93,12.2,2.93s6.11-2.93,12.21-2.93,6.11,2.93,12.21,2.93,6.1-2.93,12.21-2.93,6.1,2.93,12.21,2.93,6.1-2.93,12.2-2.93,6.11,2.93,12.21,2.93,6.11-2.93,12.21-2.93,6.11,2.93,12.21,2.93,6.1-2.93,12.21-2.93,6.1,2.93,12.2,2.93,6.11-2.93,12.21-2.93,6.11,2.93,12.21,2.93,6.11-2.93,12.21-2.93,6.1,2.93,12.21,2.93,6.1-2.93,12.21-2.93,6.1,2.93,12.2,2.93,6.11-2.93,12.21-2.93" style="fill:none;stroke:#1c3f89;stroke-miterlimit:10;stroke-width:1.5px"/><path d="M37.07,241.12c6.1,0,6.1,2.92,12.2,2.92s6.11-2.92,12.21-2.92S67.59,244,73.69,244s6.1-2.92,12.21-2.92S92,244,98.11,244s6.1-2.92,12.2-2.92,6.11,2.92,12.21,2.92,6.11-2.92,12.21-2.92,6.11,2.92,12.21,2.92,6.1-2.92,12.21-2.92,6.1,2.92,12.2,2.92,6.11-2.92,12.21-2.92,6.11,2.92,12.21,2.92,6.11-2.92,12.21-2.92,6.1,2.92,12.21,2.92,6.1-2.92,12.21-2.92,6.1,2.92,12.2,2.92,6.11-2.92,12.21-2.92" style="fill:none;stroke:#1c3f89;stroke-miterlimit:10;stroke-width:1.5px"/><path d="M37.07,245.63c6.1,0,6.1,2.92,12.2,2.92s6.11-2.92,12.21-2.92,6.11,2.92,12.21,2.92,6.1-2.92,12.21-2.92,6.1,2.92,12.21,2.92,6.1-2.92,12.2-2.92,6.11,2.92,12.21,2.92,6.11-2.92,12.21-2.92,6.11,2.92,12.21,2.92,6.1-2.92,12.21-2.92,6.1,2.92,12.2,2.92,6.11-2.92,12.21-2.92,6.11,2.92,12.21,2.92,6.11-2.92,12.21-2.92,6.1,2.92,12.21,2.92,6.1-2.92,12.21-2.92,6.1,2.92,12.2,2.92,6.11-2.92,12.21-2.92" style="fill:none;stroke:#1c3f89;stroke-miterlimit:10;stroke-width:1.5px"/><path d="M37.07,250.14c6.1,0,6.1,2.93,12.2,2.93s6.11-2.93,12.21-2.93,6.11,2.93,12.21,2.93,6.1-2.93,12.21-2.93,6.1,2.93,12.21,2.93,6.1-2.93,12.2-2.93,6.11,2.93,12.21,2.93,6.11-2.93,12.21-2.93,6.11,2.93,12.21,2.93,6.1-2.93,12.21-2.93,6.1,2.93,12.2,2.93,6.11-2.93,12.21-2.93,6.11,2.93,12.21,2.93,6.11-2.93,12.21-2.93,6.1,2.93,12.21,2.93,6.1-2.93,12.21-2.93,6.1,2.93,12.2,2.93,6.11-2.93,12.21-2.93" style="fill:none;stroke:#1c3f89;stroke-miterlimit:10;stroke-width:1.5px"/><path d="M37.07,254.71c6.1,0,6.1,2.92,12.2,2.92s6.11-2.92,12.21-2.92,6.11,2.92,12.21,2.92,6.1-2.92,12.21-2.92,6.1,2.92,12.21,2.92,6.1-2.92,12.2-2.92,6.11,2.92,12.21,2.92,6.11-2.92,12.21-2.92,6.11,2.92,12.21,2.92,6.1-2.92,12.21-2.92,6.1,2.92,12.2,2.92,6.11-2.92,12.21-2.92,6.11,2.92,12.21,2.92,6.11-2.92,12.21-2.92,6.1,2.92,12.21,2.92,6.1-2.92,12.21-2.92,6.1,2.92,12.2,2.92,6.11-2.92,12.21-2.92" style="fill:none;stroke:#1c3f89;stroke-miterlimit:10;stroke-width:1.5px"/><path d="M37.07,259.21c6.1,0,6.1,2.93,12.2,2.93s6.11-2.93,12.21-2.93,6.11,2.93,12.21,2.93,6.1-2.93,12.21-2.93,6.1,2.93,12.21,2.93,6.1-2.93,12.2-2.93,6.11,2.93,12.21,2.93,6.11-2.93,12.21-2.93,6.11,2.93,12.21,2.93,6.1-2.93,12.21-2.93,6.1,2.93,12.2,2.93,6.11-2.93,12.21-2.93,6.11,2.93,12.21,2.93,6.11-2.93,12.21-2.93,6.1,2.93,12.21,2.93,6.1-2.93,12.21-2.93,6.1,2.93,12.2,2.93,6.11-2.93,12.21-2.93" style="fill:none;stroke:#1c3f89;stroke-miterlimit:10;stroke-width:1.5px"/><path d="M37.07,263.73c6.1,0,6.1,2.92,12.2,2.92s6.11-2.92,12.21-2.92,6.11,2.92,12.21,2.92,6.1-2.92,12.21-2.92,6.1,2.92,12.21,2.92,6.1-2.92,12.2-2.92,6.11,2.92,12.21,2.92,6.11-2.92,12.21-2.92,6.11,2.92,12.21,2.92,6.1-2.92,12.21-2.92,6.1,2.92,12.2,2.92,6.11-2.92,12.21-2.92,6.11,2.92,12.21,2.92,6.11-2.92,12.21-2.92,6.1,2.92,12.21,2.92,6.1-2.92,12.21-2.92,6.1,2.92,12.2,2.92,6.11-2.92,12.21-2.92" style="fill:none;stroke:#1c3f89;stroke-miterlimit:10;stroke-width:1.5px"/><path d="M37.07,268.23c6.1,0,6.1,2.93,12.2,2.93s6.11-2.93,12.26-2.93,6.11,2.93,12.21,2.93,6.11-2.93,12.21-2.93,6.1,2.93,12.21,2.93,6.1-2.93,12.21-2.93,6.1,2.93,12.2,2.93,6.11-2.93,12.21-2.93,6.11,2.93,12.21,2.93,6.1-2.93,12.21-2.93,6.1,2.93,12.21,2.93,6.1-2.93,12.2-2.93,6.11,2.93,12.21,2.93,6.11-2.93,12.21-2.93,6.1,2.93,12.21,2.93,6.1-2.93,12.21-2.93,6.1,2.93,12.2,2.93,6.11-2.93,12.21-2.93" style="fill:none;stroke:#1c3f89;stroke-miterlimit:10;stroke-width:1.5px"/><path d="M37.07,272.8c6.1,0,6.1,2.92,12.2,2.92s6.11-2.92,12.21-2.92,6.11,2.92,12.21,2.92,6.1-2.92,12.21-2.92,6.1,2.92,12.21,2.92,6.1-2.92,12.2-2.92,6.11,2.92,12.21,2.92,6.11-2.92,12.21-2.92,6.11,2.92,12.21,2.92,6.1-2.92,12.21-2.92,6.1,2.92,12.2,2.92,6.11-2.92,12.21-2.92,6.11,2.92,12.21,2.92,6.11-2.92,12.21-2.92,6.1,2.92,12.21,2.92,6.1-2.92,12.21-2.92,6.1,2.92,12.2,2.92,6.11-2.92,12.21-2.92" style="fill:none;stroke:#1c3f89;stroke-miterlimit:10;stroke-width:1.5px"/><path d="M37.07,277.31c6.1,0,6.1,2.92,12.2,2.92s6.11-2.92,12.21-2.92,6.11,2.92,12.21,2.92,6.1-2.92,12.21-2.92,6.1,2.92,12.21,2.92,6.1-2.92,12.2-2.92,6.11,2.92,12.21,2.92,6.11-2.92,12.21-2.92,6.11,2.92,12.21,2.92,6.1-2.92,12.21-2.92,6.1,2.92,12.2,2.92,6.11-2.92,12.21-2.92,6.11,2.92,12.21,2.92,6.11-2.92,12.21-2.92,6.1,2.92,12.21,2.92,6.1-2.92,12.21-2.92,6.1,2.92,12.2,2.92,6.11-2.92,12.21-2.92" style="fill:none;stroke:#1c3f89;stroke-miterlimit:10;stroke-width:1.5px"/><path d="M37.07,281.82c6.1,0,6.1,2.92,12.2,2.92s6.11-2.92,12.21-2.92,6.11,2.92,12.21,2.92,6.1-2.92,12.21-2.92,6.1,2.92,12.21,2.92,6.1-2.92,12.2-2.92,6.11,2.92,12.21,2.92,6.11-2.92,12.21-2.92,6.11,2.92,12.21,2.92,6.1-2.92,12.21-2.92,6.1,2.92,12.2,2.92,6.11-2.92,12.21-2.92,6.11,2.92,12.21,2.92,6.11-2.92,12.21-2.92,6.1,2.92,12.21,2.92,6.1-2.92,12.21-2.92,6.1,2.92,12.2,2.92,6.11-2.92,12.21-2.92" style="fill:none;stroke:#1c3f89;stroke-miterlimit:10;stroke-width:1.5px"/><path d="M37.07,286.33c6.1,0,6.1,2.92,12.2,2.92s6.11-2.92,12.21-2.92,6.11,2.92,12.21,2.92,6.1-2.92,12.21-2.92,6.1,2.92,12.21,2.92,6.1-2.92,12.2-2.92,6.11,2.92,12.21,2.92,6.11-2.92,12.21-2.92,6.11,2.92,12.21,2.92,6.1-2.92,12.21-2.92,6.1,2.92,12.2,2.92,6.11-2.92,12.21-2.92,6.11,2.92,12.21,2.92,6.11-2.92,12.21-2.92,6.1,2.92,12.21,2.92,6.1-2.92,12.21-2.92,6.1,2.92,12.2,2.92,6.11-2.92,12.21-2.92" style="fill:none;stroke:#1c3f89;stroke-miterlimit:10;stroke-width:1.5px"/><path d="M37.07,290.89c6.1,0,6.1,2.92,12.2,2.92s6.11-2.92,12.21-2.92,6.11,2.92,12.21,2.92,6.1-2.92,12.21-2.92,6.1,2.92,12.21,2.92,6.1-2.92,12.2-2.92,6.11,2.92,12.21,2.92,6.11-2.92,12.21-2.92,6.11,2.92,12.21,2.92,6.1-2.92,12.21-2.92,6.1,2.92,12.2,2.92,6.11-2.92,12.21-2.92,6.11,2.92,12.21,2.92,6.11-2.92,12.21-2.92,6.1,2.92,12.21,2.92,6.1-2.92,12.21-2.92,6.1,2.92,12.2,2.92,6.11-2.92,12.21-2.92" style="fill:none;stroke:#1c3f89;stroke-miterlimit:10;stroke-width:1.5px"/><path d="M37.07,295.4c6.1,0,6.1,2.92,12.2,2.92s6.11-2.92,12.26-2.92,6.11,2.92,12.21,2.92S79.85,295.4,86,295.4s6.1,2.92,12.21,2.92,6.1-2.92,12.21-2.92,6.1,2.92,12.2,2.92,6.11-2.92,12.21-2.92,6.11,2.92,12.21,2.92,6.1-2.92,12.21-2.92,6.1,2.92,12.21,2.92,6.1-2.92,12.2-2.92,6.11,2.92,12.21,2.92,6.11-2.92,12.21-2.92,6.1,2.92,12.21,2.92,6.1-2.92,12.21-2.92,6.1,2.92,12.2,2.92,6.11-2.92,12.21-2.92" style="fill:none;stroke:#1c3f89;stroke-miterlimit:10;stroke-width:1.5px"/><path d="M37.07,299.91c6.1,0,6.1,2.92,12.2,2.92s6.11-2.92,12.21-2.92,6.11,2.92,12.21,2.92,6.1-2.92,12.21-2.92,6.1,2.92,12.21,2.92,6.1-2.92,12.2-2.92,6.11,2.92,12.21,2.92,6.11-2.92,12.21-2.92,6.11,2.92,12.21,2.92,6.1-2.92,12.21-2.92,6.1,2.92,12.2,2.92,6.11-2.92,12.21-2.92,6.11,2.92,12.21,2.92,6.11-2.92,12.21-2.92,6.1,2.92,12.21,2.92,6.1-2.92,12.21-2.92,6.1,2.92,12.2,2.92,6.11-2.92,12.21-2.92" style="fill:none;stroke:#1c3f89;stroke-miterlimit:10;stroke-width:1.5px"/><path d="M37.07,304.42c6.1,0,6.1,2.92,12.2,2.92s6.11-2.92,12.21-2.92,6.11,2.92,12.21,2.92,6.1-2.92,12.21-2.92,6.1,2.92,12.21,2.92,6.1-2.92,12.2-2.92,6.11,2.92,12.21,2.92,6.11-2.92,12.21-2.92,6.11,2.92,12.21,2.92,6.1-2.92,12.21-2.92,6.1,2.92,12.2,2.92,6.11-2.92,12.21-2.92,6.11,2.92,12.21,2.92,6.11-2.92,12.21-2.92,6.1,2.92,12.21,2.92,6.1-2.92,12.21-2.92,6.1,2.92,12.2,2.92,6.11-2.92,12.21-2.92" style="fill:none;stroke:#1c3f89;stroke-miterlimit:10;stroke-width:1.5px"/><path d="M37.07,309c6.1,0,6.1,2.92,12.2,2.92S55.38,309,61.48,309s6.11,2.92,12.21,2.92S79.79,309,85.9,309s6.1,2.92,12.21,2.92,6.1-2.92,12.2-2.92,6.11,2.92,12.21,2.92,6.11-2.92,12.21-2.92,6.11,2.92,12.21,2.92S153,309,159.15,309s6.1,2.92,12.2,2.92,6.11-2.92,12.21-2.92,6.11,2.92,12.21,2.92S201.88,309,208,309s6.1,2.92,12.21,2.92,6.1-2.92,12.21-2.92,6.1,2.92,12.2,2.92,6.11-2.92,12.21-2.92" style="fill:none;stroke:#1c3f89;stroke-miterlimit:10;stroke-width:1.5px"/><path d="M37.07,313.49c6.1,0,6.1,2.92,12.2,2.92s6.11-2.92,12.21-2.92,6.11,2.92,12.21,2.92,6.1-2.92,12.21-2.92,6.1,2.92,12.21,2.92,6.1-2.92,12.2-2.92,6.11,2.92,12.21,2.92,6.11-2.92,12.21-2.92,6.11,2.92,12.21,2.92,6.1-2.92,12.21-2.92,6.1,2.92,12.2,2.92,6.11-2.92,12.21-2.92,6.11,2.92,12.21,2.92,6.11-2.92,12.21-2.92,6.1,2.92,12.21,2.92,6.1-2.92,12.21-2.92,6.1,2.92,12.2,2.92,6.11-2.92,12.21-2.92" style="fill:none;stroke:#1c3f89;stroke-miterlimit:10;stroke-width:1.5px"/><path d="M37.07,318c6.1,0,6.1,2.92,12.2,2.92S55.38,318,61.48,318s6.11,2.92,12.21,2.92S79.79,318,85.9,318s6.1,2.92,12.21,2.92,6.1-2.92,12.2-2.92,6.11,2.92,12.21,2.92,6.11-2.92,12.21-2.92,6.11,2.92,12.21,2.92S153,318,159.15,318s6.1,2.92,12.2,2.92,6.11-2.92,12.21-2.92,6.11,2.92,12.21,2.92S201.88,318,208,318s6.1,2.92,12.21,2.92,6.1-2.92,12.21-2.92,6.1,2.92,12.2,2.92,6.11-2.92,12.21-2.92" style="fill:none;stroke:#1c3f89;stroke-miterlimit:10;stroke-width:1.5px"/><path d="M37.07,322.51c6.1,0,6.1,2.92,12.2,2.92s6.11-2.92,12.21-2.92,6.11,2.92,12.21,2.92,6.1-2.92,12.21-2.92,6.1,2.92,12.21,2.92,6.1-2.92,12.2-2.92,6.11,2.92,12.21,2.92,6.11-2.92,12.21-2.92,6.11,2.92,12.21,2.92,6.1-2.92,12.21-2.92,6.1,2.92,12.2,2.92,6.11-2.92,12.21-2.92,6.11,2.92,12.21,2.92,6.11-2.92,12.21-2.92,6.1,2.92,12.21,2.92,6.1-2.92,12.21-2.92,6.1,2.92,12.2,2.92,6.11-2.92,12.21-2.92" style="fill:none;stroke:#1c3f89;stroke-miterlimit:10;stroke-width:1.5px"/><path d="M37.07,327.07c6.1,0,6.1,2.92,12.2,2.92s6.11-2.92,12.21-2.92S67.59,330,73.69,330s6.1-2.92,12.21-2.92S92,330,98.11,330s6.1-2.92,12.2-2.92,6.11,2.92,12.21,2.92,6.11-2.92,12.21-2.92,6.11,2.92,12.21,2.92,6.1-2.92,12.21-2.92,6.1,2.92,12.2,2.92,6.11-2.92,12.21-2.92,6.11,2.92,12.21,2.92,6.11-2.92,12.21-2.92,6.1,2.92,12.21,2.92,6.1-2.92,12.21-2.92,6.1,2.92,12.2,2.92,6.11-2.92,12.21-2.92" style="fill:none;stroke:#1c3f89;stroke-miterlimit:10;stroke-width:1.5px"/><path d="M37.07,331.58c6.1,0,6.1,2.92,12.2,2.92s6.11-2.92,12.21-2.92,6.11,2.92,12.21,2.92,6.1-2.92,12.21-2.92,6.1,2.92,12.21,2.92,6.1-2.92,12.2-2.92,6.11,2.92,12.21,2.92,6.11-2.92,12.21-2.92,6.11,2.92,12.21,2.92,6.1-2.92,12.21-2.92,6.1,2.92,12.2,2.92,6.11-2.92,12.21-2.92,6.11,2.92,12.21,2.92,6.11-2.92,12.21-2.92,6.1,2.92,12.21,2.92,6.1-2.92,12.21-2.92,6.1,2.92,12.2,2.92,6.11-2.92,12.21-2.92" style="fill:none;stroke:#1c3f89;stroke-miterlimit:10;stroke-width:1.5px"/><path d="M37.07,336.09c6.1,0,6.1,2.92,12.2,2.92s6.11-2.92,12.21-2.92S67.59,339,73.69,339s6.1-2.92,12.21-2.92S92,339,98.11,339s6.1-2.92,12.2-2.92,6.11,2.92,12.21,2.92,6.11-2.92,12.21-2.92,6.11,2.92,12.21,2.92,6.1-2.92,12.21-2.92,6.1,2.92,12.2,2.92,6.11-2.92,12.21-2.92,6.11,2.92,12.21,2.92,6.11-2.92,12.21-2.92,6.1,2.92,12.21,2.92,6.1-2.92,12.21-2.92,6.1,2.92,12.2,2.92,6.11-2.92,12.21-2.92" style="fill:none;stroke:#1c3f89;stroke-miterlimit:10;stroke-width:1.5px"/><path d="M37.07,340.6c6.1,0,6.1,2.92,12.2,2.92s6.11-2.92,12.21-2.92,6.11,2.92,12.21,2.92,6.1-2.92,12.21-2.92,6.1,2.92,12.21,2.92,6.1-2.92,12.2-2.92,6.11,2.92,12.21,2.92,6.11-2.92,12.21-2.92,6.11,2.92,12.21,2.92,6.1-2.92,12.21-2.92,6.1,2.92,12.2,2.92,6.11-2.92,12.21-2.92,6.11,2.92,12.21,2.92,6.11-2.92,12.21-2.92,6.1,2.92,12.21,2.92,6.1-2.92,12.21-2.92,6.1,2.92,12.2,2.92,6.11-2.92,12.21-2.92" style="fill:none;stroke:#1c3f89;stroke-miterlimit:10;stroke-width:1.5px"/><g style="clip-path:url(#clip-path)"><g style="mask:url(#mask)"><path d="M185.32,218.33a26.06,26.06,0,1,0-25.56-26.06A25.82,25.82,0,0,0,185.32,218.33Z" style="fill:#fff;stroke:#1c3f89;stroke-miterlimit:10;stroke-width:1.5px"/><path d="M169.24,165.93h-3.77v10.7h3.77Z" style="fill:#fff;stroke:#1c3f89;stroke-miterlimit:10;stroke-width:1.5px"/><path d="M114.35,228.75l-4.71,7.54V260h44.47V228.75Z" style="fill:#fff;stroke:#1c3f89;stroke-miterlimit:10;stroke-width:1.5px"/><path d="M241.83,238.46a4.38,4.38,0,1,0-4.38-4.38A4.38,4.38,0,0,0,241.83,238.46Z" style="fill:#fff;stroke:#1c3f89;stroke-miterlimit:10;stroke-width:1.5px"/><path d="M246.21,233.58h-8.82v27.34h8.82Z" style="fill:#fff;stroke:#1c3f89;stroke-miterlimit:10;stroke-width:1.5px"/><path d="M107.75,260H60.4v20.85h47.35Z" style="fill:#fff;stroke:#1c3f89;stroke-miterlimit:10;stroke-width:1.5px"/><path d="M154.11,297.85H132.92v30.27h21.19Z" style="fill:#fff;stroke:#1c3f89;stroke-miterlimit:10;stroke-width:1.5px"/><path d="M217.54,238.18l117.39,11.37v22.73L228,270.4Z" style="fill:#fff;stroke:#1c3f89;stroke-miterlimit:10;stroke-width:1.5px"/><path d="M216.6,192.66H154.11v44.63H216.6Z" style="fill:#fff;stroke:#1c3f89;stroke-miterlimit:10;stroke-width:1.5px"/><path d="M216.38,194.6H154.55l-3-3.94h67.81Z" style="fill:#fff;stroke:#1c3f89;stroke-miterlimit:10;stroke-width:1.5px"/><path d="M153.5,190.88h-1.94v-5.71h67.81v5.71Z" style="fill:#fff;stroke:#1c3f89;stroke-miterlimit:10;stroke-width:1.5px"/><path d="M208.06,197.48h-2.83v11.37h2.83Z" style="fill:none;stroke:#1c3f89;stroke-miterlimit:10;stroke-width:1.5px"/><path d="M183,202.25h-3.33v9.48H183Z" style="fill:none;stroke:#1c3f89;stroke-miterlimit:10;stroke-width:1.5px"/><path d="M193.86,161.49H177.12V170h16.74v-8.54Z" style="fill:#fff;stroke:#1c3f89;stroke-miterlimit:10;stroke-width:1.5px"/><path d="M203.62,165.32h-5.87V181.4h5.87Z" style="fill:#fff;stroke:#1c3f89;stroke-miterlimit:10;stroke-width:1.5px"/><path d="M203.62,165.32h-5.87v2.77h5.87Z" style="fill:#fff;stroke:#1c3f89;stroke-miterlimit:10;stroke-width:1.5px"/><path d="M182.05,140.7v18.91" style="fill:none;stroke:#1c3f89;stroke-miterlimit:10;stroke-width:1.5px"/><path d="M185.1,151.18a5.56,5.56,0,0,1-3-.83l-.11-.06v-10l.39.22c2.1,1.28,4.21.61,6.43-.05s4.55-1.39,6.82,0l.11.05v10.21l-.39-.23c-2.11-1.27-4.21-.66-6.43,0A17.15,17.15,0,0,1,185.1,151.18Z" style="fill:#fff;stroke:#1c3f89;stroke-miterlimit:10;stroke-width:1.5px"/><path d="M176.84,163.43h17" style="fill:none;stroke:#1c3f89;stroke-miterlimit:10;stroke-width:1.5px"/><path d="M178.73,241.67a16.71,16.71,0,0,0,6.65-3.38c2.88-2.55,0-5.88,6.65-5.88s2.83-1.66,11.37-.83,9.48-4.21,15.14-2.49,8.54,9.26,12.31,9.26,10.42,7.54,15.14,7.54.94,2.49,5.65,5,4.72,3.39,10.43,4.22,14.19,2.49,15.14,5,4.71,6.71,11.36,5.88,13.26-1.66,18.91,0,21.79,15.14,21.79,15.14l-115.5,15.14L192,247.61Z" style="fill:#dce6f4;stroke:#1c3f89;stroke-miterlimit:10;stroke-width:1.5px"/><path d="M187.27,237.24H125.72v17h61.55Z" style="fill:#fff;stroke:#1c3f89;stroke-miterlimit:10;stroke-width:1.5px"/><path d="M196.69,247.66h-1.88v3.77h1.88Z" style="fill:#fff;stroke:#1c3f89;stroke-miterlimit:10;stroke-width:1.5px"/><path d="M211.83,248.6H185.32V312h26.51Z" style="fill:#fff;stroke:#1c3f89;stroke-miterlimit:10;stroke-width:1.5px"/><path d="M190.87,257.14h-2.66v5.66h2.66Z" style="fill:#fff;stroke:#1c3f89;stroke-miterlimit:10;stroke-width:1.5px"/><path d="M204.62,280.82H202.4v5.66h2.22Z" style="fill:#fff;stroke:#1c3f89;stroke-miterlimit:10;stroke-width:1.5px"/><path d="M201.41,259h-2.83v5.66h2.83Z" style="fill:#fff;stroke:#1c3f89;stroke-miterlimit:10;stroke-width:1.5px"/><path d="M334.93,320.58,211.83,329V270.29l123.1-8.43Z" style="fill:#fff;stroke:#1c3f89;stroke-miterlimit:10;stroke-width:1.5px"/><path d="M185.38,254.32H125.72v26.5h59.66Z" style="fill:#fff;stroke:#1c3f89;stroke-miterlimit:10;stroke-width:1.5px"/><path d="M144,247.77l-2.44-3.71-2.44,3.71-2.5,3.66v10.43h9.82V251.43Z" style="fill:#fff;stroke:#1c3f89;stroke-miterlimit:10;stroke-width:1.5px"/><path d="M129,237.24h-3.27V281H129Z" style="fill:#fff;stroke:#1c3f89;stroke-miterlimit:10;stroke-width:1.5px"/><path d="M187.21,237.24H184v2.55h3.22Z" style="fill:#fff;stroke:#1c3f89;stroke-miterlimit:10;stroke-width:1.5px"/><path d="M154.55,242.73h-6.1v11.59h6.1Z" style="fill:none;stroke:#1c3f89;stroke-miterlimit:10;stroke-width:1.5px"/><path d="M131.37,225.87h-5.65v11.37h5.65Z" style="fill:#fff;stroke:#1c3f89;stroke-miterlimit:10;stroke-width:1.5px"/><path d="M187.21,225.87h-5.66v11.37h5.66Z" style="fill:#fff;stroke:#1c3f89;stroke-miterlimit:10;stroke-width:1.5px"/><path d="M132.92,280.82H60.4v40.7h72.52Z" style="fill:#fff;stroke:#1c3f89;stroke-miterlimit:10;stroke-width:1.5px"/><path d="M143.46,301.67a7.61,7.61,0,0,0-7.6,7.6v18.91H151V309.27A7.56,7.56,0,0,0,143.46,301.67Z" style="fill:none;stroke:#1c3f89;stroke-miterlimit:10;stroke-width:1.5px"/><path d="M154.11,280.82H132.92v17h21.19Z" style="fill:#fff;stroke:#1c3f89;stroke-miterlimit:10;stroke-width:1.5px"/><path d="M143.46,301.67v26.51" style="fill:none;stroke:#1c3f89;stroke-miterlimit:10;stroke-width:1.5px"/><path d="M68.93,256.2H44.31v52.07H68.93Z" style="fill:#fff;stroke:#1c3f89;stroke-miterlimit:10;stroke-width:1.5px"/><path d="M214.66,240.07H182.5v6.65h32.16Z" style="fill:#fff;stroke:#1c3f89;stroke-miterlimit:10;stroke-width:1.5px"/><path d="M212.83,249.82H184.38l-1.88-3.1h32.21Z" style="fill:#fff;stroke:#1c3f89;stroke-miterlimit:10;stroke-width:1.5px"/><path d="M233.62,315.92s7.6-10.42,14.2-10.42,10.42-4.72,18.91-2.83,13.25,3.77,19.9,3.77,17-3.77,23.68,0,14.2,11.37,21.79,10.42,24.62,0,27.45,4.72,13.25,3.77,16.08,11.37,17.08,10.53,17.08,16.35v22.46H266.78l-29.33-27.45Z" style="fill:#dce6f4;stroke:#1c3f89;stroke-miterlimit:10;stroke-width:1.5px"/><path d="M192,275.11v5.71h-4.71v-5.71H182.5v5.71h-4.72v-5.71H173v5.71H168.3v-5.71h-4.71v5.71h-4.77v-5.71h-4.71v66.26h42.58V275.11Z" style="fill:#fff;stroke:#1c3f89;stroke-miterlimit:10;stroke-width:1.5px"/><path d="M265.78,312H196.69v54.9h69.09Z" style="fill:#fff;stroke:#1c3f89;stroke-miterlimit:10;stroke-width:1.5px"/><path d="M155.05,327.73s15.14,2.22,26.5,6.66,14.2,7.76,23.68,7.76,12.31,8.82,25.56,11,22.74,4.44,28.39,8.82,21.74,5.05,21.8,9.93H223.59L146.51,352Z" style="fill:#dce6f4;stroke:#1c3f89;stroke-miterlimit:10;stroke-width:1.5px"/><path d="M137.3,296a1.44,1.44,0,1,0-1.44-1.44A1.44,1.44,0,0,0,137.3,296Z" style="fill:none;stroke:#1c3f89;stroke-miterlimit:10;stroke-width:1.5px"/><path d="M150.17,296a1.44,1.44,0,1,0-1.44-1.44A1.44,1.44,0,0,0,150.17,296Z" style="fill:none;stroke:#1c3f89;stroke-miterlimit:10;stroke-width:1.5px"/><path d="M211.83,312h54l-54-5.65Z" style="fill:#fff;stroke:#1c3f89;stroke-miterlimit:10;stroke-width:1.5px"/><path d="M5,302.06s6.54-2.66,26.34-3.55,21,6,35.6,5.32,9.7,4.55,27.78,3.72,28.61,3.66,36.65,9.26,8.54-1.39,25.34,7.76,20.58,16.91,34.49,19.3,20.35,12,27.34,13.64,10,14.42,10,14.42l-223-1.45Z" style="fill:#dce6f4;stroke:#1c3f89;stroke-miterlimit:10;stroke-width:1.5px"/><path d="M78.36,265.63H75.53v15.14h2.83Z" style="fill:#fff;stroke:#1c3f89;stroke-miterlimit:10;stroke-width:1.5px"/><path d="M92.56,265.63H89.73v15.14h2.83Z" style="fill:#fff;stroke:#1c3f89;stroke-miterlimit:10;stroke-width:1.5px"/><path d="M95.38,260H72.65v9.48h2.83V268a1.44,1.44,0,0,1,2.88,0v1.44h1.89V268a1.44,1.44,0,1,1,2.88,0v1.44H85V268a1.44,1.44,0,0,1,2.88,0v1.44h1.88V268a1.45,1.45,0,0,1,2.89,0v1.44H95.5V260Z" style="fill:#fff;stroke:#1c3f89;stroke-miterlimit:10;stroke-width:1.5px"/><path d="M99.65,241.06l-2.33-2.88-2.38,2.88-2.38,2.83v11.37H102V243.89Z" style="fill:#fff;stroke:#1c3f89;stroke-miterlimit:10;stroke-width:1.5px"/><path d="M97.38,260H87l5.16-6.6,5.21-6.65,5.16,6.65,5.15,6.6Z" style="fill:#fff;stroke:#1c3f89;stroke-miterlimit:10;stroke-width:1.5px"/><path d="M129,256.2h-21.3v24.62H129Z" style="fill:#fff;stroke:#1c3f89;stroke-miterlimit:10;stroke-width:1.5px"/><path d="M107.69,256.2l18-10.42V256.2Z" style="fill:#fff;stroke:#1c3f89;stroke-miterlimit:10;stroke-width:1.5px"/><path d="M103.48,276.89a6.16,6.16,0,1,0-6.16-6.16A6.16,6.16,0,0,0,103.48,276.89Z" style="fill:#fff;stroke:#1c3f89;stroke-miterlimit:10;stroke-width:1.5px"/><path d="M109.64,270H97.32v10.76h12.32Z" style="fill:#fff;stroke:#1c3f89;stroke-miterlimit:10;stroke-width:1.5px"/><path d="M144,252.54h-2.44v4.94H144Z" style="fill:#fff;stroke:#1c3f89;stroke-miterlimit:10;stroke-width:1.5px"/><path d="M141.52,252.54h-2.44v4.94h2.44Z" style="fill:#fff;stroke:#1c3f89;stroke-miterlimit:10;stroke-width:1.5px"/><path d="M193.81,161.21v-1.6h-2.39v1.6H189v-1.6h-2.38v1.6h-2.39v-1.6h-2.38v1.6H179.5v-1.6h-2.38v3.55h16.69Z" style="fill:#fff;stroke:#1c3f89;stroke-miterlimit:10;stroke-width:1.5px"/><path d="M183.44,177.63h-4.71v4.71h4.71Z" style="fill:none;stroke:#1c3f89;stroke-miterlimit:10;stroke-width:1.5px"/><path d="M185.38,175.91h-8.54v6.43h8.54Z" style="fill:none;stroke:#1c3f89;stroke-miterlimit:10;stroke-width:1.5px"/><path d="M176.84,175.74l1.89-1.94h4.71l1.88,1.94Z" style="fill:none;stroke:#1c3f89;stroke-miterlimit:10;stroke-width:1.5px"/><path d="M175.68,247.77l-2.5-3.71-2.44,3.71-2.44,3.66v10.43h9.82V251.43Z" style="fill:#fff;stroke:#1c3f89;stroke-miterlimit:10;stroke-width:1.5px"/><path d="M175.62,252.54h-2.44v4.94h2.44Z" style="fill:#fff;stroke:#1c3f89;stroke-miterlimit:10;stroke-width:1.5px"/><path d="M173.18,252.54h-2.44v4.94h2.44Z" style="fill:#fff;stroke:#1c3f89;stroke-miterlimit:10;stroke-width:1.5px"/></g></g></g></g></svg>