<svg width="790" height="508" viewBox="0 0 790 508" fill="none" xmlns="http://www.w3.org/2000/svg">
<g clip-path="url(#clip0)">
<path d="M788.9 0V506.4H0.799988V0" fill="white"/>
<path d="M788.9 0V506.4H0.799988V0" stroke="#1921E0" stroke-width="1.5" stroke-miterlimit="10"/>
<path d="M15.7285 18.7422L15.7285 486.442L768.729 486.442V18.7422L15.7285 18.7422Z" stroke="#1921E0" stroke-width="2" stroke-miterlimit="10"/>
<path d="M338.6 190.8C350.5 190.8 350.5 196.5 362.4 196.5C374.3 196.5 374.3 190.8 386.2 190.8C398.1 190.8 398.1 196.5 410 196.5C421.9 196.5 421.9 190.8 433.8 190.8C445.7 190.8 445.7 196.5 457.6 196.5C469.5 196.5 469.5 190.8 481.4 190.8C493.3 190.8 493.3 196.5 505.2 196.5C517.1 196.5 517.1 190.8 529 190.8C540.9 190.8 540.9 196.5 552.8 196.5C564.7 196.5 564.7 190.8 576.6 190.8C588.5 190.8 588.5 196.5 600.4 196.5C612.3 196.5 612.3 190.8 624.2 190.8C636.1 190.8 636.1 196.5 648 196.5C659.9 196.5 659.9 190.8 671.8 190.8C683.7 190.8 683.7 196.5 695.6 196.5C707.5 196.5 707.5 190.8 719.4 190.8C731.3 190.8 731.3 196.5 743.2 196.5C755.1 196.5 755.1 190.8 767 190.8" stroke="#1921E0" stroke-width="2" stroke-miterlimit="10"/>
<path d="M338.6 199.6C350.5 199.6 350.5 205.3 362.4 205.3C374.3 205.3 374.3 199.6 386.2 199.6C398.1 199.6 398.1 205.3 410 205.3C421.9 205.3 421.9 199.6 433.8 199.6C445.7 199.6 445.7 205.3 457.6 205.3C469.5 205.3 469.5 199.6 481.4 199.6C493.3 199.6 493.3 205.3 505.2 205.3C517.1 205.3 517.1 199.6 529 199.6C540.9 199.6 540.9 205.3 552.8 205.3C564.7 205.3 564.7 199.6 576.6 199.6C588.5 199.6 588.5 205.3 600.4 205.3C612.3 205.3 612.3 199.6 624.2 199.6C636.1 199.6 636.1 205.3 648 205.3C659.9 205.3 659.9 199.6 671.8 199.6C683.7 199.6 683.7 205.3 695.6 205.3C707.5 205.3 707.5 199.6 719.4 199.6C731.3 199.6 731.3 205.3 743.2 205.3C755.1 205.3 755.1 199.6 767 199.6" stroke="#1921E0" stroke-width="2" stroke-miterlimit="10"/>
<path d="M338.6 208.5C350.5 208.5 350.5 214.2 362.4 214.2C374.3 214.2 374.3 208.5 386.2 208.5C398.1 208.5 398.1 214.2 410 214.2C421.9 214.2 421.9 208.5 433.8 208.5C445.7 208.5 445.7 214.2 457.6 214.2C469.5 214.2 469.5 208.5 481.4 208.5C493.3 208.5 493.3 214.2 505.2 214.2C517.1 214.2 517.1 208.5 529 208.5C540.9 208.5 540.9 214.2 552.8 214.2C564.7 214.2 564.7 208.5 576.6 208.5C588.5 208.5 588.5 214.2 600.4 214.2C612.3 214.2 612.3 208.5 624.2 208.5C636.1 208.5 636.1 214.2 648 214.2C659.9 214.2 659.9 208.5 671.8 208.5C683.7 208.5 683.7 214.2 695.6 214.2C707.5 214.2 707.5 208.5 719.4 208.5C731.3 208.5 731.3 214.2 743.2 214.2C755.1 214.2 755.1 208.5 767 208.5" stroke="#1921E0" stroke-width="2" stroke-miterlimit="10"/>
<path d="M338.6 217.3C350.5 217.3 350.5 223 362.4 223C374.3 223 374.3 217.3 386.2 217.3C398.1 217.3 398.1 223 410 223C421.9 223 421.9 217.3 433.8 217.3C445.7 217.3 445.7 223 457.6 223C469.5 223 469.5 217.3 481.4 217.3C493.3 217.3 493.3 223 505.2 223C517.1 223 517.1 217.3 529 217.3C540.9 217.3 540.9 223 552.8 223C564.7 223 564.7 217.3 576.6 217.3C588.5 217.3 588.5 223 600.4 223C612.3 223 612.3 217.3 624.2 217.3C636.1 217.3 636.1 223 648 223C659.9 223 659.9 217.3 671.8 217.3C683.7 217.3 683.7 223 695.6 223C707.5 223 707.5 217.3 719.4 217.3C731.3 217.3 731.3 223 743.2 223C755.1 223 755.1 217.3 767 217.3" stroke="#1921E0" stroke-width="2" stroke-miterlimit="10"/>
<path d="M338.6 226.1C350.5 226.1 350.5 231.8 362.4 231.8C374.3 231.8 374.3 226.1 386.2 226.1C398.1 226.1 398.1 231.8 410 231.8C421.9 231.8 421.9 226.1 433.8 226.1C445.7 226.1 445.7 231.8 457.6 231.8C469.5 231.8 469.5 226.1 481.4 226.1C493.3 226.1 493.3 231.8 505.2 231.8C517.1 231.8 517.1 226.1 529 226.1C540.9 226.1 540.9 231.8 552.8 231.8C564.7 231.8 564.7 226.1 576.6 226.1C588.5 226.1 588.5 231.8 600.4 231.8C612.3 231.8 612.3 226.1 624.2 226.1C636.1 226.1 636.1 231.8 648 231.8C659.9 231.8 659.9 226.1 671.8 226.1C683.7 226.1 683.7 231.8 695.6 231.8C707.5 231.8 707.5 226.1 719.4 226.1C731.3 226.1 731.3 231.8 743.2 231.8C755.1 231.8 755.1 226.1 767 226.1" stroke="#1921E0" stroke-width="2" stroke-miterlimit="10"/>
<path d="M338.6 234.9C350.5 234.9 350.5 240.6 362.4 240.6C374.3 240.6 374.3 234.9 386.2 234.9C398.1 234.9 398.1 240.6 410 240.6C421.9 240.6 421.9 234.9 433.8 234.9C445.7 234.9 445.7 240.6 457.6 240.6C469.5 240.6 469.5 234.9 481.4 234.9C493.3 234.9 493.3 240.6 505.2 240.6C517.1 240.6 517.1 234.9 529 234.9C540.9 234.9 540.9 240.6 552.8 240.6C564.7 240.6 564.7 234.9 576.6 234.9C588.5 234.9 588.5 240.6 600.4 240.6C612.3 240.6 612.3 234.9 624.2 234.9C636.1 234.9 636.1 240.6 648 240.6C659.9 240.6 659.9 234.9 671.8 234.9C683.7 234.9 683.7 240.6 695.6 240.6C707.5 240.6 707.5 234.9 719.4 234.9C731.3 234.9 731.3 240.6 743.2 240.6C755.1 240.6 755.1 234.9 767 234.9" stroke="#1921E0" stroke-width="2" stroke-miterlimit="10"/>
<path d="M338.6 243.8C350.5 243.8 350.5 249.5 362.4 249.5C374.3 249.5 374.3 243.8 386.2 243.8C398.1 243.8 398.1 249.5 410 249.5C421.9 249.5 421.9 243.8 433.8 243.8C445.7 243.8 445.7 249.5 457.6 249.5C469.5 249.5 469.5 243.8 481.4 243.8C493.3 243.8 493.3 249.5 505.2 249.5C517.1 249.5 517.1 243.8 529 243.8C540.9 243.8 540.9 249.5 552.8 249.5C564.7 249.5 564.7 243.8 576.6 243.8C588.5 243.8 588.5 249.5 600.4 249.5C612.3 249.5 612.3 243.8 624.2 243.8C636.1 243.8 636.1 249.5 648 249.5C659.9 249.5 659.9 243.8 671.8 243.8C683.7 243.8 683.7 249.5 695.6 249.5C707.5 249.5 707.5 243.8 719.4 243.8C731.3 243.8 731.3 249.5 743.2 249.5C755.1 249.5 755.1 243.8 767 243.8" stroke="#1921E0" stroke-width="2" stroke-miterlimit="10"/>
<path d="M338.6 252.6C350.5 252.6 350.5 258.3 362.4 258.3C374.3 258.3 374.3 252.6 386.2 252.6C398.1 252.6 398.1 258.3 410 258.3C421.9 258.3 421.9 252.6 433.8 252.6C445.7 252.6 445.7 258.3 457.6 258.3C469.5 258.3 469.5 252.6 481.4 252.6C493.3 252.6 493.3 258.3 505.2 258.3C517.1 258.3 517.1 252.6 529 252.6C540.9 252.6 540.9 258.3 552.8 258.3C564.7 258.3 564.7 252.6 576.6 252.6C588.5 252.6 588.5 258.3 600.4 258.3C612.3 258.3 612.3 252.6 624.2 252.6C636.1 252.6 636.1 258.3 648 258.3C659.9 258.3 659.9 252.6 671.8 252.6C683.7 252.6 683.7 258.3 695.6 258.3C707.5 258.3 707.5 252.6 719.4 252.6C731.3 252.6 731.3 258.3 743.2 258.3C755.1 258.3 755.1 252.6 767 252.6" stroke="#1921E0" stroke-width="2" stroke-miterlimit="10"/>
<path d="M338.6 261.4C350.5 261.4 350.5 267.1 362.4 267.1C374.3 267.1 374.3 261.4 386.2 261.4C398.1 261.4 398.1 267.1 410 267.1C421.9 267.1 421.9 261.4 433.8 261.4C445.7 261.4 445.7 267.1 457.6 267.1C469.5 267.1 469.5 261.4 481.4 261.4C493.3 261.4 493.3 267.1 505.2 267.1C517.1 267.1 517.1 261.4 529 261.4C540.9 261.4 540.9 267.1 552.8 267.1C564.7 267.1 564.7 261.4 576.6 261.4C588.5 261.4 588.5 267.1 600.4 267.1C612.3 267.1 612.3 261.4 624.2 261.4C636.1 261.4 636.1 267.1 648 267.1C659.9 267.1 659.9 261.4 671.8 261.4C683.7 261.4 683.7 267.1 695.6 267.1C707.5 267.1 707.5 261.4 719.4 261.4C731.3 261.4 731.3 267.1 743.2 267.1C755.1 267.1 755.1 261.4 767 261.4" stroke="#1921E0" stroke-width="2" stroke-miterlimit="10"/>
<path d="M338.6 270.2C350.5 270.2 350.5 275.9 362.4 275.9C374.3 275.9 374.3 270.2 386.2 270.2C398.1 270.2 398.1 275.9 410 275.9C421.9 275.9 421.9 270.2 433.8 270.2C445.7 270.2 445.7 275.9 457.6 275.9C469.5 275.9 469.5 270.2 481.4 270.2C493.3 270.2 493.3 275.9 505.2 275.9C517.1 275.9 517.1 270.2 529 270.2C540.9 270.2 540.9 275.9 552.8 275.9C564.7 275.9 564.7 270.2 576.6 270.2C588.5 270.2 588.5 275.9 600.4 275.9C612.3 275.9 612.3 270.2 624.2 270.2C636.1 270.2 636.1 275.9 648 275.9C659.9 275.9 659.9 270.2 671.8 270.2C683.7 270.2 683.7 275.9 695.6 275.9C707.5 275.9 707.5 270.2 719.4 270.2C731.3 270.2 731.3 275.9 743.2 275.9C755.1 275.9 755.1 270.2 767 270.2" stroke="#1921E0" stroke-width="2" stroke-miterlimit="10"/>
<path d="M338.6 279.1C350.5 279.1 350.5 284.8 362.4 284.8C374.3 284.8 374.3 279.1 386.2 279.1C398.1 279.1 398.1 284.8 410 284.8C421.9 284.8 421.9 279.1 433.8 279.1C445.7 279.1 445.7 284.8 457.6 284.8C469.5 284.8 469.5 279.1 481.4 279.1C493.3 279.1 493.3 284.8 505.2 284.8C517.1 284.8 517.1 279.1 529 279.1C540.9 279.1 540.9 284.8 552.8 284.8C564.7 284.8 564.7 279.1 576.6 279.1C588.5 279.1 588.5 284.8 600.4 284.8C612.3 284.8 612.3 279.1 624.2 279.1C636.1 279.1 636.1 284.8 648 284.8C659.9 284.8 659.9 279.1 671.8 279.1C683.7 279.1 683.7 284.8 695.6 284.8C707.5 284.8 707.5 279.1 719.4 279.1C731.3 279.1 731.3 284.8 743.2 284.8C755.1 284.8 755.1 279.1 767 279.1" stroke="#1921E0" stroke-width="2" stroke-miterlimit="10"/>
<path d="M338.6 287.9C350.5 287.9 350.5 293.6 362.4 293.6C374.3 293.6 374.3 287.9 386.2 287.9C398.1 287.9 398.1 293.6 410 293.6C421.9 293.6 421.9 287.9 433.8 287.9C445.7 287.9 445.7 293.6 457.6 293.6C469.5 293.6 469.5 287.9 481.4 287.9C493.3 287.9 493.3 293.6 505.2 293.6C517.1 293.6 517.1 287.9 529 287.9C540.9 287.9 540.9 293.6 552.8 293.6C564.7 293.6 564.7 287.9 576.6 287.9C588.5 287.9 588.5 293.6 600.4 293.6C612.3 293.6 612.3 287.9 624.2 287.9C636.1 287.9 636.1 293.6 648 293.6C659.9 293.6 659.9 287.9 671.8 287.9C683.7 287.9 683.7 293.6 695.6 293.6C707.5 293.6 707.5 287.9 719.4 287.9C731.3 287.9 731.3 293.6 743.2 293.6C755.1 293.6 755.1 287.9 767 287.9" stroke="#1921E0" stroke-width="2" stroke-miterlimit="10"/>
<path d="M338.6 296.7C350.5 296.7 350.5 302.4 362.4 302.4C374.3 302.4 374.3 296.7 386.2 296.7C398.1 296.7 398.1 302.4 410 302.4C421.9 302.4 421.9 296.7 433.8 296.7C445.7 296.7 445.7 302.4 457.6 302.4C469.5 302.4 469.5 296.7 481.4 296.7C493.3 296.7 493.3 302.4 505.2 302.4C517.1 302.4 517.1 296.7 529 296.7C540.9 296.7 540.9 302.4 552.8 302.4C564.7 302.4 564.7 296.7 576.6 296.7C588.5 296.7 588.5 302.4 600.4 302.4C612.3 302.4 612.3 296.7 624.2 296.7C636.1 296.7 636.1 302.4 648 302.4C659.9 302.4 659.9 296.7 671.8 296.7C683.7 296.7 683.7 302.4 695.6 302.4C707.5 302.4 707.5 296.7 719.4 296.7C731.3 296.7 731.3 302.4 743.2 302.4C755.1 302.4 755.1 296.7 767 296.7" stroke="#1921E0" stroke-width="2" stroke-miterlimit="10"/>
<path d="M338.6 305.5C350.5 305.5 350.5 311.2 362.4 311.2C374.3 311.2 374.3 305.5 386.2 305.5C398.1 305.5 398.1 311.2 410 311.2C421.9 311.2 421.9 305.5 433.8 305.5C445.7 305.5 445.7 311.2 457.6 311.2C469.5 311.2 469.5 305.5 481.4 305.5C493.3 305.5 493.3 311.2 505.2 311.2C517.1 311.2 517.1 305.5 529 305.5C540.9 305.5 540.9 311.2 552.8 311.2C564.7 311.2 564.7 305.5 576.6 305.5C588.5 305.5 588.5 311.2 600.4 311.2C612.3 311.2 612.3 305.5 624.2 305.5C636.1 305.5 636.1 311.2 648 311.2C659.9 311.2 659.9 305.5 671.8 305.5C683.7 305.5 683.7 311.2 695.6 311.2C707.5 311.2 707.5 305.5 719.4 305.5C731.3 305.5 731.3 311.2 743.2 311.2C755.1 311.2 755.1 305.5 767 305.5" stroke="#1921E0" stroke-width="2" stroke-miterlimit="10"/>
<path d="M338.6 314.4C350.5 314.4 350.5 320.1 362.4 320.1C374.3 320.1 374.3 314.4 386.2 314.4C398.1 314.4 398.1 320.1 410 320.1C421.9 320.1 421.9 314.4 433.8 314.4C445.7 314.4 445.7 320.1 457.6 320.1C469.5 320.1 469.5 314.4 481.4 314.4C493.3 314.4 493.3 320.1 505.2 320.1C517.1 320.1 517.1 314.4 529 314.4C540.9 314.4 540.9 320.1 552.8 320.1C564.7 320.1 564.7 314.4 576.6 314.4C588.5 314.4 588.5 320.1 600.4 320.1C612.3 320.1 612.3 314.4 624.2 314.4C636.1 314.4 636.1 320.1 648 320.1C659.9 320.1 659.9 314.4 671.8 314.4C683.7 314.4 683.7 320.1 695.6 320.1C707.5 320.1 707.5 314.4 719.4 314.4C731.3 314.4 731.3 320.1 743.2 320.1C755.1 320.1 755.1 314.4 767 314.4" stroke="#1921E0" stroke-width="2" stroke-miterlimit="10"/>
<path d="M338.6 323.2C350.5 323.2 350.5 328.9 362.4 328.9C374.3 328.9 374.3 323.2 386.2 323.2C398.1 323.2 398.1 328.9 410 328.9C421.9 328.9 421.9 323.2 433.8 323.2C445.7 323.2 445.7 328.9 457.6 328.9C469.5 328.9 469.5 323.2 481.4 323.2C493.3 323.2 493.3 328.9 505.2 328.9C517.1 328.9 517.1 323.2 529 323.2C540.9 323.2 540.9 328.9 552.8 328.9C564.7 328.9 564.7 323.2 576.6 323.2C588.5 323.2 588.5 328.9 600.4 328.9C612.3 328.9 612.3 323.2 624.2 323.2C636.1 323.2 636.1 328.9 648 328.9C659.9 328.9 659.9 323.2 671.8 323.2C683.7 323.2 683.7 328.9 695.6 328.9C707.5 328.9 707.5 323.2 719.4 323.2C731.3 323.2 731.3 328.9 743.2 328.9C755.1 328.9 755.1 323.2 767 323.2" stroke="#1921E0" stroke-width="2" stroke-miterlimit="10"/>
<path d="M338.6 332C350.5 332 350.5 337.7 362.4 337.7C374.3 337.7 374.3 332 386.2 332C398.1 332 398.1 337.7 410 337.7C421.9 337.7 421.9 332 433.8 332C445.7 332 445.7 337.7 457.6 337.7C469.5 337.7 469.5 332 481.4 332C493.3 332 493.3 337.7 505.2 337.7C517.1 337.7 517.1 332 529 332C540.9 332 540.9 337.7 552.8 337.7C564.7 337.7 564.7 332 576.6 332C588.5 332 588.5 337.7 600.4 337.7C612.3 337.7 612.3 332 624.2 332C636.1 332 636.1 337.7 648 337.7C659.9 337.7 659.9 332 671.8 332C683.7 332 683.7 337.7 695.6 337.7C707.5 337.7 707.5 332 719.4 332C731.3 332 731.3 337.7 743.2 337.7C755.1 337.7 755.1 332 767 332" stroke="#1921E0" stroke-width="2" stroke-miterlimit="10"/>
<path d="M338.6 340.8C350.5 340.8 350.5 346.5 362.4 346.5C374.3 346.5 374.3 340.8 386.2 340.8C398.1 340.8 398.1 346.5 410 346.5C421.9 346.5 421.9 340.8 433.8 340.8C445.7 340.8 445.7 346.5 457.6 346.5C469.5 346.5 469.5 340.8 481.4 340.8C493.3 340.8 493.3 346.5 505.2 346.5C517.1 346.5 517.1 340.8 529 340.8C540.9 340.8 540.9 346.5 552.8 346.5C564.7 346.5 564.7 340.8 576.6 340.8C588.5 340.8 588.5 346.5 600.4 346.5C612.3 346.5 612.3 340.8 624.2 340.8C636.1 340.8 636.1 346.5 648 346.5C659.9 346.5 659.9 340.8 671.8 340.8C683.7 340.8 683.7 346.5 695.6 346.5C707.5 346.5 707.5 340.8 719.4 340.8C731.3 340.8 731.3 346.5 743.2 346.5C755.1 346.5 755.1 340.8 767 340.8" stroke="#1921E0" stroke-width="2" stroke-miterlimit="10"/>
<path d="M338.6 349.7C350.5 349.7 350.5 355.4 362.4 355.4C374.3 355.4 374.3 349.7 386.2 349.7C398.1 349.7 398.1 355.4 410 355.4C421.9 355.4 421.9 349.7 433.8 349.7C445.7 349.7 445.7 355.4 457.6 355.4C469.5 355.4 469.5 349.7 481.4 349.7C493.3 349.7 493.3 355.4 505.2 355.4C517.1 355.4 517.1 349.7 529 349.7C540.9 349.7 540.9 355.4 552.8 355.4C564.7 355.4 564.7 349.7 576.6 349.7C588.5 349.7 588.5 355.4 600.4 355.4C612.3 355.4 612.3 349.7 624.2 349.7C636.1 349.7 636.1 355.4 648 355.4C659.9 355.4 659.9 349.7 671.8 349.7C683.7 349.7 683.7 355.4 695.6 355.4C707.5 355.4 707.5 349.7 719.4 349.7C731.3 349.7 731.3 355.4 743.2 355.4C755.1 355.4 755.1 349.7 767 349.7" stroke="#1921E0" stroke-width="2" stroke-miterlimit="10"/>
<path d="M338.6 358.5C350.5 358.5 350.5 364.2 362.4 364.2C374.3 364.2 374.3 358.5 386.2 358.5C398.1 358.5 398.1 364.2 410 364.2C421.9 364.2 421.9 358.5 433.8 358.5C445.7 358.5 445.7 364.2 457.6 364.2C469.5 364.2 469.5 358.5 481.4 358.5C493.3 358.5 493.3 364.2 505.2 364.2C517.1 364.2 517.1 358.5 529 358.5C540.9 358.5 540.9 364.2 552.8 364.2C564.7 364.2 564.7 358.5 576.6 358.5C588.5 358.5 588.5 364.2 600.4 364.2C612.3 364.2 612.3 358.5 624.2 358.5C636.1 358.5 636.1 364.2 648 364.2C659.9 364.2 659.9 358.5 671.8 358.5C683.7 358.5 683.7 364.2 695.6 364.2C707.5 364.2 707.5 358.5 719.4 358.5C731.3 358.5 731.3 364.2 743.2 364.2C755.1 364.2 755.1 358.5 767 358.5" stroke="#1921E0" stroke-width="2" stroke-miterlimit="10"/>
<path d="M338.6 367.3C350.5 367.3 350.5 373 362.4 373C374.3 373 374.3 367.3 386.2 367.3C398.1 367.3 398.1 373 410 373C421.9 373 421.9 367.3 433.8 367.3C445.7 367.3 445.7 373 457.6 373C469.5 373 469.5 367.3 481.4 367.3C493.3 367.3 493.3 373 505.2 373C517.1 373 517.1 367.3 529 367.3C540.9 367.3 540.9 373 552.8 373C564.7 373 564.7 367.3 576.6 367.3C588.5 367.3 588.5 373 600.4 373C612.3 373 612.3 367.3 624.2 367.3C636.1 367.3 636.1 373 648 373C659.9 373 659.9 367.3 671.8 367.3C683.7 367.3 683.7 373 695.6 373C707.5 373 707.5 367.3 719.4 367.3C731.3 367.3 731.3 373 743.2 373C755.1 373 755.1 367.3 767 367.3" stroke="#1921E0" stroke-width="2" stroke-miterlimit="10"/>
<path d="M338.6 376.1C350.5 376.1 350.5 381.8 362.4 381.8C374.3 381.8 374.3 376.1 386.2 376.1C398.1 376.1 398.1 381.8 410 381.8C421.9 381.8 421.9 376.1 433.8 376.1C445.7 376.1 445.7 381.8 457.6 381.8C469.5 381.8 469.5 376.1 481.4 376.1C493.3 376.1 493.3 381.8 505.2 381.8C517.1 381.8 517.1 376.1 529 376.1C540.9 376.1 540.9 381.8 552.8 381.8C564.7 381.8 564.7 376.1 576.6 376.1C588.5 376.1 588.5 381.8 600.4 381.8C612.3 381.8 612.3 376.1 624.2 376.1C636.1 376.1 636.1 381.8 648 381.8C659.9 381.8 659.9 376.1 671.8 376.1C683.7 376.1 683.7 381.8 695.6 381.8C707.5 381.8 707.5 376.1 719.4 376.1C731.3 376.1 731.3 381.8 743.2 381.8C755.1 381.8 755.1 376.1 767 376.1" stroke="#1921E0" stroke-width="2" stroke-miterlimit="10"/>
<path d="M338.6 385C350.5 385 350.5 390.7 362.4 390.7C374.3 390.7 374.3 385 386.2 385C398.1 385 398.1 390.7 410 390.7C421.9 390.7 421.9 385 433.8 385C445.7 385 445.7 390.7 457.6 390.7C469.5 390.7 469.5 385 481.4 385C493.3 385 493.3 390.7 505.2 390.7C517.1 390.7 517.1 385 529 385C540.9 385 540.9 390.7 552.8 390.7C564.7 390.7 564.7 385 576.6 385C588.5 385 588.5 390.7 600.4 390.7C612.3 390.7 612.3 385 624.2 385C636.1 385 636.1 390.7 648 390.7C659.9 390.7 659.9 385 671.8 385C683.7 385 683.7 390.7 695.6 390.7C707.5 390.7 707.5 385 719.4 385C731.3 385 731.3 390.7 743.2 390.7C755.1 390.7 755.1 385 767 385" stroke="#1921E0" stroke-width="2" stroke-miterlimit="10"/>
<path d="M338.6 393.8C350.5 393.8 350.5 399.5 362.4 399.5C374.3 399.5 374.3 393.8 386.2 393.8C398.1 393.8 398.1 399.5 410 399.5C421.9 399.5 421.9 393.8 433.8 393.8C445.7 393.8 445.7 399.5 457.6 399.5C469.5 399.5 469.5 393.8 481.4 393.8C493.3 393.8 493.3 399.5 505.2 399.5C517.1 399.5 517.1 393.8 529 393.8C540.9 393.8 540.9 399.5 552.8 399.5C564.7 399.5 564.7 393.8 576.6 393.8C588.5 393.8 588.5 399.5 600.4 399.5C612.3 399.5 612.3 393.8 624.2 393.8C636.1 393.8 636.1 399.5 648 399.5C659.9 399.5 659.9 393.8 671.8 393.8C683.7 393.8 683.7 399.5 695.6 399.5C707.5 399.5 707.5 393.8 719.4 393.8C731.3 393.8 731.3 399.5 743.2 399.5C755.1 399.5 755.1 393.8 767 393.8" stroke="#1921E0" stroke-width="2" stroke-miterlimit="10"/>
<path d="M338.6 402.6C350.5 402.6 350.5 408.3 362.4 408.3C374.3 408.3 374.3 402.6 386.2 402.6C398.1 402.6 398.1 408.3 410 408.3C421.9 408.3 421.9 402.6 433.8 402.6C445.7 402.6 445.7 408.3 457.6 408.3C469.5 408.3 469.5 402.6 481.4 402.6C493.3 402.6 493.3 408.3 505.2 408.3C517.1 408.3 517.1 402.6 529 402.6C540.9 402.6 540.9 408.3 552.8 408.3C564.7 408.3 564.7 402.6 576.6 402.6C588.5 402.6 588.5 408.3 600.4 408.3C612.3 408.3 612.3 402.6 624.2 402.6C636.1 402.6 636.1 408.3 648 408.3C659.9 408.3 659.9 402.6 671.8 402.6C683.7 402.6 683.7 408.3 695.6 408.3C707.5 408.3 707.5 402.6 719.4 402.6C731.3 402.6 731.3 408.3 743.2 408.3C755.1 408.3 755.1 402.6 767 402.6" stroke="#1921E0" stroke-width="2" stroke-miterlimit="10"/>
<path d="M338.6 411.5C350.5 411.5 350.5 417.2 362.4 417.2C374.3 417.2 374.3 411.5 386.2 411.5C398.1 411.5 398.1 417.2 410 417.2C421.9 417.2 421.9 411.5 433.8 411.5C445.7 411.5 445.7 417.2 457.6 417.2C469.5 417.2 469.5 411.5 481.4 411.5C493.3 411.5 493.3 417.2 505.2 417.2C517.1 417.2 517.1 411.5 529 411.5C540.9 411.5 540.9 417.2 552.8 417.2C564.7 417.2 564.7 411.5 576.6 411.5C588.5 411.5 588.5 417.2 600.4 417.2C612.3 417.2 612.3 411.5 624.2 411.5C636.1 411.5 636.1 417.2 648 417.2C659.9 417.2 659.9 411.5 671.8 411.5C683.7 411.5 683.7 417.2 695.6 417.2C707.5 417.2 707.5 411.5 719.4 411.5C731.3 411.5 731.3 417.2 743.2 417.2C755.1 417.2 755.1 411.5 767 411.5" stroke="#1921E0" stroke-width="2" stroke-miterlimit="10"/>
<path d="M338.6 420.3C350.5 420.3 350.5 426 362.4 426C374.3 426 374.3 420.3 386.2 420.3C398.1 420.3 398.1 426 410 426C421.9 426 421.9 420.3 433.8 420.3C445.7 420.3 445.7 426 457.6 426C469.5 426 469.5 420.3 481.4 420.3C493.3 420.3 493.3 426 505.2 426C517.1 426 517.1 420.3 529 420.3C540.9 420.3 540.9 426 552.8 426C564.7 426 564.7 420.3 576.6 420.3C588.5 420.3 588.5 426 600.4 426C612.3 426 612.3 420.3 624.2 420.3C636.1 420.3 636.1 426 648 426C659.9 426 659.9 420.3 671.8 420.3C683.7 420.3 683.7 426 695.6 426C707.5 426 707.5 420.3 719.4 420.3C731.3 420.3 731.3 426 743.2 426C755.1 426 755.1 420.3 767 420.3" stroke="#1921E0" stroke-width="2" stroke-miterlimit="10"/>
<path d="M338.6 429.1C350.5 429.1 350.5 434.8 362.4 434.8C374.3 434.8 374.3 429.1 386.2 429.1C398.1 429.1 398.1 434.8 410 434.8C421.9 434.8 421.9 429.1 433.8 429.1C445.7 429.1 445.7 434.8 457.6 434.8C469.5 434.8 469.5 429.1 481.4 429.1C493.3 429.1 493.3 434.8 505.2 434.8C517.1 434.8 517.1 429.1 529 429.1C540.9 429.1 540.9 434.8 552.8 434.8C564.7 434.8 564.7 429.1 576.6 429.1C588.5 429.1 588.5 434.8 600.4 434.8C612.3 434.8 612.3 429.1 624.2 429.1C636.1 429.1 636.1 434.8 648 434.8C659.9 434.8 659.9 429.1 671.8 429.1C683.7 429.1 683.7 434.8 695.6 434.8C707.5 434.8 707.5 429.1 719.4 429.1C731.3 429.1 731.3 434.8 743.2 434.8C755.1 434.8 755.1 429.1 767 429.1" stroke="#1921E0" stroke-width="2" stroke-miterlimit="10"/>
<path d="M338.6 437.9C350.5 437.9 350.5 443.6 362.4 443.6C374.3 443.6 374.3 437.9 386.2 437.9C398.1 437.9 398.1 443.6 410 443.6C421.9 443.6 421.9 437.9 433.8 437.9C445.7 437.9 445.7 443.6 457.6 443.6C469.5 443.6 469.5 437.9 481.4 437.9C493.3 437.9 493.3 443.6 505.2 443.6C517.1 443.6 517.1 437.9 529 437.9C540.9 437.9 540.9 443.6 552.8 443.6C564.7 443.6 564.7 437.9 576.6 437.9C588.5 437.9 588.5 443.6 600.4 443.6C612.3 443.6 612.3 437.9 624.2 437.9C636.1 437.9 636.1 443.6 648 443.6C659.9 443.6 659.9 437.9 671.8 437.9C683.7 437.9 683.7 443.6 695.6 443.6C707.5 443.6 707.5 437.9 719.4 437.9C731.3 437.9 731.3 443.6 743.2 443.6C755.1 443.6 755.1 437.9 767 437.9" stroke="#1921E0" stroke-width="2" stroke-miterlimit="10"/>
<path d="M338.6 446.8C350.5 446.8 350.5 452.5 362.4 452.5C374.3 452.5 374.3 446.8 386.2 446.8C398.1 446.8 398.1 452.5 410 452.5C421.9 452.5 421.9 446.8 433.8 446.8C445.7 446.8 445.7 452.5 457.6 452.5C469.5 452.5 469.5 446.8 481.4 446.8C493.3 446.8 493.3 452.5 505.2 452.5C517.1 452.5 517.1 446.8 529 446.8C540.9 446.8 540.9 452.5 552.8 452.5C564.7 452.5 564.7 446.8 576.6 446.8C588.5 446.8 588.5 452.5 600.4 452.5C612.3 452.5 612.3 446.8 624.2 446.8C636.1 446.8 636.1 452.5 648 452.5C659.9 452.5 659.9 446.8 671.8 446.8C683.7 446.8 683.7 452.5 695.6 452.5C707.5 452.5 707.5 446.8 719.4 446.8C731.3 446.8 731.3 452.5 743.2 452.5C755.1 452.5 755.1 446.8 767 446.8" stroke="#1921E0" stroke-width="2" stroke-miterlimit="10"/>
<path d="M52.5 190.8C64.4 190.8 64.4 196.5 76.3 196.5C88.2 196.5 88.2 190.8 100.1 190.8C112 190.8 112 196.5 123.9 196.5C135.8 196.5 135.8 190.8 147.7 190.8C159.6 190.8 159.6 196.5 171.5 196.5C183.4 196.5 183.4 190.8 195.3 190.8C207.2 190.8 207.2 196.5 219.1 196.5C231 196.5 231 190.8 242.9 190.8C254.8 190.8 254.8 196.5 266.7 196.5C278.6 196.5 278.6 190.8 290.5 190.8C302.4 190.8 302.4 196.5 314.3 196.5C326.2 196.5 326.2 190.8 338.1 190.8C350 190.8 350 196.5 361.9 196.5C373.8 196.5 373.8 190.8 385.7 190.8C397.6 190.8 397.6 196.5 409.5 196.5C421.4 196.5 421.4 190.8 433.3 190.8C445.2 190.8 445.2 196.5 457.1 196.5C469 196.5 469 190.8 480.9 190.8" stroke="#1921E0" stroke-width="2" stroke-miterlimit="10"/>
<path d="M52.5 199.6C64.4 199.6 64.4 205.3 76.3 205.3C88.2 205.3 88.2 199.6 100.1 199.6C112 199.6 112 205.3 123.9 205.3C135.8 205.3 135.8 199.6 147.7 199.6C159.6 199.6 159.6 205.3 171.5 205.3C183.4 205.3 183.4 199.6 195.3 199.6C207.2 199.6 207.2 205.3 219.1 205.3C231 205.3 231 199.6 242.9 199.6C254.8 199.6 254.8 205.3 266.7 205.3C278.6 205.3 278.6 199.6 290.5 199.6C302.4 199.6 302.4 205.3 314.3 205.3C326.2 205.3 326.2 199.6 338.1 199.6C350 199.6 350 205.3 361.9 205.3C373.8 205.3 373.8 199.6 385.7 199.6C397.6 199.6 397.6 205.3 409.5 205.3C421.4 205.3 421.4 199.6 433.3 199.6C445.2 199.6 445.2 205.3 457.1 205.3C469 205.3 469 199.6 480.9 199.6" stroke="#1921E0" stroke-width="2" stroke-miterlimit="10"/>
<path d="M52.5 208.5C64.4 208.5 64.4 214.2 76.3 214.2C88.2 214.2 88.2 208.5 100.1 208.5C112 208.5 112 214.2 123.9 214.2C135.8 214.2 135.8 208.5 147.7 208.5C159.6 208.5 159.6 214.2 171.5 214.2C183.4 214.2 183.4 208.5 195.3 208.5C207.2 208.5 207.2 214.2 219.1 214.2C231 214.2 231 208.5 242.9 208.5C254.8 208.5 254.8 214.2 266.7 214.2C278.6 214.2 278.6 208.5 290.5 208.5C302.4 208.5 302.4 214.2 314.3 214.2C326.2 214.2 326.2 208.5 338.1 208.5C350 208.5 350 214.2 361.9 214.2C373.8 214.2 373.8 208.5 385.7 208.5C397.6 208.5 397.6 214.2 409.5 214.2C421.4 214.2 421.4 208.5 433.3 208.5C445.2 208.5 445.2 214.2 457.1 214.2C469 214.2 469 208.5 480.9 208.5" stroke="#1921E0" stroke-width="2" stroke-miterlimit="10"/>
<path d="M52.5 217.3C64.4 217.3 64.4 223 76.3 223C88.2 223 88.2 217.3 100.1 217.3C112 217.3 112 223 123.9 223C135.8 223 135.8 217.3 147.7 217.3C159.6 217.3 159.6 223 171.5 223C183.4 223 183.4 217.3 195.3 217.3C207.2 217.3 207.2 223 219.1 223C231 223 231 217.3 242.9 217.3C254.8 217.3 254.8 223 266.7 223C278.6 223 278.6 217.3 290.5 217.3C302.4 217.3 302.4 223 314.3 223C326.2 223 326.2 217.3 338.1 217.3C350 217.3 350 223 361.9 223C373.8 223 373.8 217.3 385.7 217.3C397.6 217.3 397.6 223 409.5 223C421.4 223 421.4 217.3 433.3 217.3C445.2 217.3 445.2 223 457.1 223C469 223 469 217.3 480.9 217.3" stroke="#1921E0" stroke-width="2" stroke-miterlimit="10"/>
<path d="M52.5 226.1C64.4 226.1 64.4 231.8 76.3 231.8C88.2 231.8 88.2 226.1 100.1 226.1C112 226.1 112 231.8 123.9 231.8C135.8 231.8 135.8 226.1 147.7 226.1C159.6 226.1 159.6 231.8 171.5 231.8C183.4 231.8 183.4 226.1 195.3 226.1C207.2 226.1 207.2 231.8 219.1 231.8C231 231.8 231 226.1 242.9 226.1C254.8 226.1 254.8 231.8 266.7 231.8C278.6 231.8 278.6 226.1 290.5 226.1C302.4 226.1 302.4 231.8 314.3 231.8C326.2 231.8 326.2 226.1 338.1 226.1C350 226.1 350 231.8 361.9 231.8C373.8 231.8 373.8 226.1 385.7 226.1C397.6 226.1 397.6 231.8 409.5 231.8C421.4 231.8 421.4 226.1 433.3 226.1C445.2 226.1 445.2 231.8 457.1 231.8C469 231.8 469 226.1 480.9 226.1" stroke="#1921E0" stroke-width="2" stroke-miterlimit="10"/>
<path d="M52.5 234.9C64.4 234.9 64.4 240.6 76.3 240.6C88.2 240.6 88.2 234.9 100.1 234.9C112 234.9 112 240.6 123.9 240.6C135.8 240.6 135.8 234.9 147.7 234.9C159.6 234.9 159.6 240.6 171.5 240.6C183.4 240.6 183.4 234.9 195.3 234.9C207.2 234.9 207.2 240.6 219.1 240.6C231 240.6 231 234.9 242.9 234.9C254.8 234.9 254.8 240.6 266.7 240.6C278.6 240.6 278.6 234.9 290.5 234.9C302.4 234.9 302.4 240.6 314.3 240.6C326.2 240.6 326.2 234.9 338.1 234.9C350 234.9 350 240.6 361.9 240.6C373.8 240.6 373.8 234.9 385.7 234.9C397.6 234.9 397.6 240.6 409.5 240.6C421.4 240.6 421.4 234.9 433.3 234.9C445.2 234.9 445.2 240.6 457.1 240.6C469 240.6 469 234.9 480.9 234.9" stroke="#1921E0" stroke-width="2" stroke-miterlimit="10"/>
<path d="M52.5 243.8C64.4 243.8 64.4 249.5 76.3 249.5C88.2 249.5 88.2 243.8 100.1 243.8C112 243.8 112 249.5 123.9 249.5C135.8 249.5 135.8 243.8 147.7 243.8C159.6 243.8 159.6 249.5 171.5 249.5C183.4 249.5 183.4 243.8 195.3 243.8C207.2 243.8 207.2 249.5 219.1 249.5C231 249.5 231 243.8 242.9 243.8C254.8 243.8 254.8 249.5 266.7 249.5C278.6 249.5 278.6 243.8 290.5 243.8C302.4 243.8 302.4 249.5 314.3 249.5C326.2 249.5 326.2 243.8 338.1 243.8C350 243.8 350 249.5 361.9 249.5C373.8 249.5 373.8 243.8 385.7 243.8C397.6 243.8 397.6 249.5 409.5 249.5C421.4 249.5 421.4 243.8 433.3 243.8C445.2 243.8 445.2 249.5 457.1 249.5C469 249.5 469 243.8 480.9 243.8" stroke="#1921E0" stroke-width="2" stroke-miterlimit="10"/>
<path d="M52.5 252.6C64.4 252.6 64.4 258.3 76.3 258.3C88.2 258.3 88.2 252.6 100.1 252.6C112 252.6 112 258.3 123.9 258.3C135.8 258.3 135.8 252.6 147.7 252.6C159.6 252.6 159.6 258.3 171.5 258.3C183.4 258.3 183.4 252.6 195.3 252.6C207.2 252.6 207.2 258.3 219.1 258.3C231 258.3 231 252.6 242.9 252.6C254.8 252.6 254.8 258.3 266.7 258.3C278.6 258.3 278.6 252.6 290.5 252.6C302.4 252.6 302.4 258.3 314.3 258.3C326.2 258.3 326.2 252.6 338.1 252.6C350 252.6 350 258.3 361.9 258.3C373.8 258.3 373.8 252.6 385.7 252.6C397.6 252.6 397.6 258.3 409.5 258.3C421.4 258.3 421.4 252.6 433.3 252.6C445.2 252.6 445.2 258.3 457.1 258.3C469 258.3 469 252.6 480.9 252.6" stroke="#1921E0" stroke-width="2" stroke-miterlimit="10"/>
<path d="M52.5 261.4C64.4 261.4 64.4 267.1 76.3 267.1C88.2 267.1 88.2 261.4 100.1 261.4C112 261.4 112 267.1 123.9 267.1C135.8 267.1 135.8 261.4 147.7 261.4C159.6 261.4 159.6 267.1 171.5 267.1C183.4 267.1 183.4 261.4 195.3 261.4C207.2 261.4 207.2 267.1 219.1 267.1C231 267.1 231 261.4 242.9 261.4C254.8 261.4 254.8 267.1 266.7 267.1C278.6 267.1 278.6 261.4 290.5 261.4C302.4 261.4 302.4 267.1 314.3 267.1C326.2 267.1 326.2 261.4 338.1 261.4C350 261.4 350 267.1 361.9 267.1C373.8 267.1 373.8 261.4 385.7 261.4C397.6 261.4 397.6 267.1 409.5 267.1C421.4 267.1 421.4 261.4 433.3 261.4C445.2 261.4 445.2 267.1 457.1 267.1C469 267.1 469 261.4 480.9 261.4" stroke="#1921E0" stroke-width="2" stroke-miterlimit="10"/>
<path d="M52.5 270.2C64.4 270.2 64.4 275.9 76.3 275.9C88.2 275.9 88.2 270.2 100.1 270.2C112 270.2 112 275.9 123.9 275.9C135.8 275.9 135.8 270.2 147.7 270.2C159.6 270.2 159.6 275.9 171.5 275.9C183.4 275.9 183.4 270.2 195.3 270.2C207.2 270.2 207.2 275.9 219.1 275.9C231 275.9 231 270.2 242.9 270.2C254.8 270.2 254.8 275.9 266.7 275.9C278.6 275.9 278.6 270.2 290.5 270.2C302.4 270.2 302.4 275.9 314.3 275.9C326.2 275.9 326.2 270.2 338.1 270.2C350 270.2 350 275.9 361.9 275.9C373.8 275.9 373.8 270.2 385.7 270.2C397.6 270.2 397.6 275.9 409.5 275.9C421.4 275.9 421.4 270.2 433.3 270.2C445.2 270.2 445.2 275.9 457.1 275.9C469 275.9 469 270.2 480.9 270.2" stroke="#1921E0" stroke-width="2" stroke-miterlimit="10"/>
<path d="M52.5 279.1C64.4 279.1 64.4 284.8 76.3 284.8C88.2 284.8 88.2 279.1 100.1 279.1C112 279.1 112 284.8 123.9 284.8C135.8 284.8 135.8 279.1 147.7 279.1C159.6 279.1 159.6 284.8 171.5 284.8C183.4 284.8 183.4 279.1 195.3 279.1C207.2 279.1 207.2 284.8 219.1 284.8C231 284.8 231 279.1 242.9 279.1C254.8 279.1 254.8 284.8 266.7 284.8C278.6 284.8 278.6 279.1 290.5 279.1C302.4 279.1 302.4 284.8 314.3 284.8C326.2 284.8 326.2 279.1 338.1 279.1C350 279.1 350 284.8 361.9 284.8C373.8 284.8 373.8 279.1 385.7 279.1C397.6 279.1 397.6 284.8 409.5 284.8C421.4 284.8 421.4 279.1 433.3 279.1C445.2 279.1 445.2 284.8 457.1 284.8C469 284.8 469 279.1 480.9 279.1" stroke="#1921E0" stroke-width="2" stroke-miterlimit="10"/>
<path d="M52.5 287.9C64.4 287.9 64.4 293.6 76.3 293.6C88.2 293.6 88.2 287.9 100.1 287.9C112 287.9 112 293.6 123.9 293.6C135.8 293.6 135.8 287.9 147.7 287.9C159.6 287.9 159.6 293.6 171.5 293.6C183.4 293.6 183.4 287.9 195.3 287.9C207.2 287.9 207.2 293.6 219.1 293.6C231 293.6 231 287.9 242.9 287.9C254.8 287.9 254.8 293.6 266.7 293.6C278.6 293.6 278.6 287.9 290.5 287.9C302.4 287.9 302.4 293.6 314.3 293.6C326.2 293.6 326.2 287.9 338.1 287.9C350 287.9 350 293.6 361.9 293.6C373.8 293.6 373.8 287.9 385.7 287.9C397.6 287.9 397.6 293.6 409.5 293.6C421.4 293.6 421.4 287.9 433.3 287.9C445.2 287.9 445.2 293.6 457.1 293.6C469 293.6 469 287.9 480.9 287.9" stroke="#1921E0" stroke-width="2" stroke-miterlimit="10"/>
<path d="M52.5 296.7C64.4 296.7 64.4 302.4 76.3 302.4C88.2 302.4 88.2 296.7 100.1 296.7C112 296.7 112 302.4 123.9 302.4C135.8 302.4 135.8 296.7 147.7 296.7C159.6 296.7 159.6 302.4 171.5 302.4C183.4 302.4 183.4 296.7 195.3 296.7C207.2 296.7 207.2 302.4 219.1 302.4C231 302.4 231 296.7 242.9 296.7C254.8 296.7 254.8 302.4 266.7 302.4C278.6 302.4 278.6 296.7 290.5 296.7C302.4 296.7 302.4 302.4 314.3 302.4C326.2 302.4 326.2 296.7 338.1 296.7C350 296.7 350 302.4 361.9 302.4C373.8 302.4 373.8 296.7 385.7 296.7C397.6 296.7 397.6 302.4 409.5 302.4C421.4 302.4 421.4 296.7 433.3 296.7C445.2 296.7 445.2 302.4 457.1 302.4C469 302.4 469 296.7 480.9 296.7" stroke="#1921E0" stroke-width="2" stroke-miterlimit="10"/>
<path d="M52.5 305.5C64.4 305.5 64.4 311.2 76.3 311.2C88.2 311.2 88.2 305.5 100.1 305.5C112 305.5 112 311.2 123.9 311.2C135.8 311.2 135.8 305.5 147.7 305.5C159.6 305.5 159.6 311.2 171.5 311.2C183.4 311.2 183.4 305.5 195.3 305.5C207.2 305.5 207.2 311.2 219.1 311.2C231 311.2 231 305.5 242.9 305.5C254.8 305.5 254.8 311.2 266.7 311.2C278.6 311.2 278.6 305.5 290.5 305.5C302.4 305.5 302.4 311.2 314.3 311.2C326.2 311.2 326.2 305.5 338.1 305.5C350 305.5 350 311.2 361.9 311.2C373.8 311.2 373.8 305.5 385.7 305.5C397.6 305.5 397.6 311.2 409.5 311.2C421.4 311.2 421.4 305.5 433.3 305.5C445.2 305.5 445.2 311.2 457.1 311.2C469 311.2 469 305.5 480.9 305.5" stroke="#1921E0" stroke-width="2" stroke-miterlimit="10"/>
<path d="M52.5 314.4C64.4 314.4 64.4 320.1 76.3 320.1C88.2 320.1 88.2 314.4 100.1 314.4C112 314.4 112 320.1 123.9 320.1C135.8 320.1 135.8 314.4 147.7 314.4C159.6 314.4 159.6 320.1 171.5 320.1C183.4 320.1 183.4 314.4 195.3 314.4C207.2 314.4 207.2 320.1 219.1 320.1C231 320.1 231 314.4 242.9 314.4C254.8 314.4 254.8 320.1 266.7 320.1C278.6 320.1 278.6 314.4 290.5 314.4C302.4 314.4 302.4 320.1 314.3 320.1C326.2 320.1 326.2 314.4 338.1 314.4C350 314.4 350 320.1 361.9 320.1C373.8 320.1 373.8 314.4 385.7 314.4C397.6 314.4 397.6 320.1 409.5 320.1C421.4 320.1 421.4 314.4 433.3 314.4C445.2 314.4 445.2 320.1 457.1 320.1C469 320.1 469 314.4 480.9 314.4" stroke="#1921E0" stroke-width="2" stroke-miterlimit="10"/>
<path d="M52.5 323.2C64.4 323.2 64.4 328.9 76.3 328.9C88.2 328.9 88.2 323.2 100.1 323.2C112 323.2 112 328.9 123.9 328.9C135.8 328.9 135.8 323.2 147.7 323.2C159.6 323.2 159.6 328.9 171.5 328.9C183.4 328.9 183.4 323.2 195.3 323.2C207.2 323.2 207.2 328.9 219.1 328.9C231 328.9 231 323.2 242.9 323.2C254.8 323.2 254.8 328.9 266.7 328.9C278.6 328.9 278.6 323.2 290.5 323.2C302.4 323.2 302.4 328.9 314.3 328.9C326.2 328.9 326.2 323.2 338.1 323.2C350 323.2 350 328.9 361.9 328.9C373.8 328.9 373.8 323.2 385.7 323.2C397.6 323.2 397.6 328.9 409.5 328.9C421.4 328.9 421.4 323.2 433.3 323.2C445.2 323.2 445.2 328.9 457.1 328.9C469 328.9 469 323.2 480.9 323.2" stroke="#1921E0" stroke-width="2" stroke-miterlimit="10"/>
<path d="M52.5 332C64.4 332 64.4 337.7 76.3 337.7C88.2 337.7 88.2 332 100.1 332C112 332 112 337.7 123.9 337.7C135.8 337.7 135.8 332 147.7 332C159.6 332 159.6 337.7 171.5 337.7C183.4 337.7 183.4 332 195.3 332C207.2 332 207.2 337.7 219.1 337.7C231 337.7 231 332 242.9 332C254.8 332 254.8 337.7 266.7 337.7C278.6 337.7 278.6 332 290.5 332C302.4 332 302.4 337.7 314.3 337.7C326.2 337.7 326.2 332 338.1 332C350 332 350 337.7 361.9 337.7C373.8 337.7 373.8 332 385.7 332C397.6 332 397.6 337.7 409.5 337.7C421.4 337.7 421.4 332 433.3 332C445.2 332 445.2 337.7 457.1 337.7C469 337.7 469 332 480.9 332" stroke="#1921E0" stroke-width="2" stroke-miterlimit="10"/>
<path d="M52.5 340.8C64.4 340.8 64.4 346.5 76.3 346.5C88.2 346.5 88.2 340.8 100.1 340.8C112 340.8 112 346.5 123.9 346.5C135.8 346.5 135.8 340.8 147.7 340.8C159.6 340.8 159.6 346.5 171.5 346.5C183.4 346.5 183.4 340.8 195.3 340.8C207.2 340.8 207.2 346.5 219.1 346.5C231 346.5 231 340.8 242.9 340.8C254.8 340.8 254.8 346.5 266.7 346.5C278.6 346.5 278.6 340.8 290.5 340.8C302.4 340.8 302.4 346.5 314.3 346.5C326.2 346.5 326.2 340.8 338.1 340.8C350 340.8 350 346.5 361.9 346.5C373.8 346.5 373.8 340.8 385.7 340.8C397.6 340.8 397.6 346.5 409.5 346.5C421.4 346.5 421.4 340.8 433.3 340.8C445.2 340.8 445.2 346.5 457.1 346.5C469 346.5 469 340.8 480.9 340.8" stroke="#1921E0" stroke-width="2" stroke-miterlimit="10"/>
<path d="M52.5 349.7C64.4 349.7 64.4 355.4 76.3 355.4C88.2 355.4 88.2 349.7 100.1 349.7C112 349.7 112 355.4 123.9 355.4C135.8 355.4 135.8 349.7 147.7 349.7C159.6 349.7 159.6 355.4 171.5 355.4C183.4 355.4 183.4 349.7 195.3 349.7C207.2 349.7 207.2 355.4 219.1 355.4C231 355.4 231 349.7 242.9 349.7C254.8 349.7 254.8 355.4 266.7 355.4C278.6 355.4 278.6 349.7 290.5 349.7C302.4 349.7 302.4 355.4 314.3 355.4C326.2 355.4 326.2 349.7 338.1 349.7C350 349.7 350 355.4 361.9 355.4C373.8 355.4 373.8 349.7 385.7 349.7C397.6 349.7 397.6 355.4 409.5 355.4C421.4 355.4 421.4 349.7 433.3 349.7C445.2 349.7 445.2 355.4 457.1 355.4C469 355.4 469 349.7 480.9 349.7" stroke="#1921E0" stroke-width="2" stroke-miterlimit="10"/>
<path d="M52.5 358.5C64.4 358.5 64.4 364.2 76.3 364.2C88.2 364.2 88.2 358.5 100.1 358.5C112 358.5 112 364.2 123.9 364.2C135.8 364.2 135.8 358.5 147.7 358.5C159.6 358.5 159.6 364.2 171.5 364.2C183.4 364.2 183.4 358.5 195.3 358.5C207.2 358.5 207.2 364.2 219.1 364.2C231 364.2 231 358.5 242.9 358.5C254.8 358.5 254.8 364.2 266.7 364.2C278.6 364.2 278.6 358.5 290.5 358.5C302.4 358.5 302.4 364.2 314.3 364.2C326.2 364.2 326.2 358.5 338.1 358.5C350 358.5 350 364.2 361.9 364.2C373.8 364.2 373.8 358.5 385.7 358.5C397.6 358.5 397.6 364.2 409.5 364.2C421.4 364.2 421.4 358.5 433.3 358.5C445.2 358.5 445.2 364.2 457.1 364.2C469 364.2 469 358.5 480.9 358.5" stroke="#1921E0" stroke-width="2" stroke-miterlimit="10"/>
<path d="M52.5 367.3C64.4 367.3 64.4 373 76.3 373C88.2 373 88.2 367.3 100.1 367.3C112 367.3 112 373 123.9 373C135.8 373 135.8 367.3 147.7 367.3C159.6 367.3 159.6 373 171.5 373C183.4 373 183.4 367.3 195.3 367.3C207.2 367.3 207.2 373 219.1 373C231 373 231 367.3 242.9 367.3C254.8 367.3 254.8 373 266.7 373C278.6 373 278.6 367.3 290.5 367.3C302.4 367.3 302.4 373 314.3 373C326.2 373 326.2 367.3 338.1 367.3C350 367.3 350 373 361.9 373C373.8 373 373.8 367.3 385.7 367.3C397.6 367.3 397.6 373 409.5 373C421.4 373 421.4 367.3 433.3 367.3C445.2 367.3 445.2 373 457.1 373C469 373 469 367.3 480.9 367.3" stroke="#1921E0" stroke-width="2" stroke-miterlimit="10"/>
<path d="M52.5 376.1C64.4 376.1 64.4 381.8 76.3 381.8C88.2 381.8 88.2 376.1 100.1 376.1C112 376.1 112 381.8 123.9 381.8C135.8 381.8 135.8 376.1 147.7 376.1C159.6 376.1 159.6 381.8 171.5 381.8C183.4 381.8 183.4 376.1 195.3 376.1C207.2 376.1 207.2 381.8 219.1 381.8C231 381.8 231 376.1 242.9 376.1C254.8 376.1 254.8 381.8 266.7 381.8C278.6 381.8 278.6 376.1 290.5 376.1C302.4 376.1 302.4 381.8 314.3 381.8C326.2 381.8 326.2 376.1 338.1 376.1C350 376.1 350 381.8 361.9 381.8C373.8 381.8 373.8 376.1 385.7 376.1C397.6 376.1 397.6 381.8 409.5 381.8C421.4 381.8 421.4 376.1 433.3 376.1C445.2 376.1 445.2 381.8 457.1 381.8C469 381.8 469 376.1 480.9 376.1" stroke="#1921E0" stroke-width="2" stroke-miterlimit="10"/>
<path d="M52.5 385C64.4 385 64.4 390.7 76.3 390.7C88.2 390.7 88.2 385 100.1 385C112 385 112 390.7 123.9 390.7C135.8 390.7 135.8 385 147.7 385C159.6 385 159.6 390.7 171.5 390.7C183.4 390.7 183.4 385 195.3 385C207.2 385 207.2 390.7 219.1 390.7C231 390.7 231 385 242.9 385C254.8 385 254.8 390.7 266.7 390.7C278.6 390.7 278.6 385 290.5 385C302.4 385 302.4 390.7 314.3 390.7C326.2 390.7 326.2 385 338.1 385C350 385 350 390.7 361.9 390.7C373.8 390.7 373.8 385 385.7 385C397.6 385 397.6 390.7 409.5 390.7C421.4 390.7 421.4 385 433.3 385C445.2 385 445.2 390.7 457.1 390.7C469 390.7 469 385 480.9 385" stroke="#1921E0" stroke-width="2" stroke-miterlimit="10"/>
<path d="M52.5 393.8C64.4 393.8 64.4 399.5 76.3 399.5C88.2 399.5 88.2 393.8 100.1 393.8C112 393.8 112 399.5 123.9 399.5C135.8 399.5 135.8 393.8 147.7 393.8C159.6 393.8 159.6 399.5 171.5 399.5C183.4 399.5 183.4 393.8 195.3 393.8C207.2 393.8 207.2 399.5 219.1 399.5C231 399.5 231 393.8 242.9 393.8C254.8 393.8 254.8 399.5 266.7 399.5C278.6 399.5 278.6 393.8 290.5 393.8C302.4 393.8 302.4 399.5 314.3 399.5C326.2 399.5 326.2 393.8 338.1 393.8C350 393.8 350 399.5 361.9 399.5C373.8 399.5 373.8 393.8 385.7 393.8C397.6 393.8 397.6 399.5 409.5 399.5C421.4 399.5 421.4 393.8 433.3 393.8C445.2 393.8 445.2 399.5 457.1 399.5C469 399.5 469 393.8 480.9 393.8" stroke="#1921E0" stroke-width="2" stroke-miterlimit="10"/>
<path d="M52.5 402.6C64.4 402.6 64.4 408.3 76.3 408.3C88.2 408.3 88.2 402.6 100.1 402.6C112 402.6 112 408.3 123.9 408.3C135.8 408.3 135.8 402.6 147.7 402.6C159.6 402.6 159.6 408.3 171.5 408.3C183.4 408.3 183.4 402.6 195.3 402.6C207.2 402.6 207.2 408.3 219.1 408.3C231 408.3 231 402.6 242.9 402.6C254.8 402.6 254.8 408.3 266.7 408.3C278.6 408.3 278.6 402.6 290.5 402.6C302.4 402.6 302.4 408.3 314.3 408.3C326.2 408.3 326.2 402.6 338.1 402.6C350 402.6 350 408.3 361.9 408.3C373.8 408.3 373.8 402.6 385.7 402.6C397.6 402.6 397.6 408.3 409.5 408.3C421.4 408.3 421.4 402.6 433.3 402.6C445.2 402.6 445.2 408.3 457.1 408.3C469 408.3 469 402.6 480.9 402.6" stroke="#1921E0" stroke-width="2" stroke-miterlimit="10"/>
<path d="M52.5 411.5C64.4 411.5 64.4 417.2 76.3 417.2C88.2 417.2 88.2 411.5 100.1 411.5C112 411.5 112 417.2 123.9 417.2C135.8 417.2 135.8 411.5 147.7 411.5C159.6 411.5 159.6 417.2 171.5 417.2C183.4 417.2 183.4 411.5 195.3 411.5C207.2 411.5 207.2 417.2 219.1 417.2C231 417.2 231 411.5 242.9 411.5C254.8 411.5 254.8 417.2 266.7 417.2C278.6 417.2 278.6 411.5 290.5 411.5C302.4 411.5 302.4 417.2 314.3 417.2C326.2 417.2 326.2 411.5 338.1 411.5C350 411.5 350 417.2 361.9 417.2C373.8 417.2 373.8 411.5 385.7 411.5C397.6 411.5 397.6 417.2 409.5 417.2C421.4 417.2 421.4 411.5 433.3 411.5C445.2 411.5 445.2 417.2 457.1 417.2C469 417.2 469 411.5 480.9 411.5" stroke="#1921E0" stroke-width="2" stroke-miterlimit="10"/>
<path d="M52.5 420.3C64.4 420.3 64.4 426 76.3 426C88.2 426 88.2 420.3 100.1 420.3C112 420.3 112 426 123.9 426C135.8 426 135.8 420.3 147.7 420.3C159.6 420.3 159.6 426 171.5 426C183.4 426 183.4 420.3 195.3 420.3C207.2 420.3 207.2 426 219.1 426C231 426 231 420.3 242.9 420.3C254.8 420.3 254.8 426 266.7 426C278.6 426 278.6 420.3 290.5 420.3C302.4 420.3 302.4 426 314.3 426C326.2 426 326.2 420.3 338.1 420.3C350 420.3 350 426 361.9 426C373.8 426 373.8 420.3 385.7 420.3C397.6 420.3 397.6 426 409.5 426C421.4 426 421.4 420.3 433.3 420.3C445.2 420.3 445.2 426 457.1 426C469 426 469 420.3 480.9 420.3" stroke="#1921E0" stroke-width="2" stroke-miterlimit="10"/>
<path d="M52.5 429.1C64.4 429.1 64.4 434.8 76.3 434.8C88.2 434.8 88.2 429.1 100.1 429.1C112 429.1 112 434.8 123.9 434.8C135.8 434.8 135.8 429.1 147.7 429.1C159.6 429.1 159.6 434.8 171.5 434.8C183.4 434.8 183.4 429.1 195.3 429.1C207.2 429.1 207.2 434.8 219.1 434.8C231 434.8 231 429.1 242.9 429.1C254.8 429.1 254.8 434.8 266.7 434.8C278.6 434.8 278.6 429.1 290.5 429.1C302.4 429.1 302.4 434.8 314.3 434.8C326.2 434.8 326.2 429.1 338.1 429.1C350 429.1 350 434.8 361.9 434.8C373.8 434.8 373.8 429.1 385.7 429.1C397.6 429.1 397.6 434.8 409.5 434.8C421.4 434.8 421.4 429.1 433.3 429.1C445.2 429.1 445.2 434.8 457.1 434.8C469 434.8 469 429.1 480.9 429.1" stroke="#1921E0" stroke-width="2" stroke-miterlimit="10"/>
<path d="M52.5 437.9C64.4 437.9 64.4 443.6 76.3 443.6C88.2 443.6 88.2 437.9 100.1 437.9C112 437.9 112 443.6 123.9 443.6C135.8 443.6 135.8 437.9 147.7 437.9C159.6 437.9 159.6 443.6 171.5 443.6C183.4 443.6 183.4 437.9 195.3 437.9C207.2 437.9 207.2 443.6 219.1 443.6C231 443.6 231 437.9 242.9 437.9C254.8 437.9 254.8 443.6 266.7 443.6C278.6 443.6 278.6 437.9 290.5 437.9C302.4 437.9 302.4 443.6 314.3 443.6C326.2 443.6 326.2 437.9 338.1 437.9C350 437.9 350 443.6 361.9 443.6C373.8 443.6 373.8 437.9 385.7 437.9C397.6 437.9 397.6 443.6 409.5 443.6C421.4 443.6 421.4 437.9 433.3 437.9C445.2 437.9 445.2 443.6 457.1 443.6C469 443.6 469 437.9 480.9 437.9" stroke="#1921E0" stroke-width="2" stroke-miterlimit="10"/>
<path d="M52.5 446.8C64.4 446.8 64.4 452.5 76.3 452.5C88.2 452.5 88.2 446.8 100.1 446.8C112 446.8 112 452.5 123.9 452.5C135.8 452.5 135.8 446.8 147.7 446.8C159.6 446.8 159.6 452.5 171.5 452.5C183.4 452.5 183.4 446.8 195.3 446.8C207.2 446.8 207.2 452.5 219.1 452.5C231 452.5 231 446.8 242.9 446.8C254.8 446.8 254.8 452.5 266.7 452.5C278.6 452.5 278.6 446.8 290.5 446.8C302.4 446.8 302.4 452.5 314.3 452.5C326.2 452.5 326.2 446.8 338.1 446.8C350 446.8 350 452.5 361.9 452.5C373.8 452.5 373.8 446.8 385.7 446.8C397.6 446.8 397.6 452.5 409.5 452.5C421.4 452.5 421.4 446.8 433.3 446.8C445.2 446.8 445.2 452.5 457.1 452.5C469 452.5 469 446.8 480.9 446.8" stroke="#1921E0" stroke-width="2" stroke-miterlimit="10"/>
<path d="M340.8 210.7C366.26 210.7 386.9 189.657 386.9 163.7C386.9 137.743 366.26 116.7 340.8 116.7C315.34 116.7 294.7 137.743 294.7 163.7C294.7 189.657 315.34 210.7 340.8 210.7Z" fill="white" stroke="#1921E0" stroke-width="2" stroke-miterlimit="10"/>
<path d="M311.7 116.1H304.9V135.4H311.7V116.1Z" fill="white" stroke="#1921E0" stroke-width="2" stroke-miterlimit="10"/>
<path d="M212.7 229.4L204.2 243V285.7H212.7H284.4V229.4H212.7Z" fill="white" stroke="#1921E0" stroke-width="2" stroke-miterlimit="10"/>
<path d="M442.6 246.9C446.963 246.9 450.5 243.363 450.5 239C450.5 234.637 446.963 231.1 442.6 231.1C438.237 231.1 434.7 234.637 434.7 239C434.7 243.363 438.237 246.9 442.6 246.9Z" fill="white" stroke="#1921E0" stroke-width="2" stroke-miterlimit="10"/>
<path d="M450.6 238.2H434.7V287.5H450.6V238.2Z" fill="white" stroke="#1921E0" stroke-width="2" stroke-miterlimit="10"/>
<path d="M200.8 285.7H115.4V323.3H200.8V285.7Z" fill="white" stroke="#1921E0" stroke-width="2" stroke-miterlimit="10"/>
<path d="M284.4 354H246.2V408.6H284.4V354Z" fill="white" stroke="#1921E0" stroke-width="2" stroke-miterlimit="10"/>
<path d="M398.8 246.5L610.5 266.9V307.9L417.6 304.5L398.8 246.5Z" fill="white" stroke="#1921E0" stroke-width="2" stroke-miterlimit="10"/>
<path d="M397.1 164.3H284.4V244.8H397.1V164.3Z" fill="white" stroke="#1921E0" stroke-width="2" stroke-miterlimit="10"/>
<path d="M396.7 167.8H285.3L279.9 160.7H402.1L396.7 167.8Z" fill="white" stroke="#1921E0" stroke-width="2" stroke-miterlimit="10"/>
<path d="M283.4 161.1H279.9V150.9H402.1V161.1H283.4Z" fill="white" stroke="#1921E0" stroke-width="2" stroke-miterlimit="10"/>
<path d="M381.7 173H376.6V193.5H381.7V173Z" stroke="#1921E0" stroke-width="2" stroke-miterlimit="10"/>
<path d="M336.5 181.6H330.5V198.7H336.5V181.6Z" stroke="#1921E0" stroke-width="2" stroke-miterlimit="10"/>
<path d="M356.1 108.2H325.9V123.5H356.1V109.9V108.2Z" fill="white" stroke="#1921E0" stroke-width="2" stroke-miterlimit="10"/>
<path d="M373.7 115H363.1V144H373.7V115Z" fill="white" stroke="#1921E0" stroke-width="2" stroke-miterlimit="10"/>
<path d="M373.7 115H363.1V120H373.7V115Z" fill="white" stroke="#1921E0" stroke-width="2" stroke-miterlimit="10"/>
<path d="M334.8 70.6V104.8" stroke="#1921E0" stroke-width="2" stroke-miterlimit="10"/>
<path d="M340.3 89.5C338.5 89.5 336.7 89.1 334.9 88L334.7 87.9V69.9L335.4 70.3C339.2 72.6 343 71.4 347 70.2C351 69 355.2 67.7 359.3 70.2L359.5 70.3V88.7L358.8 88.3C355 86 351.2 87.1 347.2 88.3C345 88.8 342.7 89.5 340.3 89.5Z" fill="white" stroke="#1921E0" stroke-width="2" stroke-miterlimit="10"/>
<path d="M325.4 111.6H356.1" stroke="#1921E0" stroke-width="2" stroke-miterlimit="10"/>
<path d="M328.8 252.8C328.8 252.8 335.6 251.3 340.8 246.7C346 242.1 340.8 236.1 352.8 236.1C364.8 236.1 357.9 233.1 373.3 234.6C388.7 236.1 390.4 227 400.6 230.1C410.8 233.2 416 246.8 422.8 246.8C429.6 246.8 441.6 260.4 450.1 260.4C458.6 260.4 451.8 264.9 460.3 269.5C468.8 274 468.8 275.6 479.1 277.1C489.4 278.6 504.7 281.6 506.4 286.2C508.1 290.8 514.9 298.3 526.9 296.8C538.9 295.3 550.8 293.8 561 296.8C571.2 299.8 600.3 324.1 600.3 324.1L392 351.3L352.7 263.4L328.8 252.8Z" fill="#CACCFF" stroke="#1921E0" stroke-width="2" stroke-miterlimit="10"/>
<path d="M344.2 244.8H233.2V275.5H344.2V244.8Z" fill="white" stroke="#1921E0" stroke-width="2" stroke-miterlimit="10"/>
<path d="M648.3 358.5C648.3 358.5 680.4 361.9 694.9 375.6C709.5 389.3 715.3 379 729.9 387.6C744.5 396.1 767.9 404.4 767.9 404.4V465.7L639.6 447.3L648.3 358.5Z" fill="#CACCFF" stroke="#1921E0" stroke-width="2" stroke-miterlimit="10"/>
<path d="M631.8 285.9C643.619 285.9 653.2 276.319 653.2 264.5C653.2 252.681 643.619 243.1 631.8 243.1C619.981 243.1 610.4 252.681 610.4 264.5C610.4 276.319 619.981 285.9 631.8 285.9Z" fill="white" stroke="#1921E0" stroke-width="2" stroke-miterlimit="10"/>
<path d="M653.2 262.1H610.4V395H653.2V262.1Z" fill="white" stroke="#1921E0" stroke-width="2" stroke-miterlimit="10"/>
<path d="M361.2 263.5H357.8V270.3H361.2V263.5Z" fill="white" stroke="#1921E0" stroke-width="2" stroke-miterlimit="10"/>
<path d="M388.6 265.2H340.8V379.6H388.6V265.2Z" fill="white" stroke="#1921E0" stroke-width="2" stroke-miterlimit="10"/>
<path d="M350.7 280.6H345.9V290.8H350.7V280.6Z" fill="white" stroke="#1921E0" stroke-width="2" stroke-miterlimit="10"/>
<path d="M375.5 323.3H371.5V333.5H375.5V323.3Z" fill="white" stroke="#1921E0" stroke-width="2" stroke-miterlimit="10"/>
<path d="M369.8 284H364.7V294.2H369.8V284Z" fill="white" stroke="#1921E0" stroke-width="2" stroke-miterlimit="10"/>
<path d="M610.5 395L388.6 410.2V304.3L610.5 289.1V395Z" fill="white" stroke="#1921E0" stroke-width="2" stroke-miterlimit="10"/>
<path d="M340.8 275.5H233.2V323.3H340.8V275.5Z" fill="white" stroke="#1921E0" stroke-width="2" stroke-miterlimit="10"/>
<path d="M610.4 266.9H653" stroke="#1921E0" stroke-width="2" stroke-miterlimit="10"/>
<path d="M642.8 280.3H639.4V297.4H642.8V280.3Z" stroke="#1921E0" stroke-width="2" stroke-miterlimit="10"/>
<path d="M625.7 276.9H620.6V287.1H625.7V276.9Z" stroke="#1921E0" stroke-width="2" stroke-miterlimit="10"/>
<path d="M266.1 263.7L261.7 257.1L257.3 263.7L252.8 270.4V289.1H270.6V270.4L266.1 263.7Z" fill="white" stroke="#1921E0" stroke-width="2" stroke-miterlimit="10"/>
<path d="M239.1 244.8H233.2V323.8H239.1V244.8Z" fill="white" stroke="#1921E0" stroke-width="2" stroke-miterlimit="10"/>
<path d="M344.1 244.8H338.3V249.4H344.1V244.8Z" fill="white" stroke="#1921E0" stroke-width="2" stroke-miterlimit="10"/>
<path d="M285.2 254.6H274.2V275.5H285.2V254.6Z" stroke="#1921E0" stroke-width="2" stroke-miterlimit="10"/>
<path d="M243.4 224.3H233.2V244.8H243.4V224.3Z" fill="white" stroke="#1921E0" stroke-width="2" stroke-miterlimit="10"/>
<path d="M344.1 224.3H333.9V244.8H344.1V224.3Z" fill="white" stroke="#1921E0" stroke-width="2" stroke-miterlimit="10"/>
<path d="M246.2 323.3H115.4V396.7H246.2V323.3Z" fill="white" stroke="#1921E0" stroke-width="2" stroke-miterlimit="10"/>
<path d="M265.2 360.9C257.7 360.9 251.5 367 251.5 374.6V408.7H278.8V374.6C278.8 367 272.7 360.9 265.2 360.9Z" stroke="#1921E0" stroke-width="2" stroke-miterlimit="10"/>
<path d="M284.4 323.3H246.2V354H284.4V323.3Z" fill="white" stroke="#1921E0" stroke-width="2" stroke-miterlimit="10"/>
<path d="M265.2 360.9V408.7" stroke="#1921E0" stroke-width="2" stroke-miterlimit="10"/>
<path d="M130.8 278.9H86.4V372.8H130.8V278.9Z" fill="white" stroke="#1921E0" stroke-width="2" stroke-miterlimit="10"/>
<path d="M393.6 249.9H335.6V261.9H393.6V249.9Z" fill="white" stroke="#1921E0" stroke-width="2" stroke-miterlimit="10"/>
<path d="M390.3 267.4H339L335.6 261.8H393.7L390.3 267.4Z" fill="white" stroke="#1921E0" stroke-width="2" stroke-miterlimit="10"/>
<path d="M427.8 386.6C427.8 386.6 444 367.8 458.2 367.8C472.4 367.8 480.5 359.3 498.7 362.7C516.9 366.1 527 369.5 541.2 369.5C555.4 369.5 577.6 362.7 591.8 369.5C606 376.3 622.2 390 638.3 388.3C654.5 386.6 690.9 388.3 697 396.8C703.1 405.3 725.3 403.6 731.4 417.3C737.5 431 767.9 436.3 767.9 446.8C767.9 457.3 767.9 487.3 767.9 487.3H498.7L436 437.8L427.8 386.6Z" fill="#CACCFF" stroke="#1921E0" stroke-width="2" stroke-miterlimit="10"/>
<path d="M352.7 313V323.3H344.2V313H335.6V323.3H327.1V313H318.6V323.3H310V313H301.5V323.3H293V313H284.4V323.3V432.6H361.2V323.3V313H352.7Z" fill="white" stroke="#1921E0" stroke-width="2" stroke-miterlimit="10"/>
<path d="M485.8 379.6H361.2V478.6H485.8V379.6Z" fill="white" stroke="#1921E0" stroke-width="2" stroke-miterlimit="10"/>
<path d="M286.1 408C286.1 408 313.4 412 333.9 420C354.4 428 359.5 434 376.6 434C393.7 434 398.8 449.9 422.7 453.9C446.6 457.9 463.7 461.9 473.9 469.8C484.1 477.7 513.1 478.9 513.2 487.7H409.7L270.7 451.8L286.1 408Z" fill="#CACCFF" stroke="#1921E0" stroke-width="2" stroke-miterlimit="10"/>
<path d="M254.1 350.6C255.536 350.6 256.7 349.436 256.7 348C256.7 346.564 255.536 345.4 254.1 345.4C252.664 345.4 251.5 346.564 251.5 348C251.5 349.436 252.664 350.6 254.1 350.6Z" stroke="#1921E0" stroke-width="2" stroke-miterlimit="10"/>
<path d="M277.3 350.6C278.736 350.6 279.9 349.436 279.9 348C279.9 346.564 278.736 345.4 277.3 345.4C275.864 345.4 274.7 346.564 274.7 348C274.7 349.436 275.864 350.6 277.3 350.6Z" stroke="#1921E0" stroke-width="2" stroke-miterlimit="10"/>
<path d="M388.6 379.6H485.9L388.6 369.4V379.6Z" fill="white" stroke="#1921E0" stroke-width="2" stroke-miterlimit="10"/>
<path d="M15.5 361.6C15.5 361.6 27.3 356.8 63 355.2C98.7 353.6 100.8 366 127.2 364.8C153.6 363.6 144.7 373 177.3 371.5C209.9 370 228.9 378.1 243.4 388.2C257.8 398.3 258.8 385.7 289.1 402.2C319.4 418.7 326.2 432.7 351.3 437C376.4 441.3 388 458.6 400.6 461.6C413.2 464.6 418.6 487.6 418.6 487.6L16.5 485L15.5 361.6Z" fill="#CACCFF" stroke="#1921E0" stroke-width="2" stroke-miterlimit="10"/>
<path d="M147.8 296H142.7V323.3H147.8V296Z" fill="white" stroke="#1921E0" stroke-width="2" stroke-miterlimit="10"/>
<path d="M173.4 296H168.3V323.3H173.4V296Z" fill="white" stroke="#1921E0" stroke-width="2" stroke-miterlimit="10"/>
<path d="M178.6 285.7H137.6V302.8H142.7V300.2C142.7 298.8 143.9 297.6 145.3 297.6C146.7 297.6 147.9 298.8 147.9 300.2V302.8H151.3V300.2C151.3 298.8 152.5 297.6 153.9 297.6C155.3 297.6 156.5 298.8 156.5 300.2V302.8H159.9V300.2C159.9 298.8 161.1 297.6 162.5 297.6C163.9 297.6 165.1 298.8 165.1 300.2V302.8H168.5V300.2C168.5 298.8 169.7 297.6 171.1 297.6C172.5 297.6 173.7 298.8 173.7 300.2V302.8H178.8V285.7H178.6Z" fill="white" stroke="#1921E0" stroke-width="2" stroke-miterlimit="10"/>
<path d="M186.2 251.6L182 246.5L177.7 251.6L173.4 256.7V277.2H190.5V256.7L186.2 251.6Z" fill="white" stroke="#1921E0" stroke-width="2" stroke-miterlimit="10"/>
<path d="M182.1 285.7H163.4L172.7 273.8L182.1 261.8L191.4 273.8L200.8 285.7H182.1Z" fill="white" stroke="#1921E0" stroke-width="2" stroke-miterlimit="10"/>
<path d="M239.2 278.9H200.8V323.3H239.2V278.9Z" fill="white" stroke="#1921E0" stroke-width="2" stroke-miterlimit="10"/>
<path d="M200.8 278.9L233.2 260.1V278.9H200.8Z" fill="white" stroke="#1921E0" stroke-width="2" stroke-miterlimit="10"/>
<path d="M193.1 316.2C199.23 316.2 204.2 311.23 204.2 305.1C204.2 298.97 199.23 294 193.1 294C186.97 294 182 298.97 182 305.1C182 311.23 186.97 316.2 193.1 316.2Z" fill="white" stroke="#1921E0" stroke-width="2" stroke-miterlimit="10"/>
<path d="M204.2 303.9H182V323.3H204.2V303.9Z" fill="white" stroke="#1921E0" stroke-width="2" stroke-miterlimit="10"/>
<path d="M266.1 272.3H261.7V281.2H266.1V272.3Z" fill="white" stroke="#1921E0" stroke-width="2" stroke-miterlimit="10"/>
<path d="M261.7 272.3H257.3V281.2H261.7V272.3Z" fill="white" stroke="#1921E0" stroke-width="2" stroke-miterlimit="10"/>
<path d="M356 107.6V104.8H351.7V107.6H347.4V104.8H343.1V107.6H338.8V104.8H334.5V107.6H330.2V104.8H325.9V107.6V109.4V111.1H356V107.6Z" fill="white" stroke="#1921E0" stroke-width="2" stroke-miterlimit="10"/>
<path d="M337.3 137.2H328.8V145.7H337.3V137.2Z" stroke="#1921E0" stroke-width="2" stroke-miterlimit="10"/>
<path d="M340.8 134.2H325.4V145.8H340.8V134.2Z" stroke="#1921E0" stroke-width="2" stroke-miterlimit="10"/>
<path d="M325.4 133.8L328.8 130.4H337.3L340.8 133.8H325.4Z" stroke="#1921E0" stroke-width="2" stroke-miterlimit="10"/>
<path d="M323.3 263.7L318.8 257.1L314.4 263.7L310 270.4V289.1H327.7V270.4L323.3 263.7Z" fill="white" stroke="#1921E0" stroke-width="2" stroke-miterlimit="10"/>
<path d="M323.2 272.3H318.8V281.2H323.2V272.3Z" fill="white" stroke="#1921E0" stroke-width="2" stroke-miterlimit="10"/>
<path d="M318.8 272.3H314.4V281.2H318.8V272.3Z" fill="white" stroke="#1921E0" stroke-width="2" stroke-miterlimit="10"/>
</g>
<defs>
<clipPath id="clip0">
<rect width="789.6" height="507.2" fill="white"/>
</clipPath>
</defs>
</svg>
